<?xml version="1.0" standalone="no"?>
<!DOCTYPE svg PUBLIC "-//W3C//DTD SVG 1.1//EN" "http://www.w3.org/Graphics/SVG/1.1/DTD/svg11.dtd" >
<svg xmlns="http://www.w3.org/2000/svg" xmlns:xlink="http://www.w3.org/1999/xlink" version="1.1">
<metadata>
Created by FontForge 20170731 at Sat Mar 26 02:54:45 2022
 By Aleksey,,,
Copyright (c) 2003-2018 Monotype GmbH All rights reserved.
</metadata>
<defs>
<font id="AvenirNextW1G-Light" horiz-adv-x="0" >
  <font-face 
    font-family="Avenir Next W1G Light"
    font-weight="300"
    font-stretch="normal"
    units-per-em="2048"
    panose-1="2 11 4 3 2 2 2 2 2 4"
    ascent="1548"
    descent="-500"
    x-height="954"
    cap-height="1450"
    bbox="-561 -543 2640 2351"
    underline-thickness="102"
    underline-position="-307"
    unicode-range="U+000D-FEFF"
  />
<missing-glyph horiz-adv-x="1048" 
d="M0 0v1470h1049v-1470h-1049zM102 102h844v1264h-844v-1264zM461 479q-4 24 -4 35q0 115 26 166q33 64 95 121q64 59 83 93.5t19 76.5q0 73 -46 123.5t-110 50.5q-67 0 -112 -47.5t-56 -147.5l-102 17q13 141 87 210.5t189 69.5q110 0 182 -74t72 -194q0 -70 -26.5 -123.5
t-102.5 -122.5q-77 -68 -88 -106q-12 -41 -12 -148h-94zM455 240v137h114v-137h-114z" />
    <glyph glyph-name="uniFB00" unicode="ff" horiz-adv-x="1144" 
d="M231 0v860h-198v94h198v285q0 163 79.5 248.5t221.5 85.5q66 0 109 -14l-18 -97q-54 15 -93 15q-54 0 -92 -19.5t-57.5 -55.5t-28 -78t-8.5 -97v-273h436v285q0 163 79.5 248.5t221.5 85.5q63 0 109 -14l-21 -97q-51 15 -92 15q-54 0 -92 -19.5t-57.5 -55.5t-28 -78
t-8.5 -97v-273h235v-94h-235v-860h-111v860h-436v-860h-113z" />
    <glyph glyph-name="fi" unicode="fi" horiz-adv-x="1083" 
d="M231 0v860h-198v94h198v285q0 163 79.5 248.5t221.5 85.5q66 0 109 -14l-18 -93q-42 11 -93 11q-54 0 -92 -19.5t-57.5 -55.5t-28 -78t-8.5 -97v-273h234v-94h-234v-860h-113zM834 1249q-32 0 -57 24t-25 60t25 60t57 24q33 0 58.5 -24t25.5 -60t-25.5 -60t-58.5 -24z
M778 0v954h113v-954h-113z" />
    <glyph glyph-name="fl" unicode="fl" horiz-adv-x="1083" 
d="M231 0v860h-198v94h198v285q0 163 79.5 248.5t221.5 85.5q66 0 109 -14l-18 -93q-42 11 -93 11q-54 0 -92 -19.5t-57.5 -55.5t-28 -78t-8.5 -97v-273h234v-94h-234v-860h-113zM778 0v1548h111v-1548h-111z" />
    <glyph glyph-name="uniFB03" unicode="ffi" horiz-adv-x="1632" 
d="M231 0v860h-198v94h198v285q0 163 79.5 248.5t221.5 85.5q66 0 109 -14l-18 -97q-54 15 -93 15q-54 0 -92 -19.5t-57.5 -55.5t-28 -78t-8.5 -97v-273h436v285q0 163 79.5 248.5t221.5 85.5q63 0 109 -14l-21 -97q-51 15 -92 15q-54 0 -92 -19.5t-57.5 -55.5t-28 -78
t-8.5 -97v-273h235v-94h-235v-860h-111v860h-436v-860h-113zM1382 1249q-32 0 -57 24t-25 60t25 60t57 24q33 0 58.5 -24t25.5 -60t-25.5 -60t-58.5 -24zM1327 0v954h113v-954h-113z" />
    <glyph glyph-name="uniFB04" unicode="ffl" horiz-adv-x="1632" 
d="M231 0v860h-198v94h198v285q0 163 79.5 248.5t221.5 85.5q66 0 109 -14l-18 -97q-54 15 -93 15q-54 0 -92 -19.5t-57.5 -55.5t-28 -78t-8.5 -97v-273h436v285q0 163 79.5 248.5t221.5 85.5q63 0 109 -14l-21 -97q-51 15 -92 15q-54 0 -92 -19.5t-57.5 -55.5t-28 -78
t-8.5 -97v-273h235v-94h-235v-860h-111v860h-436v-860h-113zM1327 0v1548h111v-1548h-111z" />
    <glyph glyph-name=".notdef" horiz-adv-x="1048" 
d="M0 0v1470h1049v-1470h-1049zM102 102h844v1264h-844v-1264zM461 479q-4 24 -4 35q0 115 26 166q33 64 95 121q64 59 83 93.5t19 76.5q0 73 -46 123.5t-110 50.5q-67 0 -112 -47.5t-56 -147.5l-102 17q13 141 87 210.5t189 69.5q110 0 182 -74t72 -194q0 -70 -26.5 -123.5
t-102.5 -122.5q-77 -68 -88 -106q-12 -41 -12 -148h-94zM455 240v137h114v-137h-114z" />
    <glyph glyph-name=".null" 
 />
    <glyph glyph-name="nonmarkingreturn" horiz-adv-x="682" 
 />
    <glyph glyph-name="NULL" horiz-adv-x="1024" 
 />
    <glyph glyph-name="NULL" horiz-adv-x="1024" 
 />
    <glyph glyph-name="CR" unicode="&#xd;" horiz-adv-x="512" 
 />
    <glyph glyph-name="space" unicode=" " horiz-adv-x="512" 
 />
    <glyph glyph-name="exclam" unicode="!" horiz-adv-x="638" 
d="M262 395v1055h117v-1055h-117zM319 -12q-39 0 -65.5 28t-26.5 64q0 39 26.5 66.5t65.5 27.5t66 -27.5t27 -66.5q0 -36 -27 -64t-66 -28z" />
    <glyph glyph-name="quotedbl" unicode="&#x22;" horiz-adv-x="829" 
d="M217 973v477h98v-477h-98zM512 973v477h100v-477h-100z" />
    <glyph glyph-name="numbersign" unicode="#" horiz-adv-x="1134" 
d="M221 0l62 455h-215v96h227l49 352h-223v96h237l60 451h98l-59 -451h295l61 451h98l-59 -451h197v-96h-211l-47 -352h204v-96h-219l-61 -455h-99l62 455h-297l-62 -455h-98zM395 551h295l47 352h-295z" />
    <glyph glyph-name="dollar" unicode="$" horiz-adv-x="1175" 
d="M535 -172v147q-256 6 -416 209l82 64q67 -89 157.5 -132.5t176.5 -45.5v622q-67 21 -118 41.5t-105.5 54.5t-90 74.5t-58 99.5t-22.5 130q0 167 112 269.5t282 113.5v147h81v-147q109 -2 208.5 -43.5t166.5 -120.5l-73 -70q-57 67 -136 104t-166 37v-600q53 -18 91.5 -33
t84.5 -37.5t78.5 -45.5t65 -55t52 -67.5t32 -82.5t12.5 -101q0 -169 -118 -274.5t-298 -110.5v-147h-81zM535 811v571q-118 -6 -199.5 -83t-81.5 -199q0 -116 74.5 -183.5t206.5 -105.5zM616 70q57 2 108.5 20.5t95 53t69.5 93t26 132.5q0 206 -299 303v-602z" />
    <glyph glyph-name="percent" unicode="%" horiz-adv-x="1697" 
d="M430 -61l-84 45l918 1527l82 -45zM436 774q-148 0 -249 101t-101 247q0 148 101 249.5t249 101.5q146 0 247 -101.5t101 -249.5q0 -146 -101 -247t-247 -101zM436 872q102 0 175 72t73 178t-73 179t-175 73q-104 0 -177 -73t-73 -179t73 -178t177 -72zM1262 -23
q-146 0 -247.5 101.5t-101.5 247.5t101.5 247t247.5 101t248 -101t102 -247t-102 -247.5t-248 -101.5zM1262 76q104 0 176.5 72t72.5 178t-72.5 179t-176.5 73q-102 0 -175 -73t-73 -179t73 -178t175 -72z" />
    <glyph glyph-name="ampersand" unicode="&#x26;" horiz-adv-x="1441" 
d="M555 -29q-122 0 -220 46.5t-157 139.5t-59 218q0 152 88 254t250 178q-88 94 -134.5 176t-46.5 170q0 153 99 243.5t250 90.5q143 0 239.5 -86t96.5 -227q0 -56 -19 -106t-48 -88.5t-75.5 -75.5t-90.5 -63.5t-103 -56.5l368 -385l211 377h131l-262 -452l309 -324h-159
l-215 227q-90 -131 -199.5 -193.5t-253.5 -62.5zM557 854q66 32 110 59.5t89 66t67.5 86t22.5 103.5q0 97 -63 159.5t-158 62.5q-101 0 -167.5 -66t-66.5 -172q0 -137 166 -299zM561 70q118 0 207 58.5t162 174.5l-406 428q-140 -65 -214 -151.5t-74 -206.5
q0 -134 94 -218.5t231 -84.5z" />
    <glyph glyph-name="quotesingle" unicode="'" horiz-adv-x="532" 
d="M217 973v477h98v-477h-98z" />
    <glyph glyph-name="parenleft" unicode="(" horiz-adv-x="614" 
d="M379 -324q-133 194 -210 429.5t-77 484.5q0 252 78 493.5t209 419.5l88 -53q-121 -169 -194.5 -400t-73.5 -460q0 -228 72.5 -454.5t195.5 -405.5z" />
    <glyph glyph-name="parenright" unicode=")" horiz-adv-x="614" 
d="M233 -324l-88 54q121 170 195 401t74 459t-74 459t-195 401l88 53q131 -179 210 -420.5t79 -492.5t-79 -493.5t-210 -420.5z" />
    <glyph glyph-name="asterisk" unicode="*" horiz-adv-x="909" 
d="M260 731l-78 60l193 260l-303 94l32 92l302 -96v309h98v-309l301 96l33 -92l-303 -94l192 -260l-78 -60l-194 266z" />
    <glyph glyph-name="plus" unicode="+" horiz-adv-x="1363" 
d="M633 109v464h-459v97h459v465h100v-465h457v-97h-457v-464h-100z" />
    <glyph glyph-name="comma" unicode="," horiz-adv-x="520" 
d="M109 -285l131 478h116l-155 -478h-92z" />
    <glyph glyph-name="hyphen" unicode="-" horiz-adv-x="643" 
d="M106 457v94h431v-94h-431z" />
    <glyph glyph-name="period" unicode="." horiz-adv-x="520" 
d="M260 -12q-39 0 -65.5 27.5t-26.5 66.5q0 36 26.5 64t65.5 28t65.5 -28t26.5 -64q0 -39 -26.5 -66.5t-65.5 -27.5z" />
    <glyph glyph-name="slash" unicode="/" horiz-adv-x="757" 
d="M117 -35l-97 31l625 1493l92 -33z" />
    <glyph glyph-name="zero" unicode="0" horiz-adv-x="1175" 
d="M588 -33q-77 0 -141.5 23t-112 63t-84.5 97.5t-61 122.5t-39.5 142t-22 152t-6.5 156q0 82 6.5 157.5t22 152.5t39.5 142.5t61 123t84.5 98t112 63.5t141.5 23q89 0 161.5 -30.5t122.5 -86t86.5 -126.5t57 -158.5t30 -175t9.5 -183.5q0 -115 -13 -218t-46.5 -203.5
t-85 -173t-134 -117t-188.5 -44.5zM588 68q70 0 126 29.5t93.5 82t64 116t40.5 140t20 146t6 141.5q0 89 -8.5 172.5t-32 174.5t-61 158t-101.5 110.5t-147 43.5q-84 0 -148 -43.5t-101.5 -110.5t-61 -158.5t-31.5 -174.5t-8 -172q0 -61 4 -120t14.5 -125.5t27.5 -124
t44.5 -111t63 -91.5t86 -60.5t110.5 -22.5z" />
    <glyph glyph-name="one" unicode="1" horiz-adv-x="1175" 
d="M588 0v1307l-266 -228l-70 82l348 289h105v-1450h-117z" />
    <glyph glyph-name="two" unicode="2" horiz-adv-x="1175" 
d="M113 0v123l567 598q94 99 145.5 187.5t51.5 183.5q0 130 -86.5 211t-212.5 81q-116 0 -200 -70t-112 -186l-114 25q34 148 150.5 239t275.5 91q116 0 209.5 -44t150.5 -133t57 -208q0 -67 -17.5 -127t-55 -118.5t-76 -105t-101.5 -112.5l-507 -531h768v-104h-893z" />
    <glyph glyph-name="three" unicode="3" horiz-adv-x="1175" 
d="M553 -33q-304 0 -436 271l96 49q52 -107 139 -163t201 -56q144 0 239 90t95 237q0 66 -22.5 120.5t-60.5 90t-88.5 60t-104.5 35t-111 10.5h-60v100h60q96 0 171 28t124 94.5t49 164.5q0 126 -85.5 206t-209.5 80q-92 0 -160 -38.5t-125 -124.5l-88 57q130 205 377 205
q173 0 289 -102t116 -277q0 -127 -72 -218.5t-194 -119.5v-4q143 -28 227.5 -127t84.5 -240q0 -191 -126.5 -309.5t-324.5 -118.5z" />
    <glyph glyph-name="four" unicode="4" horiz-adv-x="1175" 
d="M754 0v358h-668v117l627 975h155v-989h222v-103h-222v-358h-114zM207 461h547v858h-4z" />
    <glyph glyph-name="five" unicode="5" horiz-adv-x="1175" 
d="M545 -33q-283 0 -414 238l96 55q57 -99 132.5 -145.5t179.5 -46.5q150 0 253 102t103 266q0 165 -104.5 267t-272.5 102q-147 0 -293 -78l15 723h714v-104h-606l-12 -484q89 39 215 39q204 0 333.5 -127t129.5 -328q0 -214 -133 -346.5t-336 -132.5z" />
    <glyph glyph-name="six" unicode="6" horiz-adv-x="1175" 
d="M588 -33q-200 0 -328.5 126t-128.5 325q0 179 127 389l391 643h135l-415 -664l4 -4q38 36 104.5 58t134.5 22q187 0 311 -125t124 -319q0 -199 -129.5 -325t-329.5 -126zM588 66q150 0 246 100t96 252q0 151 -94 250.5t-244 99.5q-152 0 -249 -99.5t-97 -250.5
q0 -152 96 -252t246 -100z" />
    <glyph glyph-name="seven" unicode="7" horiz-adv-x="1175" 
d="M274 0l605 1346h-721v104h837v-111l-589 -1339h-132z" />
    <glyph glyph-name="eight" unicode="8" horiz-adv-x="1175" 
d="M588 -33q-124 0 -227.5 50t-165.5 146t-62 220q0 140 77.5 245t207.5 142v4q-104 36 -167 129t-63 203q0 167 116 272t284 105t283.5 -105t115.5 -272q0 -111 -62.5 -203.5t-166.5 -128.5v-4q132 -38 208 -142.5t76 -244.5q0 -186 -131.5 -301t-322.5 -115zM588 821
q121 0 202.5 80t81.5 199q0 124 -81 204t-203 80t-203.5 -80t-81.5 -204q0 -119 82 -199t203 -80zM588 66q150 0 244 93t94 234t-95.5 233.5t-242.5 92.5t-242.5 -92.5t-95.5 -233.5t94 -234t244 -93z" />
    <glyph glyph-name="nine" unicode="9" horiz-adv-x="1175" 
d="M393 0l418 668l-4 4q-38 -36 -105.5 -58t-136.5 -22q-187 0 -310.5 124t-123.5 318q0 197 130.5 323t330.5 126t327.5 -125t127.5 -324q0 -183 -125 -387l-394 -647h-135zM588 686q151 0 247.5 99t96.5 249q0 152 -96 251t-246 99t-246 -99t-96 -251q0 -151 94 -249.5
t246 -98.5z" />
    <glyph glyph-name="colon" unicode=":" horiz-adv-x="602" 
d="M301 776q-39 0 -65.5 27.5t-26.5 64.5q0 38 26.5 66.5t65.5 28.5t65.5 -28.5t26.5 -66.5q0 -37 -26.5 -64.5t-65.5 -27.5zM301 -12q-39 0 -65.5 27.5t-26.5 66.5q0 36 26.5 64t65.5 28t65.5 -28t26.5 -64q0 -39 -26.5 -66.5t-65.5 -27.5z" />
    <glyph glyph-name="uni003B" unicode=";" horiz-adv-x="602" 
d="M301 776q-39 0 -65.5 27.5t-26.5 64.5q0 38 26.5 66.5t65.5 28.5t65.5 -28.5t26.5 -66.5q0 -37 -26.5 -64.5t-65.5 -27.5zM133 -285l131 478h121l-156 -478h-96z" />
    <glyph glyph-name="less" unicode="&#x3c;" horiz-adv-x="1363" 
d="M1190 100l-1016 480v82l1016 479v-101l-893 -419l893 -420v-101z" />
    <glyph glyph-name="equal" unicode="=" horiz-adv-x="1363" 
d="M174 733v96h1016v-96h-1016zM174 412v98h1016v-98h-1016z" />
    <glyph glyph-name="greater" unicode="&#x3e;" horiz-adv-x="1363" 
d="M174 100v101l893 420l-893 419v101l1016 -479v-82z" />
    <glyph glyph-name="question" unicode="?" horiz-adv-x="980" 
d="M432 397v119q0 96 40 165.5t118 137.5l61 53q61 53 93 108t32 136q0 121 -79 190.5t-197 69.5q-116 0 -193 -70.5t-96 -185.5l-111 21q31 157 139.5 247.5t264.5 90.5q168 0 278.5 -95.5t110.5 -261.5q0 -63 -13 -113t-43 -91t-56.5 -67t-73.5 -65q-66 -55 -97.5 -91.5
t-47 -83.5t-15.5 -119v-95h-115zM502 -12q-40 0 -66 27.5t-26 64.5q0 39 26 66.5t66 27.5q38 0 64 -27.5t26 -66.5q0 -37 -25.5 -64.5t-64.5 -27.5z" />
    <glyph glyph-name="at" unicode="@" horiz-adv-x="1638" 
d="M856 -39q-172 0 -317.5 58t-246 159.5t-156.5 242.5t-56 304q0 159 61 301t164.5 243.5t246.5 160.5t302 59q145 0 274.5 -44t228.5 -125t157.5 -206.5t58.5 -277.5q0 -234 -113 -371t-286 -137q-86 0 -130.5 43.5t-44.5 115.5h-6q-30 -60 -100 -109.5t-162 -49.5
q-130 0 -204 88.5t-74 226.5q0 119 48.5 228t143.5 182t215 73q81 0 137.5 -39t75.5 -102h8l27 109h102l-100 -412q-20 -92 -20 -152q0 -106 108 -106q81 0 142 55.5t91.5 145.5t30.5 200q0 172 -79.5 300.5t-216.5 194.5t-314 66q-189 0 -339 -89.5t-231 -241t-81 -336.5
q0 -193 83.5 -343t235 -233.5t346.5 -83.5q334 0 561 234l62 -74q-117 -126 -279 -192t-354 -66zM745 424q71 0 128.5 41.5t90 104.5t49.5 128t17 121q0 90 -41.5 149.5t-132.5 59.5q-65 0 -120.5 -36.5t-90.5 -94t-54.5 -125.5t-19.5 -135q0 -37 9 -72.5t28 -68t54.5 -52.5
t82.5 -20z" />
    <glyph glyph-name="A" unicode="A" horiz-adv-x="1413" 
d="M25 0l628 1450h117l616 -1450h-129l-163 391h-777l-163 -391h-129zM360 498h691l-342 829z" />
    <glyph glyph-name="B" unicode="B" horiz-adv-x="1288" 
d="M201 0v1450h420q70 0 133 -10t124.5 -36t106 -66t71.5 -104.5t27 -146.5q0 -122 -75 -207t-193 -112v-4q142 -15 240 -111t98 -256q0 -190 -144 -293.5t-374 -103.5h-434zM317 807h312q63 0 120 14.5t107 45t79.5 85t29.5 127.5q0 72 -29 126t-81 84.5t-116 45.5t-141 15
h-281v-543zM317 100h306q87 0 159.5 17t130 52.5t89.5 94.5t32 137q0 153 -106 230.5t-281 77.5h-330v-609z" />
    <glyph glyph-name="C" unicode="C" horiz-adv-x="1476" 
d="M872 -39q-215 0 -386 98.5t-266 273t-95 392.5q0 163 56.5 305.5t155.5 243t238 158t299 57.5q159 0 290.5 -55t209.5 -156l-84 -78q-65 82 -175 133t-238 51q-188 0 -333 -90.5t-220.5 -239.5t-75.5 -329q0 -133 44.5 -253t124.5 -210t199.5 -143t260.5 -53
q135 0 242.5 48.5t201.5 164.5l80 -64q-194 -254 -529 -254z" />
    <glyph glyph-name="D" unicode="D" horiz-adv-x="1558" 
d="M201 0v1450h458q118 0 230 -28t211 -87t173 -143t117.5 -204.5t43.5 -262.5t-43.5 -262.5t-117.5 -204.5t-173 -143t-211 -87t-230 -28h-458zM317 104h312q159 0 289 47.5t215.5 131t131.5 197t46 245.5q0 133 -46 246.5t-131.5 197t-215.5 130.5t-289 47h-312v-1242z
" />
    <glyph glyph-name="E" unicode="E" horiz-adv-x="1210" 
d="M201 0v1450h882v-104h-768v-541h719v-103h-719v-598h795v-104h-909z" />
    <glyph glyph-name="F" unicode="F" horiz-adv-x="1148" 
d="M201 0v1450h860v-104h-744v-543h691v-103h-691v-700h-116z" />
    <glyph glyph-name="G" unicode="G" horiz-adv-x="1605" 
d="M883 -39q-219 0 -392.5 99.5t-269.5 274t-96 392.5q0 216 97.5 390.5t270.5 273t388 98.5q313 0 505 -189l-73 -79q-78 78 -190 120.5t-242 42.5q-189 0 -335 -90.5t-222 -239t-76 -327.5q0 -134 44.5 -253.5t124.5 -210.5t201.5 -144t266.5 -53q250 0 415 98v479h-348
v102h465v-647q-228 -137 -534 -137z" />
    <glyph glyph-name="H" unicode="H" horiz-adv-x="1478" 
d="M201 0v1450h116v-643h846v643h117v-1450h-117v698h-846v-698h-116z" />
    <glyph glyph-name="I" unicode="I" horiz-adv-x="516" 
d="M201 0v1450h116v-1450h-116z" />
    <glyph glyph-name="J" unicode="J" horiz-adv-x="999" 
d="M430 -37q-145 0 -246 76.5t-131 198.5l109 30q24 -89 92.5 -145.5t163.5 -56.5q76 0 131.5 28t86 78.5t44.5 111.5t14 136v1030h117v-1038q0 -68 -11 -129t-38.5 -120.5t-69.5 -103t-109.5 -70t-152.5 -26.5z" />
    <glyph glyph-name="K" unicode="K" horiz-adv-x="1247" 
d="M201 0v1450h116v-655l703 655h168l-733 -659l772 -791h-170l-740 774v-774h-116z" />
    <glyph glyph-name="L" unicode="L" horiz-adv-x="1036" 
d="M201 0v1450h116v-1346h689v-104h-805z" />
    <glyph glyph-name="M" unicode="M" horiz-adv-x="1826" 
d="M201 0v1450h180l534 -1255l531 1255h180v-1450h-117v1300h-4l-559 -1300h-65l-559 1300h-5v-1300h-116z" />
    <glyph glyph-name="N" unicode="N" horiz-adv-x="1572" 
d="M201 0v1450h147l903 -1282h4v1282h117v-1450h-147l-903 1290h-5v-1290h-116z" />
    <glyph glyph-name="O" unicode="O" horiz-adv-x="1755" 
d="M877 -39q-212 0 -384 98t-270 273t-98 393t98 393t270 273t384 98q160 0 299.5 -57.5t239 -158t157 -243t57.5 -305.5t-57.5 -305.5t-157 -243t-239 -158t-299.5 -57.5zM877 66q188 0 333.5 91t221 240t75.5 328q0 180 -76 329t-221.5 239.5t-332.5 90.5
q-140 0 -259 -52.5t-199.5 -142.5t-125.5 -210t-45 -254q0 -133 44.5 -253t125 -210t199.5 -143t260 -53z" />
    <glyph glyph-name="P" unicode="P" horiz-adv-x="1183" 
d="M201 0v1450h403q104 0 189 -22t150.5 -67t101.5 -119t36 -171q0 -186 -129 -285.5t-342 -99.5h-293v-686h-116zM317 784h287q166 0 263.5 73t97.5 214t-98.5 210t-264.5 69h-285v-566z" />
    <glyph glyph-name="Q" unicode="Q" horiz-adv-x="1751" 
d="M860 0q-206 0 -374 94t-264.5 264t-96.5 383t95 384t264 267.5t378 96.5q155 0 291.5 -57t234 -155.5t153.5 -237.5t56 -298q0 -208 -105 -379.5t-286 -252.5v-5h484v-104h-830zM862 102q137 0 254.5 53t195.5 141.5t121.5 204t43.5 240.5q0 129 -44 246t-123 205
t-195.5 140t-252.5 52q-138 0 -254.5 -51.5t-194.5 -139.5t-121.5 -205t-43.5 -247q0 -129 43.5 -245t121.5 -203.5t194.5 -139t254.5 -51.5z" />
    <glyph glyph-name="R" unicode="R" horiz-adv-x="1224" 
d="M201 0v1450h417q105 0 189 -19.5t152 -62t105.5 -118t37.5 -179.5q0 -84 -31 -152.5t-85 -113t-122.5 -71t-146.5 -32.5l428 -702h-141l-414 694h-273v-694h-116zM317 795h285q185 0 284 70.5t99 205.5q0 279 -385 279h-283v-555z" />
    <glyph glyph-name="S" unicode="S" horiz-adv-x="1159" 
d="M565 -39q-278 0 -438 209l82 72q151 -179 356 -179q65 0 125.5 20t110 57t79 95.5t29.5 129.5q0 68 -26 120t-70 85t-101 59t-120 47t-125.5 43.5t-119.5 53.5t-101 72t-70 105t-26 146q0 97 40 174t106.5 123.5t146.5 71t165 24.5q135 0 236.5 -47.5t161.5 -124.5
l-84 -76q-123 148 -320 148q-61 0 -119.5 -18.5t-107.5 -53t-79 -92t-30 -129.5q0 -67 26 -118.5t70 -83.5t101.5 -57.5t120.5 -46t126 -42t120.5 -52.5t101.5 -72t70 -105.5t26 -147.5q0 -101 -39.5 -181t-106 -129t-147.5 -74.5t-170 -25.5z" />
    <glyph glyph-name="T" unicode="T" horiz-adv-x="1148" 
d="M516 0v1346h-487v104h1091v-104h-487v-1346h-117z" />
    <glyph glyph-name="U" unicode="U" horiz-adv-x="1468" 
d="M733 -39q-123 0 -220 35.5t-156.5 92.5t-98.5 135t-54.5 156t-15.5 163v907h117v-893q0 -74 11.5 -140t42 -132t77.5 -113t123 -76.5t174 -29.5q97 0 173 29t123.5 75.5t78.5 112t43 132.5t12 142v893h117v-907q0 -85 -15.5 -163t-54.5 -156t-99 -135t-157 -92.5
t-221 -35.5z" />
    <glyph glyph-name="V" unicode="V" horiz-adv-x="1265" 
d="M565 0l-551 1450h127l490 -1305h4l489 1305h125l-553 -1450h-131z" />
    <glyph glyph-name="W" unicode="W" horiz-adv-x="1980" 
d="M467 0l-430 1450h123l377 -1296h4l377 1296h145l379 -1296h6l373 1296h123l-431 -1450h-141l-381 1294h-4l-379 -1294h-141z" />
    <glyph glyph-name="X" unicode="X" horiz-adv-x="1292" 
d="M49 0l526 762l-479 688h146l405 -598l402 598h137l-473 -686l530 -764h-145l-453 670l-450 -670h-146z" />
    <glyph glyph-name="Y" unicode="Y" horiz-adv-x="1193" 
d="M539 0v627l-531 823h146l446 -723l449 723h135l-529 -823v-627h-116z" />
    <glyph glyph-name="Z" unicode="Z" horiz-adv-x="1185" 
d="M78 0v102l878 1244h-856v104h998v-104l-877 -1242h893v-104h-1036z" />
    <glyph glyph-name="bracketleft" unicode="[" horiz-adv-x="614" 
d="M133 -319v1818h318v-90h-211v-1638h211v-90h-318z" />
    <glyph glyph-name="backslash" unicode="\" horiz-adv-x="757" 
d="M643 -35l-623 1491l95 33l622 -1493z" />
    <glyph glyph-name="bracketright" unicode="]" horiz-adv-x="614" 
d="M164 -319v90h211v1638h-211v90h317v-1818h-317z" />
    <glyph glyph-name="asciicircum" unicode="^" horiz-adv-x="1363" 
d="M174 543l467 907h82l467 -907h-103l-405 796l-406 -796h-102z" />
    <glyph glyph-name="underscore" unicode="_" horiz-adv-x="1024" 
d="M0 -250v84h1024v-84h-1024z" />
    <glyph glyph-name="grave" unicode="`" horiz-adv-x="491" 
d="M256 1155l-258 295h147l207 -295h-96z" />
    <glyph glyph-name="a" unicode="a" horiz-adv-x="1079" 
d="M446 -27q-58 0 -113.5 16.5t-104.5 49t-79 89.5t-30 130q0 66 22.5 118.5t65 86.5t94.5 57.5t121 35.5t133.5 17t142.5 5h97v43q0 133 -70 199.5t-201 66.5q-81 0 -155.5 -30.5t-128.5 -82.5l-62 74q61 60 155.5 95.5t201.5 35.5q165 0 265.5 -88.5t100.5 -257.5v-418
q0 -125 17 -215h-101q-16 98 -16 176h-4q-114 -203 -351 -203zM473 66q80 0 143 29.5t101.5 79t58 110t19.5 127.5v77h-72q-62 0 -113.5 -3t-111 -11t-104 -24t-82.5 -40t-58.5 -61.5t-20.5 -85.5q0 -54 21 -94t57 -61.5t76.5 -32t85.5 -10.5z" />
    <glyph glyph-name="b" unicode="b" horiz-adv-x="1298" 
d="M692 -27q-116 0 -220 56.5t-161 158.5h-6v-188h-110v1548h110v-788h6q60 105 162.5 162t218.5 57q217 0 352.5 -142.5t135.5 -359.5q0 -142 -60.5 -256.5t-172.5 -181t-255 -66.5zM682 70q175 0 278 116.5t103 290.5t-103.5 292t-277.5 118q-167 0 -278 -118.5
t-111 -291.5t110.5 -290t278.5 -117z" />
    <glyph glyph-name="c" unicode="c" horiz-adv-x="1011" 
d="M612 -27q-222 0 -356.5 141.5t-134.5 362.5q0 218 137.5 360t355.5 142q103 0 192 -38t148 -112l-73 -67q-42 55 -115 88t-150 33q-170 0 -275 -116t-105 -290q0 -173 104 -288t272 -115t279 114l70 -63q-133 -152 -349 -152z" />
    <glyph glyph-name="d" unicode="d" horiz-adv-x="1298" 
d="M606 -27q-143 0 -254.5 66.5t-172 181t-60.5 256.5q0 215 136 358.5t351 143.5q116 0 218.5 -57t162.5 -162h4v788h113v-1548h-113v188h-4q-60 -102 -163 -158.5t-218 -56.5zM616 70q168 0 278 117t110 290t-110.5 291.5t-277.5 118.5q-174 0 -277 -118t-103 -292
q0 -175 102.5 -291t277.5 -116z" />
    <glyph glyph-name="e" unicode="e" horiz-adv-x="1161" 
d="M602 -27q-209 0 -346 144t-137 362q0 215 136 357.5t337 142.5q109 0 196 -37.5t141.5 -102.5t83.5 -148.5t29 -178.5v-57h-809q3 -158 106.5 -271.5t266.5 -113.5q104 0 181.5 40t146.5 121l74 -59q-154 -199 -406 -199zM236 543h696q-6 154 -97 249t-245 95
q-77 0 -144 -31.5t-111 -81.5t-70 -110.5t-29 -120.5z" />
    <glyph glyph-name="f" unicode="f" horiz-adv-x="595" 
d="M231 0v860h-198v94h198v285q0 163 79.5 248.5t221.5 85.5q66 0 109 -14l-18 -93q-42 11 -93 11q-54 0 -92 -19.5t-57.5 -55.5t-28 -78t-8.5 -97v-273h234v-94h-234v-860h-113z" />
    <glyph glyph-name="g" unicode="g" horiz-adv-x="1290" 
d="M600 -498q-131 0 -248 50t-200 139l71 76q73 -77 173 -121.5t208 -44.5q85 0 152 22.5t110.5 61t72 93t40.5 115t12 130.5v186h-4q-54 -102 -159 -159.5t-222 -57.5q-216 0 -351.5 138t-135.5 351q0 138 60.5 251t172.5 180t254 67q117 0 220.5 -57.5t160.5 -161.5h4v194
h113v-931q0 -77 -13.5 -146.5t-49 -139.5t-90.5 -120.5t-145 -82.5t-206 -32zM616 86q168 0 278 113.5t110 285.5q0 164 -111 283t-277 119q-116 0 -204 -56t-132 -146.5t-44 -199.5q0 -168 103 -283.5t277 -115.5z" />
    <glyph glyph-name="h" unicode="h" horiz-adv-x="1185" 
d="M195 0v1548h110v-780h4q46 102 136.5 156.5t199.5 54.5q179 0 269 -109t90 -288v-582h-111v541q0 344 -272 344q-63 0 -119 -25.5t-100.5 -74t-70.5 -126t-26 -174.5v-485h-110z" />
    <glyph glyph-name="i" unicode="i" horiz-adv-x="497" 
d="M248 1249q-32 0 -57 24t-25 60t25 60t57 24q33 0 58.5 -24t25.5 -60t-25.5 -60t-58.5 -24zM193 0v954h112v-954h-112z" />
    <glyph glyph-name="j" unicode="j" horiz-adv-x="499" 
d="M250 1249q-32 0 -57 24t-25 60t25 60t57 24q33 0 58.5 -24t25.5 -60q0 -35 -26 -59.5t-58 -24.5zM47 -492q-58 0 -96 13l16 92q42 -10 78 -10q39 0 66.5 11.5t43.5 30t25.5 48.5t12 59t2.5 70v1132h110v-1147q0 -67 -11.5 -117.5t-39.5 -93.5t-80 -65.5t-127 -22.5z" />
    <glyph glyph-name="k" unicode="k" horiz-adv-x="1005" 
d="M195 0v1548h110v-1028h6l455 434h160l-488 -438l539 -516h-164l-502 502h-6v-502h-110z" />
    <glyph glyph-name="l" unicode="l" horiz-adv-x="499" 
d="M195 0v1548h110v-1548h-110z" />
    <glyph glyph-name="m" unicode="m" horiz-adv-x="1812" 
d="M193 0v735q0 124 -9 219h107q8 -106 8 -190h4q41 97 130.5 156t191.5 59q230 0 305 -227h4q46 109 135 168t207 59q177 0 265.5 -109.5t88.5 -287.5v-582h-110v541q0 74 -14 134t-43.5 109t-81 76t-121.5 27q-96 0 -164.5 -54t-100.5 -140.5t-32 -194.5v-498h-113v561
q0 71 -11 126t-37 102t-75.5 72.5t-120.5 25.5q-123 0 -212 -106.5t-89 -295.5v-485h-112z" />
    <glyph glyph-name="n" unicode="n" horiz-adv-x="1183" 
d="M193 0v735q0 124 -9 219h107q8 -106 8 -190h4q41 97 137 156t205 59q179 0 267.5 -109t88.5 -288v-582h-110v541q0 344 -270 344q-133 0 -224.5 -105t-91.5 -295v-485h-112z" />
    <glyph glyph-name="o" unicode="o" horiz-adv-x="1247" 
d="M623 -27q-220 0 -361 143t-141 361q0 219 140.5 360.5t361.5 141.5q222 0 362.5 -141.5t140.5 -360.5q0 -218 -141 -361t-362 -143zM623 74q176 0 282.5 114.5t106.5 288.5t-106.5 290t-282.5 116q-175 0 -281 -116t-106 -290t106 -288.5t281 -114.5z" />
    <glyph glyph-name="p" unicode="p" horiz-adv-x="1294" 
d="M193 -492v1446h110v-190h6q59 106 160 160.5t219 54.5q217 0 353.5 -143t136.5 -359q0 -142 -59.5 -256.5t-171.5 -181t-255 -66.5q-118 0 -222.5 54t-160.5 157h-6v-676h-110zM678 70q175 0 278 116.5t103 290.5t-103.5 292t-277.5 118q-166 0 -275.5 -118.5
t-109.5 -291.5t109.5 -290t275.5 -117z" />
    <glyph glyph-name="q" unicode="q" horiz-adv-x="1294" 
d="M991 -492v680h-6q-56 -100 -160 -157.5t-219 -57.5q-143 0 -254.5 66.5t-172 181t-60.5 256.5q0 217 135 359.5t352 142.5q116 0 218 -57t161 -162h6v194h113v-1446h-113zM616 70q166 0 275.5 117t109.5 290t-109.5 291.5t-275.5 118.5q-174 0 -277 -118t-103 -292
q0 -175 102.5 -291t277.5 -116z" />
    <glyph glyph-name="r" unicode="r" horiz-adv-x="710" 
d="M193 0v735q0 124 -9 219h107q8 -106 8 -190h4q39 101 124 158t189 57q51 0 76 -8l-12 -103q-32 9 -78 9q-133 0 -215 -104.5t-82 -283.5v-489h-112z" />
    <glyph glyph-name="s" unicode="s" horiz-adv-x="890" 
d="M449 -25q-111 0 -207 45.5t-156 133.5l88 63q42 -66 115.5 -106.5t159.5 -40.5q99 0 167 46.5t68 139.5q0 21 -5.5 39t-12 32t-22.5 27.5t-26.5 22t-35 18.5t-36.5 15t-42.5 13.5t-42 11.5t-45.5 11q-50 12 -85 24t-76 33.5t-66.5 48t-42.5 68t-17 93.5q0 88 48 150
t119.5 89t158.5 27q105 0 190.5 -42.5t130.5 -119.5l-86 -61q-36 61 -98.5 96t-140.5 35q-86 0 -150.5 -42t-64.5 -124q0 -78 55 -115.5t184 -66.5q161 -36 240.5 -99.5t79.5 -175.5q0 -73 -29 -130t-79 -91t-110.5 -51t-127.5 -17z" />
    <glyph glyph-name="t" unicode="t" horiz-adv-x="641" 
d="M453 -16q-47 0 -86.5 12.5t-74 39.5t-54 76.5t-19.5 116.5v631h-201v94h199v273h113v-273h272v-94h-272v-604q0 -97 39 -136.5t112 -39.5q60 0 117 26l6 -96q-73 -26 -151 -26z" />
    <glyph glyph-name="u" unicode="u" horiz-adv-x="1183" 
d="M539 -27q-179 0 -269 109.5t-90 288.5v583h113v-540q0 -346 270 -346q63 0 119 26t100.5 74.5t70.5 126t26 174.5v485h110v-735q0 -117 10 -219h-108q-8 102 -8 188h-4q-39 -96 -135 -155.5t-205 -59.5z" />
    <glyph glyph-name="v" unicode="v" horiz-adv-x="966" 
d="M422 0l-385 954h125l323 -837h4l320 837h119l-379 -954h-127z" />
    <glyph glyph-name="w" unicode="w" horiz-adv-x="1499" 
d="M352 0l-295 954h119l240 -815h4l272 815h113l276 -815h4l238 815h117l-295 -954h-125l-270 811h-5l-268 -811h-125z" />
    <glyph glyph-name="x" unicode="x" horiz-adv-x="970" 
d="M41 0l375 496l-346 458h143l272 -381l273 381h135l-342 -454l381 -500h-146l-303 420l-309 -420h-133z" />
    <glyph glyph-name="y" unicode="y" horiz-adv-x="962" 
d="M172 -494q-47 0 -113 15l15 100q43 -16 94 -16q69 0 111 44.5t75 129.5l82 215l-399 960h125l336 -843l307 843h121l-475 -1220q-45 -113 -109 -170.5t-170 -57.5z" />
    <glyph glyph-name="z" unicode="z" horiz-adv-x="903" 
d="M74 0v82l588 778h-558v94h701v-84l-586 -774h608v-96h-753z" />
    <glyph glyph-name="braceleft" unicode="{" horiz-adv-x="614" 
d="M381 -319q-99 0 -160 60.5t-61 195.5v374q0 230 -160 230v98q160 0 160 229v375q0 135 61 195.5t160 60.5h119v-90h-99q-133 0 -133 -182v-377q0 -67 -17.5 -118.5t-45.5 -79.5t-54 -42.5t-51 -17.5v-4q25 -3 51 -17.5t54 -42.5t45.5 -79.5t17.5 -118.5v-377
q0 -182 133 -182h99v-90h-119z" />
    <glyph glyph-name="bar" unicode="|" horiz-adv-x="454" 
d="M178 -512v2048h98v-2048h-98z" />
    <glyph glyph-name="braceright" unicode="}" horiz-adv-x="614" 
d="M115 -319v90h98q133 0 133 182v377q0 67 17.5 118.5t45.5 79.5t54 42.5t51 17.5v4q-25 3 -51 17.5t-54 42.5t-45.5 79.5t-17.5 118.5v377q0 182 -133 182h-98v90h118q99 0 160.5 -60.5t61.5 -195.5v-375q0 -229 159 -229v-98q-159 0 -159 -230v-374q0 -135 -61.5 -195.5
t-160.5 -60.5h-118z" />
    <glyph glyph-name="asciitilde" unicode="~" horiz-adv-x="1363" 
d="M905 492q-63 0 -110.5 14.5t-110.5 56.5q-79 50 -123 69t-96 19q-126 0 -209 -155l-72 65q60 89 126.5 140t150.5 51q110 0 219 -72q136 -90 221 -90q115 0 209 158l70 -68q-117 -188 -275 -188z" />
    <glyph glyph-name="uni00A0" unicode="&#xa0;" horiz-adv-x="512" 
 />
    <glyph glyph-name="exclamdown" unicode="&#xa1;" horiz-adv-x="638" 
d="M319 811q-39 0 -65.5 27.5t-26.5 66.5q0 37 26.5 64.5t65.5 27.5t66 -27.5t27 -64.5q0 -39 -27 -66.5t-66 -27.5zM262 -465v1055h117v-1055h-117z" />
    <glyph glyph-name="cent" unicode="&#xa2;" horiz-adv-x="1175" 
d="M606 -147v124q-195 20 -310.5 158t-115.5 342q0 200 117.5 338t308.5 160v131h90v-127q205 -10 318 -150l-74 -67q-40 51 -106.5 83.5t-137.5 37.5v-809q152 9 254 114l70 -63q-124 -143 -324 -152v-120h-90zM606 78v799q-143 -24 -227 -135t-84 -265q0 -155 85 -265.5
t226 -133.5z" />
    <glyph glyph-name="sterling" unicode="&#xa3;" horiz-adv-x="1175" 
d="M154 0v98h213v602h-197v99h197v217q0 96 23 178t70.5 149t129.5 105.5t192 38.5q178 0 291 -113l-72 -82q-87 94 -223 94q-69 0 -122.5 -24t-85.5 -61.5t-52 -89.5t-27.5 -101.5t-7.5 -103.5v-207h346v-99h-346v-602h535v-98h-864z" />
    <glyph glyph-name="currency" unicode="&#xa4;" horiz-adv-x="1724" 
d="M338 31l-70 71l197 197q-113 131 -113 334q0 192 105 325l-189 189l72 72l188 -189q142 119 336 119q196 0 332 -117l186 187l74 -72l-184 -184q108 -137 108 -330q0 -200 -116 -338l192 -193l-72 -71l-194 192q-137 -108 -326 -108q-191 0 -327 112zM864 223
q177 0 286.5 118.5t109.5 291.5t-109 289t-287 116t-286.5 -116t-108.5 -289t109 -291.5t286 -118.5z" />
    <glyph glyph-name="yen" unicode="&#xa5;" horiz-adv-x="1175" 
d="M532 0v367h-354v90h354v231h-354v88h320l-467 674h143l418 -633l414 633h139l-463 -674h315v-88h-354v-231h354v-90h-354v-367h-111z" />
    <glyph glyph-name="brokenbar" unicode="&#xa6;" horiz-adv-x="454" 
d="M180 678v704h96v-704h-96zM180 -356v704h96v-704h-96z" />
    <glyph glyph-name="section" unicode="&#xa7;" horiz-adv-x="1175" 
d="M557 -272q-131 0 -232.5 52t-152.5 154l104 56q38 -82 114 -123t169 -41q47 0 90.5 11.5t82 35.5t62 68t23.5 102q0 79 -50 129.5t-140 89.5l-205 98q-109 48 -164 110.5t-55 172.5q0 103 65.5 175t163.5 100q-37 19 -63 38t-54 48.5t-42.5 72t-14.5 94.5q0 101 52 175
t134 108.5t181 34.5q120 0 205 -48t122 -126l-94 -53q-27 56 -88 92.5t-149 36.5q-107 0 -176.5 -55.5t-69.5 -153.5q0 -49 17 -86.5t53 -65.5t67 -44t84 -38l143 -67q115 -54 176.5 -121t61.5 -174q0 -105 -60 -176.5t-151 -96.5q168 -90 168 -260q0 -157 -108.5 -241
t-268.5 -84zM672 367q77 12 133.5 64.5t56.5 139.5q0 48 -16 85t-50.5 64.5t-67.5 45.5t-87 41l-113 47q-37 -4 -72 -17.5t-67.5 -37.5t-52 -63.5t-19.5 -88.5q0 -37 12 -67t30 -51t51.5 -41.5t63 -34.5t77.5 -33z" />
    <glyph glyph-name="dieresis" unicode="&#xa8;" horiz-adv-x="491" 
d="M61 1243q-37 0 -62.5 27t-25.5 63q0 35 25.5 61.5t62.5 26.5q36 0 61 -26.5t25 -61.5q0 -36 -25 -63t-61 -27zM430 1243q-36 0 -61 27t-25 63q0 35 25 61.5t61 26.5q37 0 62.5 -26.5t25.5 -61.5q0 -36 -25.5 -63t-62.5 -27z" />
    <glyph glyph-name="copyright" unicode="&#xa9;" horiz-adv-x="1638" 
d="M821 -45q-159 0 -303 60.5t-248.5 162.5t-166.5 244.5t-62 300.5t62 301.5t166.5 246.5t248.5 163.5t303 60.5q158 0 301.5 -60.5t247.5 -163.5t165.5 -246.5t61.5 -301.5t-61.5 -300.5t-165.5 -244.5t-247.5 -162.5t-301.5 -60.5zM821 49q137 0 262.5 53.5t216 143.5
t144 215t53.5 262q0 138 -53.5 263.5t-144 216.5t-216 144.5t-262.5 53.5q-138 0 -264 -53.5t-217 -144.5t-145 -216.5t-54 -263.5q0 -137 54 -262t145 -215t217 -143.5t264 -53.5zM844 268q-197 0 -327 131t-130 332q0 199 130 330t327 131q94 0 180 -40.5t137 -109.5
l-86 -65q-36 49 -99 83t-130 34q-154 0 -250 -106.5t-96 -256.5q0 -152 94.5 -258t249.5 -106q152 0 246 122l84 -57q-53 -74 -140 -119t-190 -45z" />
    <glyph glyph-name="ordfeminine" unicode="&#xaa;" horiz-adv-x="731" 
d="M299 868q-38 0 -73 9.5t-67 29t-51.5 55t-19.5 82.5q0 43 16.5 75.5t48.5 53.5t69 34.5t89.5 20t98 9t104.5 2.5v18q0 69 -43 105.5t-117 36.5q-110 0 -180 -70l-53 62q91 84 239 84q118 0 181 -60.5t63 -161.5v-252q0 -77 8 -118h-86q-10 45 -10 98h-4
q-67 -113 -213 -113zM322 944q88 0 140 53.5t52 135.5v38h-31q-63 0 -108.5 -4t-93 -16t-72.5 -38t-25 -66q0 -54 40 -78.5t98 -24.5z" />
    <glyph glyph-name="guillemotleft" unicode="&#xab;" horiz-adv-x="987" 
d="M401 70l-276 419l274 420l78 -53l-233 -367l235 -366zM764 70l-277 419l275 420l78 -53l-234 -367l236 -366z" />
    <glyph glyph-name="logicalnot" unicode="&#xac;" horiz-adv-x="1363" 
d="M1096 268v465h-926v96h1026v-561h-100z" />
    <glyph glyph-name="uni00AD" unicode="&#xad;" horiz-adv-x="643" 
d="M106 457v94h431v-94h-431z" />
    <glyph glyph-name="registered" unicode="&#xae;" horiz-adv-x="1228" 
d="M614 549q-194 0 -330.5 134t-136.5 327t136.5 329t330.5 136t330.5 -136t136.5 -329t-136.5 -327t-330.5 -134zM614 608q165 0 283.5 118.5t118.5 283.5q0 166 -118 283.5t-284 117.5t-283.5 -117.5t-117.5 -283.5q0 -165 118 -283.5t283 -118.5zM440 752v522h181
q82 0 134 -37.5t52 -114.5q0 -58 -34.5 -94t-90.5 -45l145 -231h-96l-131 221h-82v-221h-78zM518 1036h84q127 0 127 88q0 45 -32.5 63.5t-78.5 18.5h-100v-170z" />
    <glyph glyph-name="macron" unicode="&#xaf;" horiz-adv-x="491" 
d="M-18 1241v90h528v-90h-528z" />
    <glyph glyph-name="degree" unicode="&#xb0;" horiz-adv-x="819" 
d="M410 866q-129 0 -216.5 87t-87.5 216t87.5 216.5t216.5 87.5t216 -87.5t87 -216.5t-87 -216t-216 -87zM410 948q92 0 156.5 64.5t64.5 156.5t-64.5 157t-156.5 65t-157 -65t-65 -157t65 -156.5t157 -64.5z" />
    <glyph glyph-name="plusminus" unicode="&#xb1;" horiz-adv-x="1363" 
d="M631 373v336h-461v98h461v344h98v-344h467v-98h-465v-336h-100zM172 98v99h1020v-99h-1020z" />
    <glyph glyph-name="uni00B2" unicode="&#xb2;" horiz-adv-x="745" 
d="M92 926v94l334 346q103 106 106 205q0 67 -42.5 106t-110.5 39q-62 0 -107.5 -38t-62.5 -107l-96 16q20 100 94 159.5t172 59.5q113 0 185.5 -62.5t72.5 -168.5q0 -80 -36.5 -139t-117.5 -142l-270 -278h428v-90h-549z" />
    <glyph glyph-name="uni00B3" unicode="&#xb3;" horiz-adv-x="745" 
d="M356 909q-96 0 -167 46t-109 135l92 32q24 -60 74 -92.5t110 -32.5q78 0 128.5 45.5t50.5 124.5q0 83 -62 124.5t-149 41.5h-50v84h50q85 0 135.5 42t50.5 118q0 64 -45.5 103.5t-110.5 39.5q-47 0 -90 -26t-69 -72l-80 43q84 141 243 141q111 0 179.5 -60t68.5 -169
q0 -68 -36.5 -118.5t-100.5 -74.5v-4q77 -22 120.5 -77.5t43.5 -137.5q0 -121 -79.5 -188.5t-197.5 -67.5z" />
    <glyph glyph-name="acute" unicode="&#xb4;" horiz-adv-x="491" 
d="M139 1155l207 295h148l-258 -295h-97z" />
    <glyph glyph-name="uni00B5" unicode="&#xb5;" horiz-adv-x="1232" 
d="M193 -492v1446h106v-540q0 -170 61 -256t211 -86q143 0 235.5 112.5t92.5 319.5v450h109v-766q0 -65 15 -90.5t54 -25.5q33 0 70 16l12 -86q-36 -20 -96 -20q-81 0 -122.5 39.5t-41.5 142.5v18h-4q-47 -93 -140 -151t-208 -58q-160 0 -248 95v-560h-106z" />
    <glyph glyph-name="paragraph" unicode="&#xb6;" horiz-adv-x="1228" 
d="M547 -258v920q-189 0 -310.5 108.5t-121.5 267.5q0 195 124 303.5t341 108.5h456v-1708h-108v1620h-273v-1620h-108z" />
    <glyph glyph-name="periodcentered" unicode="&#xb7;" horiz-adv-x="520" 
d="M260 514q-39 0 -65.5 27.5t-26.5 64.5q0 38 26.5 66t65.5 28t65.5 -28t26.5 -66q0 -37 -26.5 -64.5t-65.5 -27.5z" />
    <glyph glyph-name="cedilla" unicode="&#xb8;" horiz-adv-x="491" 
d="M221 -469q-103 0 -190 41l26 63q65 -32 156 -32q52 0 99.5 24t47.5 76q0 45 -33.5 66.5t-88.5 21.5q-57 0 -105 -20l-31 26l131 203h74l-102 -160q31 10 82 10q68 0 120 -37.5t52 -107.5q0 -48 -22.5 -83.5t-59 -54.5t-75.5 -27.5t-81 -8.5z" />
    <glyph glyph-name="uni00B9" unicode="&#xb9;" horiz-adv-x="745" 
d="M348 926v739l-149 -121l-62 70l228 174h86v-862h-103z" />
    <glyph glyph-name="ordmasculine" unicode="&#xba;" horiz-adv-x="731" 
d="M367 868q-134 0 -221 85.5t-87 217.5q0 133 87 218.5t221 85.5q132 0 218.5 -85.5t86.5 -218.5q0 -132 -86.5 -217.5t-218.5 -85.5zM367 944q97 0 152.5 65.5t55.5 161.5q0 97 -55.5 162.5t-152.5 65.5q-99 0 -155 -65.5t-56 -162.5q0 -96 56 -161.5t155 -65.5z" />
    <glyph glyph-name="guillemotright" unicode="&#xbb;" horiz-adv-x="987" 
d="M225 70l-78 53l234 366l-236 367l78 55l277 -422zM588 70l-78 53l233 366l-235 367l78 55l276 -422z" />
    <glyph glyph-name="onequarter" unicode="&#xbc;" horiz-adv-x="1695" 
d="M418 -61l-86 45l917 1527l84 -45zM350 588v739l-149 -121l-64 70l230 174h84v-862h-101zM1360 2v207h-389v88l362 569h117v-569h127v-88h-127v-207h-90zM1073 297h287v438h-6z" />
    <glyph glyph-name="onehalf" unicode="&#xbd;" horiz-adv-x="1695" 
d="M418 -61l-86 45l917 1527l84 -45zM350 588v739l-149 -121l-64 70l230 174h84v-862h-101zM1024 0v94l334 346q54 56 80 103.5t26 101.5q0 66 -43 106t-110 40q-62 0 -107.5 -39t-62.5 -109l-97 16q20 100 94.5 161t172.5 61q113 0 185.5 -63t72.5 -171q0 -78 -36 -136.5
t-118 -143.5l-270 -279h428v-88h-549z" />
    <glyph glyph-name="threequarters" unicode="&#xbe;" horiz-adv-x="1695" 
d="M418 -61l-86 45l917 1527l84 -45zM354 578q-199 0 -276 182l92 31q24 -60 73.5 -91.5t110.5 -31.5q77 0 127.5 44t50.5 124q0 82 -61 123.5t-149 41.5h-50v84h50q85 0 135.5 42t50.5 118q0 64 -45.5 104t-110.5 40q-47 0 -90 -26.5t-69 -72.5l-80 45q85 140 243 140
q109 0 179.5 -60.5t70.5 -167.5q0 -70 -38 -122t-101 -74v-2q77 -21 121.5 -77t44.5 -138q0 -120 -80 -188t-199 -68zM1360 2v207h-389v88l362 569h117v-569h127v-88h-127v-207h-90zM1073 297h287v438h-6z" />
    <glyph glyph-name="questiondown" unicode="&#xbf;" horiz-adv-x="980" 
d="M487 811q-38 0 -64 27.5t-26 66.5q0 38 25.5 65t64.5 27t66 -27.5t27 -64.5q0 -39 -27 -66.5t-66 -27.5zM485 -494q-168 0 -278.5 95.5t-110.5 261.5q0 51 10.5 95t25 74t43 63t49 52t59.5 52q66 55 97.5 92t46.5 84t15 119v94h115v-119q0 -97 -40 -166t-118 -137
l-61 -53q-61 -52 -93 -107.5t-32 -136.5q0 -121 78 -190.5t198 -69.5q116 0 192.5 70.5t94.5 185.5l111 -19q-29 -159 -137.5 -249.5t-264.5 -90.5z" />
    <glyph glyph-name="Agrave" unicode="&#xc0;" horiz-adv-x="1413" 
d="M670 1565l-258 295h147l207 -295h-96zM25 0l628 1450h117l616 -1450h-129l-163 391h-777l-163 -391h-129zM360 498h691l-342 829z" />
    <glyph glyph-name="Aacute" unicode="&#xc1;" horiz-adv-x="1413" 
d="M657 1565l207 295h148l-258 -295h-97zM25 0l628 1450h117l616 -1450h-129l-163 391h-777l-163 -391h-129zM360 498h691l-342 829z" />
    <glyph glyph-name="Acircumflex" unicode="&#xc2;" horiz-adv-x="1413" 
d="M422 1565l219 295h131l219 -295h-108l-176 235l-177 -235h-108zM25 0l628 1450h117l616 -1450h-129l-163 391h-777l-163 -391h-129zM360 498h691l-342 829z" />
    <glyph glyph-name="Atilde" unicode="&#xc3;" horiz-adv-x="1413" 
d="M412 1599q13 86 53.5 139.5t112.5 53.5q49 0 145 -49q89 -47 131 -47q74 0 96 100h72q-13 -84 -54.5 -136t-113.5 -52q-60 0 -143 47q-80 47 -133 47q-73 0 -95 -103h-71zM25 0l628 1450h117l616 -1450h-129l-163 391h-777l-163 -391h-129zM360 498h691l-342 829z" />
    <glyph glyph-name="Adieresis" unicode="&#xc4;" horiz-adv-x="1413" 
d="M526 1653q-37 0 -62.5 27t-25.5 63q0 35 25.5 61.5t62.5 26.5q36 0 61 -26.5t25 -61.5q0 -36 -25 -63t-61 -27zM895 1653q-36 0 -61 27t-25 63q0 35 25 61.5t61 26.5q37 0 62.5 -26.5t25.5 -61.5q0 -36 -25.5 -63t-62.5 -27zM25 0l628 1450h117l616 -1450h-129l-163 391
h-777l-163 -391h-129zM360 498h691l-342 829z" />
    <glyph glyph-name="Aring" unicode="&#xc5;" horiz-adv-x="1413" 
d="M709 1546q-81 0 -139 56.5t-58 138.5t58 138t139 56t138.5 -56t57.5 -138t-58 -138.5t-138 -56.5zM709 1608q55 0 94 39t39 94t-39 94t-94 39q-56 0 -95 -39t-39 -94t39 -94t95 -39zM25 0l628 1450h117l616 -1450h-129l-163 391h-777l-163 -391h-129zM360 498h691
l-342 829z" />
    <glyph glyph-name="AE" unicode="&#xc6;" horiz-adv-x="2013" 
d="M37 0l942 1450h895v-104h-711v-541h662v-103h-662v-598h740v-104h-856v410h-611l-266 -410h-133zM498 514h549v832h-13z" />
    <glyph glyph-name="Ccedilla" unicode="&#xc7;" horiz-adv-x="1476" 
d="M817 -469q-103 0 -190 41l26 63q65 -32 156 -32q52 0 99.5 24t47.5 76q0 45 -33.5 66.5t-88.5 21.5q-57 0 -105 -20l-31 26l107 166q-198 15 -353 116.5t-241 269.5t-86 376q0 163 56.5 305.5t155.5 243t238 158t299 57.5q159 0 290.5 -55t209.5 -156l-84 -78
q-65 82 -175 133t-238 51q-188 0 -333 -90.5t-220.5 -239.5t-75.5 -329q0 -133 44.5 -253t124.5 -210t199.5 -143t260.5 -53q135 0 242.5 48.5t201.5 164.5l80 -64q-192 -251 -522 -254l-78 -121q31 10 82 10q68 0 120 -37.5t52 -107.5q0 -48 -22.5 -83.5t-59 -54.5
t-75.5 -27.5t-81 -8.5z" />
    <glyph glyph-name="Egrave" unicode="&#xc8;" horiz-adv-x="1210" 
d="M649 1565l-258 295h148l206 -295h-96zM201 0v1450h882v-104h-768v-541h719v-103h-719v-598h795v-104h-909z" />
    <glyph glyph-name="Eacute" unicode="&#xc9;" horiz-adv-x="1210" 
d="M557 1565l207 295h147l-258 -295h-96zM201 0v1450h882v-104h-768v-541h719v-103h-719v-598h795v-104h-909z" />
    <glyph glyph-name="Ecircumflex" unicode="&#xca;" horiz-adv-x="1210" 
d="M360 1565l220 295h131l219 -295h-109l-176 235l-176 -235h-109zM201 0v1450h882v-104h-768v-541h719v-103h-719v-598h795v-104h-909z" />
    <glyph glyph-name="Edieresis" unicode="&#xcb;" horiz-adv-x="1210" 
d="M463 1653q-37 0 -62.5 27t-25.5 63q0 35 25.5 61.5t62.5 26.5q36 0 61 -26.5t25 -61.5q0 -36 -25 -63t-61 -27zM831 1653q-36 0 -61 27t-25 63q0 35 25 61.5t61 26.5q37 0 63 -26.5t26 -61.5q0 -36 -26 -63t-63 -27zM201 0v1450h882v-104h-768v-541h719v-103h-719v-598
h795v-104h-909z" />
    <glyph glyph-name="Igrave" unicode="&#xcc;" horiz-adv-x="516" 
d="M219 1565l-258 295h148l206 -295h-96zM201 0v1450h116v-1450h-116z" />
    <glyph glyph-name="Iacute" unicode="&#xcd;" horiz-adv-x="516" 
d="M199 1565l207 295h147l-258 -295h-96zM201 0v1450h116v-1450h-116z" />
    <glyph glyph-name="Icircumflex" unicode="&#xce;" horiz-adv-x="516" 
d="M-29 1565l219 295h132l219 -295h-109l-176 235l-176 -235h-109zM201 0v1450h116v-1450h-116z" />
    <glyph glyph-name="Idieresis" unicode="&#xcf;" horiz-adv-x="516" 
d="M74 1653q-37 0 -62.5 27t-25.5 63q0 35 25.5 61.5t62.5 26.5q36 0 61 -26.5t25 -61.5q0 -36 -25 -63t-61 -27zM442 1653q-36 0 -61 27t-25 63q0 35 25 61.5t61 26.5q37 0 62.5 -26.5t25.5 -61.5q0 -36 -25.5 -63t-62.5 -27zM201 0v1450h116v-1450h-116z" />
    <glyph glyph-name="Eth" unicode="&#xd0;" horiz-adv-x="1558" 
d="M188 0v717h-153v90h153v643h461q118 0 229.5 -28t210.5 -87t172.5 -143t116.5 -204.5t43 -262.5t-43 -262.5t-116.5 -204.5t-172.5 -143t-210.5 -87t-229.5 -28h-461zM305 106h307q161 0 291 47t215.5 130.5t131.5 196.5t46 245q0 133 -46 246t-131.5 196t-215.5 129.5
t-291 46.5h-307v-536h535v-90h-535v-611z" />
    <glyph glyph-name="Ntilde" unicode="&#xd1;" horiz-adv-x="1572" 
d="M496 1599q13 86 53.5 139.5t112.5 53.5q49 0 145 -49q89 -47 131 -47q74 0 96 100h72q-13 -84 -54.5 -136t-113.5 -52q-60 0 -143 47q-80 47 -133 47q-73 0 -95 -103h-71zM201 0v1450h147l903 -1282h4v1282h117v-1450h-147l-903 1290h-5v-1290h-116z" />
    <glyph glyph-name="Ograve" unicode="&#xd2;" horiz-adv-x="1755" 
d="M907 1565l-258 295h148l207 -295h-97zM877 -39q-212 0 -384 98t-270 273t-98 393t98 393t270 273t384 98q160 0 299.5 -57.5t239 -158t157 -243t57.5 -305.5t-57.5 -305.5t-157 -243t-239 -158t-299.5 -57.5zM877 66q188 0 333.5 91t221 240t75.5 328q0 180 -76 329
t-221.5 239.5t-332.5 90.5q-140 0 -259 -52.5t-199.5 -142.5t-125.5 -210t-45 -254q0 -133 44.5 -253t125 -210t199.5 -143t260 -53z" />
    <glyph glyph-name="Oacute" unicode="&#xd3;" horiz-adv-x="1755" 
d="M778 1565l207 295h148l-259 -295h-96zM877 -39q-212 0 -384 98t-270 273t-98 393t98 393t270 273t384 98q160 0 299.5 -57.5t239 -158t157 -243t57.5 -305.5t-57.5 -305.5t-157 -243t-239 -158t-299.5 -57.5zM877 66q188 0 333.5 91t221 240t75.5 328q0 180 -76 329
t-221.5 239.5t-332.5 90.5q-140 0 -259 -52.5t-199.5 -142.5t-125.5 -210t-45 -254q0 -133 44.5 -253t125 -210t199.5 -143t260 -53z" />
    <glyph glyph-name="Ocircumflex" unicode="&#xd4;" horiz-adv-x="1755" 
d="M592 1565l219 295h131l219 -295h-108l-176 235l-177 -235h-108zM877 -39q-212 0 -384 98t-270 273t-98 393t98 393t270 273t384 98q160 0 299.5 -57.5t239 -158t157 -243t57.5 -305.5t-57.5 -305.5t-157 -243t-239 -158t-299.5 -57.5zM877 66q188 0 333.5 91t221 240
t75.5 328q0 180 -76 329t-221.5 239.5t-332.5 90.5q-140 0 -259 -52.5t-199.5 -142.5t-125.5 -210t-45 -254q0 -133 44.5 -253t125 -210t199.5 -143t260 -53z" />
    <glyph glyph-name="Otilde" unicode="&#xd5;" horiz-adv-x="1755" 
d="M586 1599q13 86 53.5 139.5t112.5 53.5q49 0 145 -49q89 -47 131 -47q74 0 96 100h72q-13 -84 -54.5 -136t-113.5 -52q-60 0 -143 47q-80 47 -133 47q-73 0 -95 -103h-71zM877 -39q-212 0 -384 98t-270 273t-98 393t98 393t270 273t384 98q160 0 299.5 -57.5t239 -158
t157 -243t57.5 -305.5t-57.5 -305.5t-157 -243t-239 -158t-299.5 -57.5zM877 66q188 0 333.5 91t221 240t75.5 328q0 180 -76 329t-221.5 239.5t-332.5 90.5q-140 0 -259 -52.5t-199.5 -142.5t-125.5 -210t-45 -254q0 -133 44.5 -253t125 -210t199.5 -143t260 -53z" />
    <glyph glyph-name="Odieresis" unicode="&#xd6;" horiz-adv-x="1755" 
d="M694 1653q-37 0 -62.5 27t-25.5 63q0 35 25.5 61.5t62.5 26.5q36 0 61 -26.5t25 -61.5q0 -36 -25 -63t-61 -27zM1063 1653q-36 0 -61 27t-25 63q0 35 25 61.5t61 26.5q37 0 62.5 -26.5t25.5 -61.5q0 -36 -25.5 -63t-62.5 -27zM877 -39q-212 0 -384 98t-270 273t-98 393
t98 393t270 273t384 98q160 0 299.5 -57.5t239 -158t157 -243t57.5 -305.5t-57.5 -305.5t-157 -243t-239 -158t-299.5 -57.5zM877 66q188 0 333.5 91t221 240t75.5 328q0 180 -76 329t-221.5 239.5t-332.5 90.5q-140 0 -259 -52.5t-199.5 -142.5t-125.5 -210t-45 -254
q0 -133 44.5 -253t125 -210t199.5 -143t260 -53z" />
    <glyph glyph-name="multiply" unicode="&#xd7;" horiz-adv-x="1363" 
d="M344 215l-68 70l338 338l-338 340l68 69l338 -338l338 338l70 -69l-338 -340l338 -338l-70 -70l-338 338z" />
    <glyph glyph-name="Oslash" unicode="&#xd8;" horiz-adv-x="1755" 
d="M868 -39q-281 0 -485 170l-152 -164l-61 58l149 165q-97 101 -149.5 238.5t-52.5 296.5q0 109 26 210t73 185t115.5 153t151 116.5t181 73.5t204.5 26q280 0 482 -166l151 164l62 -55l-150 -166q100 -103 154.5 -241t54.5 -300q0 -218 -98 -393t-270.5 -273t-385.5 -98z
M399 274l877 967q-162 143 -408 143q-142 0 -261 -52.5t-198.5 -142.5t-124 -210t-44.5 -254q0 -130 41 -247t118 -204zM868 66q190 0 335.5 91t220.5 240t75 328q0 131 -42.5 249.5t-121.5 205.5l-876 -967q166 -147 409 -147z" />
    <glyph glyph-name="Ugrave" unicode="&#xd9;" horiz-adv-x="1468" 
d="M745 1565l-258 295h148l207 -295h-97zM733 -39q-123 0 -220 35.5t-156.5 92.5t-98.5 135t-54.5 156t-15.5 163v907h117v-893q0 -74 11.5 -140t42 -132t77.5 -113t123 -76.5t174 -29.5q97 0 173 29t123.5 75.5t78.5 112t43 132.5t12 142v893h117v-907q0 -85 -15.5 -163
t-54.5 -156t-99 -135t-157 -92.5t-221 -35.5z" />
    <glyph glyph-name="Uacute" unicode="&#xda;" horiz-adv-x="1468" 
d="M637 1565l207 295h147l-258 -295h-96zM733 -39q-123 0 -220 35.5t-156.5 92.5t-98.5 135t-54.5 156t-15.5 163v907h117v-893q0 -74 11.5 -140t42 -132t77.5 -113t123 -76.5t174 -29.5q97 0 173 29t123.5 75.5t78.5 112t43 132.5t12 142v893h117v-907q0 -85 -15.5 -163
t-54.5 -156t-99 -135t-157 -92.5t-221 -35.5z" />
    <glyph glyph-name="Ucircumflex" unicode="&#xdb;" horiz-adv-x="1468" 
d="M449 1565l219 295h131l219 -295h-109l-176 235l-176 -235h-108zM733 -39q-123 0 -220 35.5t-156.5 92.5t-98.5 135t-54.5 156t-15.5 163v907h117v-893q0 -74 11.5 -140t42 -132t77.5 -113t123 -76.5t174 -29.5q97 0 173 29t123.5 75.5t78.5 112t43 132.5t12 142v893h117
v-907q0 -85 -15.5 -163t-54.5 -156t-99 -135t-157 -92.5t-221 -35.5z" />
    <glyph glyph-name="Udieresis" unicode="&#xdc;" horiz-adv-x="1468" 
d="M551 1653q-37 0 -62.5 27t-25.5 63q0 35 25.5 61.5t62.5 26.5q36 0 61 -26.5t25 -61.5q0 -36 -25 -63t-61 -27zM920 1653q-36 0 -61 27t-25 63q0 35 25 61.5t61 26.5q37 0 62.5 -26.5t25.5 -61.5q0 -36 -25.5 -63t-62.5 -27zM733 -39q-123 0 -220 35.5t-156.5 92.5
t-98.5 135t-54.5 156t-15.5 163v907h117v-893q0 -74 11.5 -140t42 -132t77.5 -113t123 -76.5t174 -29.5q97 0 173 29t123.5 75.5t78.5 112t43 132.5t12 142v893h117v-907q0 -85 -15.5 -163t-54.5 -156t-99 -135t-157 -92.5t-221 -35.5z" />
    <glyph glyph-name="Yacute" unicode="&#xdd;" horiz-adv-x="1193" 
d="M549 1565l207 295h147l-258 -295h-96zM539 0v627l-531 823h146l446 -723l449 723h135l-529 -823v-627h-116z" />
    <glyph glyph-name="Thorn" unicode="&#xde;" horiz-adv-x="1183" 
d="M201 0v1450h116v-320h287q140 0 244.5 -38t168.5 -124.5t64 -215.5q0 -186 -129 -285.5t-342 -99.5h-293v-367h-116zM317 469h279q167 0 263.5 71.5t96.5 211.5q0 142 -98 209t-266 67h-275v-559z" />
    <glyph glyph-name="germandbls" unicode="&#xdf;" horiz-adv-x="1218" 
d="M625 -23q-59 0 -109 9v94q62 -8 98 -8q171 0 273 102.5t102 276.5q0 185 -110 280.5t-295 95.5h-23v99h23q135 0 219 71.5t84 206.5q0 126 -79.5 198.5t-199.5 72.5q-72 0 -128 -23t-89.5 -59t-54.5 -86t-29 -98.5t-8 -102.5v-1106h-111v1110q0 72 13.5 137t45 125.5
t79 104.5t121 70t165.5 26q105 0 192.5 -42.5t141 -126t53.5 -192.5q0 -252 -249 -329v-4q158 -19 257 -133t99 -297q0 -214 -131 -343t-350 -129z" />
    <glyph glyph-name="agrave" unicode="&#xe0;" horiz-adv-x="1079" 
d="M565 1155l-258 295h148l207 -295h-97zM446 -27q-58 0 -113.5 16.5t-104.5 49t-79 89.5t-30 130q0 66 22.5 118.5t65 86.5t94.5 57.5t121 35.5t133.5 17t142.5 5h97v43q0 133 -70 199.5t-201 66.5q-81 0 -155.5 -30.5t-128.5 -82.5l-62 74q61 60 155.5 95.5t201.5 35.5
q165 0 265.5 -88.5t100.5 -257.5v-418q0 -125 17 -215h-101q-16 98 -16 176h-4q-114 -203 -351 -203zM473 66q80 0 143 29.5t101.5 79t58 110t19.5 127.5v77h-72q-62 0 -113.5 -3t-111 -11t-104 -24t-82.5 -40t-58.5 -61.5t-20.5 -85.5q0 -54 21 -94t57 -61.5t76.5 -32
t85.5 -10.5z" />
    <glyph glyph-name="aacute" unicode="&#xe1;" horiz-adv-x="1079" 
d="M451 1155l206 295h148l-258 -295h-96zM446 -27q-58 0 -113.5 16.5t-104.5 49t-79 89.5t-30 130q0 66 22.5 118.5t65 86.5t94.5 57.5t121 35.5t133.5 17t142.5 5h97v43q0 133 -70 199.5t-201 66.5q-81 0 -155.5 -30.5t-128.5 -82.5l-62 74q61 60 155.5 95.5t201.5 35.5
q165 0 265.5 -88.5t100.5 -257.5v-418q0 -125 17 -215h-101q-16 98 -16 176h-4q-114 -203 -351 -203zM473 66q80 0 143 29.5t101.5 79t58 110t19.5 127.5v77h-72q-62 0 -113.5 -3t-111 -11t-104 -24t-82.5 -40t-58.5 -61.5t-20.5 -85.5q0 -54 21 -94t57 -61.5t76.5 -32
t85.5 -10.5z" />
    <glyph glyph-name="acircumflex" unicode="&#xe2;" horiz-adv-x="1079" 
d="M252 1155l219 295h131l219 -295h-108l-176 236l-177 -236h-108zM446 -27q-58 0 -113.5 16.5t-104.5 49t-79 89.5t-30 130q0 66 22.5 118.5t65 86.5t94.5 57.5t121 35.5t133.5 17t142.5 5h97v43q0 133 -70 199.5t-201 66.5q-81 0 -155.5 -30.5t-128.5 -82.5l-62 74
q61 60 155.5 95.5t201.5 35.5q165 0 265.5 -88.5t100.5 -257.5v-418q0 -125 17 -215h-101q-16 98 -16 176h-4q-114 -203 -351 -203zM473 66q80 0 143 29.5t101.5 79t58 110t19.5 127.5v77h-72q-62 0 -113.5 -3t-111 -11t-104 -24t-82.5 -40t-58.5 -61.5t-20.5 -85.5
q0 -54 21 -94t57 -61.5t76.5 -32t85.5 -10.5z" />
    <glyph glyph-name="atilde" unicode="&#xe3;" horiz-adv-x="1079" 
d="M229 1190q13 85 54.5 138.5t113.5 53.5q54 0 154 -53q88 -43 123 -43q72 0 94 100h72q-13 -85 -53.5 -137.5t-112.5 -52.5q-54 0 -154 53q-88 43 -123 43q-74 0 -96 -102h-72zM446 -27q-58 0 -113.5 16.5t-104.5 49t-79 89.5t-30 130q0 66 22.5 118.5t65 86.5t94.5 57.5
t121 35.5t133.5 17t142.5 5h97v43q0 133 -70 199.5t-201 66.5q-81 0 -155.5 -30.5t-128.5 -82.5l-62 74q61 60 155.5 95.5t201.5 35.5q165 0 265.5 -88.5t100.5 -257.5v-418q0 -125 17 -215h-101q-16 98 -16 176h-4q-114 -203 -351 -203zM473 66q80 0 143 29.5t101.5 79
t58 110t19.5 127.5v77h-72q-62 0 -113.5 -3t-111 -11t-104 -24t-82.5 -40t-58.5 -61.5t-20.5 -85.5q0 -54 21 -94t57 -61.5t76.5 -32t85.5 -10.5z" />
    <glyph glyph-name="adieresis" unicode="&#xe4;" horiz-adv-x="1079" 
d="M352 1243q-37 0 -62.5 27t-25.5 63q0 35 25.5 61.5t62.5 26.5q36 0 61 -26.5t25 -61.5q0 -36 -25 -63t-61 -27zM721 1243q-36 0 -61 27t-25 63q0 35 25 61.5t61 26.5q37 0 62.5 -26.5t25.5 -61.5q0 -36 -25.5 -63t-62.5 -27zM446 -27q-58 0 -113.5 16.5t-104.5 49
t-79 89.5t-30 130q0 66 22.5 118.5t65 86.5t94.5 57.5t121 35.5t133.5 17t142.5 5h97v43q0 133 -70 199.5t-201 66.5q-81 0 -155.5 -30.5t-128.5 -82.5l-62 74q61 60 155.5 95.5t201.5 35.5q165 0 265.5 -88.5t100.5 -257.5v-418q0 -125 17 -215h-101q-16 98 -16 176h-4
q-114 -203 -351 -203zM473 66q80 0 143 29.5t101.5 79t58 110t19.5 127.5v77h-72q-62 0 -113.5 -3t-111 -11t-104 -24t-82.5 -40t-58.5 -61.5t-20.5 -85.5q0 -54 21 -94t57 -61.5t76.5 -32t85.5 -10.5z" />
    <glyph glyph-name="aring" unicode="&#xe5;" horiz-adv-x="1079" 
d="M535 1137q-81 0 -139 56t-58 138t58 138.5t139 56.5q80 0 138 -56.5t58 -138.5t-57.5 -138t-138.5 -56zM535 1198q55 0 94 39t39 94t-39 94t-94 39q-56 0 -95 -39t-39 -94t39 -94t95 -39zM446 -27q-58 0 -113.5 16.5t-104.5 49t-79 89.5t-30 130q0 66 22.5 118.5t65 86.5
t94.5 57.5t121 35.5t133.5 17t142.5 5h97v43q0 133 -70 199.5t-201 66.5q-81 0 -155.5 -30.5t-128.5 -82.5l-62 74q61 60 155.5 95.5t201.5 35.5q165 0 265.5 -88.5t100.5 -257.5v-418q0 -125 17 -215h-101q-16 98 -16 176h-4q-114 -203 -351 -203zM473 66q80 0 143 29.5
t101.5 79t58 110t19.5 127.5v77h-72q-62 0 -113.5 -3t-111 -11t-104 -24t-82.5 -40t-58.5 -61.5t-20.5 -85.5q0 -54 21 -94t57 -61.5t76.5 -32t85.5 -10.5z" />
    <glyph glyph-name="ae" unicode="&#xe6;" horiz-adv-x="1787" 
d="M461 -27q-64 0 -122.5 15.5t-108.5 47t-79.5 86t-29.5 126.5q0 52 17 94.5t46 72.5t73 53t90 36.5t106 22.5t113.5 13t117.5 5h111v49q0 135 -69 214t-198 79q-83 0 -159.5 -30.5t-135.5 -82.5l-63 72q64 60 164.5 96.5t208.5 36.5q128 0 212.5 -59.5t114.5 -163.5
q55 101 153.5 162t215.5 61q104 0 187 -37.5t135.5 -102.5t80 -148.5t27.5 -178.5q0 -45 -2 -57h-768q1 -76 26 -145t69.5 -122.5t111.5 -85.5t145 -32q98 0 178 46.5t127 119.5l80 -64q-149 -197 -385 -197q-139 0 -242 67t-149 185q-42 -127 -146 -190.5t-253 -63.5z
M903 545h653q-2 152 -87.5 247t-229.5 95q-72 0 -135.5 -31.5t-106 -81.5t-67.5 -110.5t-27 -118.5zM477 66q160 0 239 86.5t79 226.5v76h-74q-69 0 -122.5 -2.5t-112 -10t-101 -22t-78 -36.5t-53.5 -56t-18 -78q0 -51 20 -88.5t55.5 -57.5t76 -29t89.5 -9z" />
    <glyph glyph-name="ccedilla" unicode="&#xe7;" horiz-adv-x="1011" 
d="M567 -469q-103 0 -190 41l26 63q65 -32 156 -32q31 0 62.5 8t58.5 32t27 60q0 45 -34 66.5t-89 21.5q-57 0 -105 -20l-30 26l114 178q-202 17 -323 156t-121 346q0 218 138.5 360t356.5 142q103 0 192 -38t148 -112l-73 -67q-43 56 -116 90.5t-149 34.5q-170 0 -275 -118
t-105 -292t104.5 -290.5t271.5 -116.5q164 0 279 118l70 -63q-124 -143 -326 -152l-84 -133q31 10 82 10q68 0 120 -37.5t52 -107.5q0 -48 -22.5 -83.5t-59 -54.5t-75.5 -27.5t-81 -8.5z" />
    <glyph glyph-name="egrave" unicode="&#xe8;" horiz-adv-x="1161" 
d="M586 1155l-258 295h147l207 -295h-96zM602 -27q-209 0 -346 144t-137 362q0 215 136 357.5t337 142.5q109 0 196 -37.5t141.5 -102.5t83.5 -148.5t29 -178.5v-57h-809q3 -158 106.5 -271.5t266.5 -113.5q104 0 181.5 40t146.5 121l74 -59q-154 -199 -406 -199zM236 543
h696q-6 154 -97 249t-245 95q-77 0 -144 -31.5t-111 -81.5t-70 -110.5t-29 -120.5z" />
    <glyph glyph-name="eacute" unicode="&#xe9;" horiz-adv-x="1161" 
d="M518 1155l207 295h147l-258 -295h-96zM602 -27q-209 0 -346 144t-137 362q0 215 136 357.5t337 142.5q109 0 196 -37.5t141.5 -102.5t83.5 -148.5t29 -178.5v-57h-809q3 -158 106.5 -271.5t266.5 -113.5q104 0 181.5 40t146.5 121l74 -59q-154 -199 -406 -199zM236 543
h696q-6 154 -97 249t-245 95q-77 0 -144 -31.5t-111 -81.5t-70 -110.5t-29 -120.5z" />
    <glyph glyph-name="ecircumflex" unicode="&#xea;" horiz-adv-x="1161" 
d="M319 1155l220 295h131l219 -295h-109l-176 236l-176 -236h-109zM602 -27q-209 0 -346 144t-137 362q0 215 136 357.5t337 142.5q109 0 196 -37.5t141.5 -102.5t83.5 -148.5t29 -178.5v-57h-809q3 -158 106.5 -271.5t266.5 -113.5q104 0 181.5 40t146.5 121l74 -59
q-154 -199 -406 -199zM236 543h696q-6 154 -97 249t-245 95q-77 0 -144 -31.5t-111 -81.5t-70 -110.5t-29 -120.5z" />
    <glyph glyph-name="edieresis" unicode="&#xeb;" horiz-adv-x="1161" 
d="M418 1243q-37 0 -62.5 27t-25.5 63q0 35 25.5 61.5t62.5 26.5q36 0 61 -26.5t25 -61.5q0 -36 -25 -63t-61 -27zM786 1243q-36 0 -61 27t-25 63q0 35 25 61.5t61 26.5q37 0 62.5 -26.5t25.5 -61.5q0 -36 -25.5 -63t-62.5 -27zM602 -27q-209 0 -346 144t-137 362
q0 215 136 357.5t337 142.5q109 0 196 -37.5t141.5 -102.5t83.5 -148.5t29 -178.5v-57h-809q3 -158 106.5 -271.5t266.5 -113.5q104 0 181.5 40t146.5 121l74 -59q-154 -199 -406 -199zM236 543h696q-6 154 -97 249t-245 95q-77 0 -144 -31.5t-111 -81.5t-70 -110.5
t-29 -120.5z" />
    <glyph glyph-name="igrave" unicode="&#xec;" horiz-adv-x="497" 
d="M207 1155l-258 295h147l207 -295h-96zM193 0v954h112v-954h-112z" />
    <glyph glyph-name="iacute" unicode="&#xed;" horiz-adv-x="497" 
d="M193 1155l206 295h148l-258 -295h-96zM193 0v954h112v-954h-112z" />
    <glyph glyph-name="icircumflex" unicode="&#xee;" horiz-adv-x="497" 
d="M-33 1155l219 295h131l220 -295h-109l-176 236l-176 -236h-109zM193 0v954h112v-954h-112z" />
    <glyph glyph-name="idieresis" unicode="&#xef;" horiz-adv-x="497" 
d="M66 1243q-37 0 -63 27t-26 63q0 35 26 61.5t63 26.5q36 0 61 -26.5t25 -61.5q0 -36 -25 -63t-61 -27zM434 1243q-36 0 -61 27t-25 63q0 35 25 61.5t61 26.5q37 0 62.5 -26.5t25.5 -61.5q0 -36 -25.5 -63t-62.5 -27zM193 0v954h112v-954h-112z" />
    <glyph glyph-name="eth" unicode="&#xf0;" horiz-adv-x="1247" 
d="M610 -27q-220 0 -362 143t-142 361q0 219 141.5 360.5t362.5 141.5q182 0 326 -129l6 4q-56 124 -145.5 245t-184.5 206l-229 -119l-57 59l225 119q-81 77 -203 160l94 61q119 -87 203 -168l211 111l68 -58l-211 -114q103 -98 190 -224t149 -295t62 -331
q0 -101 -30.5 -194t-89.5 -170t-158.5 -123t-225.5 -46zM610 72q176 0 281.5 115t105.5 290t-105.5 289.5t-281.5 114.5q-175 0 -281 -115t-106 -289t106 -289.5t281 -115.5z" />
    <glyph glyph-name="ntilde" unicode="&#xf1;" horiz-adv-x="1183" 
d="M295 1190q13 85 54.5 138.5t113.5 53.5q53 0 153 -53q88 -43 123 -43q73 0 95 100h71q-13 -85 -53.5 -137.5t-112.5 -52.5q-53 0 -153 53q-88 43 -123 43q-74 0 -96 -102h-72zM193 0v735q0 124 -9 219h107q8 -106 8 -190h4q41 97 137 156t205 59q179 0 267.5 -109
t88.5 -288v-582h-110v541q0 344 -270 344q-133 0 -224.5 -105t-91.5 -295v-485h-112z" />
    <glyph glyph-name="ograve" unicode="&#xf2;" horiz-adv-x="1247" 
d="M608 1155l-258 295h148l207 -295h-97zM623 -27q-220 0 -361 143t-141 361q0 219 140.5 360.5t361.5 141.5q222 0 362.5 -141.5t140.5 -360.5q0 -218 -141 -361t-362 -143zM623 74q176 0 282.5 114.5t106.5 288.5t-106.5 290t-282.5 116q-175 0 -281 -116t-106 -290
t106 -288.5t281 -114.5z" />
    <glyph glyph-name="oacute" unicode="&#xf3;" horiz-adv-x="1247" 
d="M543 1155l207 295h147l-258 -295h-96zM623 -27q-220 0 -361 143t-141 361q0 219 140.5 360.5t361.5 141.5q222 0 362.5 -141.5t140.5 -360.5q0 -218 -141 -361t-362 -143zM623 74q176 0 282.5 114.5t106.5 288.5t-106.5 290t-282.5 116q-175 0 -281 -116t-106 -290
t106 -288.5t281 -114.5z" />
    <glyph glyph-name="ocircumflex" unicode="&#xf4;" horiz-adv-x="1247" 
d="M338 1155l219 295h131l219 -295h-108l-176 236l-177 -236h-108zM623 -27q-220 0 -361 143t-141 361q0 219 140.5 360.5t361.5 141.5q222 0 362.5 -141.5t140.5 -360.5q0 -218 -141 -361t-362 -143zM623 74q176 0 282.5 114.5t106.5 288.5t-106.5 290t-282.5 116
q-175 0 -281 -116t-106 -290t106 -288.5t281 -114.5z" />
    <glyph glyph-name="otilde" unicode="&#xf5;" horiz-adv-x="1247" 
d="M319 1190q13 85 54.5 138.5t113.5 53.5q54 0 154 -53q88 -43 123 -43q72 0 94 100h72q-13 -85 -53.5 -137.5t-112.5 -52.5q-54 0 -154 53q-88 43 -123 43q-74 0 -96 -102h-72zM623 -27q-220 0 -361 143t-141 361q0 219 140.5 360.5t361.5 141.5q222 0 362.5 -141.5
t140.5 -360.5q0 -218 -141 -361t-362 -143zM623 74q176 0 282.5 114.5t106.5 288.5t-106.5 290t-282.5 116q-175 0 -281 -116t-106 -290t106 -288.5t281 -114.5z" />
    <glyph glyph-name="odieresis" unicode="&#xf6;" horiz-adv-x="1247" 
d="M440 1243q-37 0 -62.5 27t-25.5 63q0 35 25.5 61.5t62.5 26.5q36 0 61 -26.5t25 -61.5q0 -36 -25 -63t-61 -27zM809 1243q-36 0 -61 27t-25 63q0 35 25 61.5t61 26.5q37 0 62.5 -26.5t25.5 -61.5q0 -36 -25.5 -63t-62.5 -27zM623 -27q-220 0 -361 143t-141 361
q0 219 140.5 360.5t361.5 141.5q222 0 362.5 -141.5t140.5 -360.5q0 -218 -141 -361t-362 -143zM623 74q176 0 282.5 114.5t106.5 288.5t-106.5 290t-282.5 116q-175 0 -281 -116t-106 -290t106 -288.5t281 -114.5z" />
    <glyph glyph-name="divide" unicode="&#xf7;" horiz-adv-x="1363" 
d="M682 854q-42 0 -70 30t-28 70q0 41 28 72t70 31t71 -31t29 -72q0 -39 -29 -69.5t-71 -30.5zM170 571v99h1026v-99h-1026zM682 184q-42 0 -70 31t-28 72t28 70.5t70 29.5t71 -30.5t29 -69.5q0 -41 -29 -72t-71 -31z" />
    <glyph glyph-name="oslash" unicode="&#xf8;" horiz-adv-x="1247" 
d="M156 -47l-56 51l136 139q-117 139 -117 334q0 219 141.5 360.5t360.5 141.5q193 0 329 -111l131 136l54 -54l-131 -135q124 -137 124 -338q0 -218 -142.5 -361t-364.5 -143q-193 0 -330 117zM309 217l572 582q-44 43 -112 66.5t-146 23.5q-177 0 -284.5 -118.5
t-107.5 -293.5q0 -159 78 -260zM621 66q178 0 286.5 117.5t108.5 293.5q0 161 -86 264l-572 -581q105 -94 263 -94z" />
    <glyph glyph-name="ugrave" unicode="&#xf9;" horiz-adv-x="1183" 
d="M573 1155l-258 295h148l207 -295h-97zM539 -27q-179 0 -269 109.5t-90 288.5v583h113v-540q0 -346 270 -346q63 0 119 26t100.5 74.5t70.5 126t26 174.5v485h110v-735q0 -117 10 -219h-108q-8 102 -8 188h-4q-39 -96 -135 -155.5t-205 -59.5z" />
    <glyph glyph-name="uacute" unicode="&#xfa;" horiz-adv-x="1183" 
d="M496 1155l206 295h148l-258 -295h-96zM539 -27q-179 0 -269 109.5t-90 288.5v583h113v-540q0 -346 270 -346q63 0 119 26t100.5 74.5t70.5 126t26 174.5v485h110v-735q0 -117 10 -219h-108q-8 102 -8 188h-4q-39 -96 -135 -155.5t-205 -59.5z" />
    <glyph glyph-name="ucircumflex" unicode="&#xfb;" horiz-adv-x="1183" 
d="M299 1155l219 295h131l219 -295h-108l-176 236l-176 -236h-109zM539 -27q-179 0 -269 109.5t-90 288.5v583h113v-540q0 -346 270 -346q63 0 119 26t100.5 74.5t70.5 126t26 174.5v485h110v-735q0 -117 10 -219h-108q-8 102 -8 188h-4q-39 -96 -135 -155.5t-205 -59.5z
" />
    <glyph glyph-name="udieresis" unicode="&#xfc;" horiz-adv-x="1183" 
d="M401 1243q-37 0 -62.5 27t-25.5 63q0 35 25.5 61.5t62.5 26.5q36 0 61 -26.5t25 -61.5q0 -36 -25 -63t-61 -27zM770 1243q-36 0 -61 27t-25 63q0 35 25 61.5t61 26.5q37 0 62.5 -26.5t25.5 -61.5q0 -36 -25.5 -63t-62.5 -27zM539 -27q-179 0 -269 109.5t-90 288.5v583
h113v-540q0 -346 270 -346q63 0 119 26t100.5 74.5t70.5 126t26 174.5v485h110v-735q0 -117 10 -219h-108q-8 102 -8 188h-4q-39 -96 -135 -155.5t-205 -59.5z" />
    <glyph glyph-name="yacute" unicode="&#xfd;" horiz-adv-x="962" 
d="M418 1155l207 295h147l-258 -295h-96zM172 -494q-47 0 -113 15l15 100q43 -16 94 -16q69 0 111 44.5t75 129.5l82 215l-399 960h125l336 -843l307 843h121l-475 -1220q-45 -113 -109 -170.5t-170 -57.5z" />
    <glyph glyph-name="thorn" unicode="&#xfe;" horiz-adv-x="1292" 
d="M195 -492v2040h108v-788h4q60 105 161 162t216 57q212 0 351 -142.5t139 -359.5t-139 -360.5t-351 -143.5q-117 0 -218.5 56t-158.5 159h-4v-680h-108zM676 72q171 0 276 116t105 289q0 172 -105 288t-276 116q-169 0 -276 -116t-107 -288t107 -288.5t276 -116.5z" />
    <glyph glyph-name="ydieresis" unicode="&#xff;" horiz-adv-x="962" 
d="M311 1243q-37 0 -62.5 27t-25.5 63q0 35 25.5 61.5t62.5 26.5q36 0 61 -26.5t25 -61.5q0 -36 -25 -63t-61 -27zM680 1243q-36 0 -61 27t-25 63q0 35 25 61.5t61 26.5q37 0 62.5 -26.5t25.5 -61.5q0 -36 -25.5 -63t-62.5 -27zM172 -494q-47 0 -113 15l15 100
q43 -16 94 -16q69 0 111 44.5t75 129.5l82 215l-399 960h125l336 -843l307 843h121l-475 -1220q-45 -113 -109 -170.5t-170 -57.5z" />
    <glyph glyph-name="Amacron" unicode="&#x100;" horiz-adv-x="1413" 
d="M446 1651v90h529v-90h-529zM25 0l628 1450h117l616 -1450h-129l-163 391h-777l-163 -391h-129zM360 498h691l-342 829z" />
    <glyph glyph-name="amacron" unicode="&#x101;" horiz-adv-x="1079" 
d="M283 1241v90h528v-90h-528zM446 -27q-58 0 -113.5 16.5t-104.5 49t-79 89.5t-30 130q0 66 22.5 118.5t65 86.5t94.5 57.5t121 35.5t133.5 17t142.5 5h97v43q0 133 -70 199.5t-201 66.5q-81 0 -155.5 -30.5t-128.5 -82.5l-62 74q61 60 155.5 95.5t201.5 35.5
q165 0 265.5 -88.5t100.5 -257.5v-418q0 -125 17 -215h-101q-16 98 -16 176h-4q-114 -203 -351 -203zM473 66q80 0 143 29.5t101.5 79t58 110t19.5 127.5v77h-72q-62 0 -113.5 -3t-111 -11t-104 -24t-82.5 -40t-58.5 -61.5t-20.5 -85.5q0 -54 21 -94t57 -61.5t76.5 -32
t85.5 -10.5z" />
    <glyph glyph-name="Abreve" unicode="&#x102;" horiz-adv-x="1413" 
d="M711 1587q-120 0 -198.5 71t-88.5 195h76q14 -85 72.5 -130.5t138.5 -45.5q85 0 141.5 44t73.5 132h73q-10 -125 -88.5 -195.5t-199.5 -70.5zM25 0l628 1450h117l616 -1450h-129l-163 391h-777l-163 -391h-129zM360 498h691l-342 829z" />
    <glyph glyph-name="abreve" unicode="&#x103;" horiz-adv-x="1079" 
d="M551 1178q-120 0 -198.5 71t-88.5 195h76q14 -85 72.5 -130.5t138.5 -45.5q85 0 141.5 44t73.5 132h74q-10 -124 -88.5 -195t-200.5 -71zM446 -27q-58 0 -113.5 16.5t-104.5 49t-79 89.5t-30 130q0 66 22.5 118.5t65 86.5t94.5 57.5t121 35.5t133.5 17t142.5 5h97v43
q0 133 -70 199.5t-201 66.5q-81 0 -155.5 -30.5t-128.5 -82.5l-62 74q61 60 155.5 95.5t201.5 35.5q165 0 265.5 -88.5t100.5 -257.5v-418q0 -125 17 -215h-101q-16 98 -16 176h-4q-114 -203 -351 -203zM473 66q80 0 143 29.5t101.5 79t58 110t19.5 127.5v77h-72
q-62 0 -113.5 -3t-111 -11t-104 -24t-82.5 -40t-58.5 -61.5t-20.5 -85.5q0 -54 21 -94t57 -61.5t76.5 -32t85.5 -10.5z" />
    <glyph glyph-name="Aogonek" unicode="&#x104;" horiz-adv-x="1413" 
d="M1255 -457q-74 0 -127 48t-53 124q0 128 182 285l-163 391h-777l-163 -391h-129l628 1450h117l616 -1450q-9 -9 -46 -24.5t-42 -22.5q-65 -69 -94.5 -116.5t-29.5 -96.5t32 -79t80 -30q68 0 115 50l33 -66q-72 -72 -179 -72zM360 498h691l-342 829z" />
    <glyph glyph-name="aogonek" unicode="&#x105;" horiz-adv-x="1079" 
d="M815 -457q-74 0 -127 48t-53 124q0 75 50.5 144.5t133.5 140.5h-2q-16 98 -16 176h-4q-114 -203 -351 -203q-58 0 -113.5 16.5t-104.5 49t-79 89.5t-30 130q0 77 33 135t85 92.5t129 56t153.5 29t168.5 7.5h107v43q0 133 -70 199.5t-201 66.5q-81 0 -155.5 -30.5
t-128.5 -82.5l-62 74q61 60 155.5 95.5t201.5 35.5q165 0 265.5 -88.5t100.5 -257.5v-418q0 -125 17 -215h-17q-91 -94 -128.5 -148t-37.5 -112q0 -49 31.5 -79t79.5 -30q71 0 115 50l34 -66q-75 -72 -180 -72zM473 66q80 0 143 29.5t101.5 79t58 110t19.5 127.5v77h-72
q-62 0 -113.5 -3t-111 -11t-104 -24t-82.5 -40t-58.5 -61.5t-20.5 -85.5q0 -54 21 -94t57 -61.5t76.5 -32t85.5 -10.5z" />
    <glyph glyph-name="Cacute" unicode="&#x106;" horiz-adv-x="1476" 
d="M770 1565l207 295h147l-258 -295h-96zM872 -39q-215 0 -386 98.5t-266 273t-95 392.5q0 163 56.5 305.5t155.5 243t238 158t299 57.5q159 0 290.5 -55t209.5 -156l-84 -78q-65 82 -175 133t-238 51q-188 0 -333 -90.5t-220.5 -239.5t-75.5 -329q0 -133 44.5 -253
t124.5 -210t199.5 -143t260.5 -53q135 0 242.5 48.5t201.5 164.5l80 -64q-194 -254 -529 -254z" />
    <glyph glyph-name="cacute" unicode="&#x107;" horiz-adv-x="1011" 
d="M522 1155l207 295h148l-259 -295h-96zM612 -27q-222 0 -356.5 141.5t-134.5 362.5q0 218 137.5 360t355.5 142q103 0 192 -38t148 -112l-73 -67q-42 55 -115 88t-150 33q-170 0 -275 -116t-105 -290q0 -173 104 -288t272 -115t279 114l70 -63q-133 -152 -349 -152z" />
    <glyph glyph-name="Ccircumflex" unicode="&#x108;" horiz-adv-x="1476" 
d="M608 1565l219 295h131l220 -295h-109l-176 235l-176 -235h-109zM872 -39q-215 0 -386 98.5t-266 273t-95 392.5q0 163 56.5 305.5t155.5 243t238 158t299 57.5q159 0 290.5 -55t209.5 -156l-84 -78q-65 82 -175 133t-238 51q-188 0 -333 -90.5t-220.5 -239.5t-75.5 -329
q0 -133 44.5 -253t124.5 -210t199.5 -143t260.5 -53q135 0 242.5 48.5t201.5 164.5l80 -64q-194 -254 -529 -254z" />
    <glyph glyph-name="ccircumflex" unicode="&#x109;" horiz-adv-x="1011" 
d="M330 1155l219 295h131l219 -295h-108l-177 236l-176 -236h-108zM612 -27q-222 0 -356.5 141.5t-134.5 362.5q0 218 137.5 360t355.5 142q103 0 192 -38t148 -112l-73 -67q-42 55 -115 88t-150 33q-170 0 -275 -116t-105 -290q0 -173 104 -288t272 -115t279 114l70 -63
q-133 -152 -349 -152z" />
    <glyph glyph-name="Cdotaccent" unicode="&#x10a;" horiz-adv-x="1476" 
d="M862 1659q-32 0 -57 24t-25 60t25 60t57 24t57 -24t25 -60t-25 -60t-57 -24zM872 -39q-215 0 -386 98.5t-266 273t-95 392.5q0 163 56.5 305.5t155.5 243t238 158t299 57.5q159 0 290.5 -55t209.5 -156l-84 -78q-65 82 -175 133t-238 51q-188 0 -333 -90.5t-220.5 -239.5
t-75.5 -329q0 -133 44.5 -253t124.5 -210t199.5 -143t260.5 -53q135 0 242.5 48.5t201.5 164.5l80 -64q-194 -254 -529 -254z" />
    <glyph glyph-name="cdotaccent" unicode="&#x10b;" horiz-adv-x="1011" 
d="M604 1249q-32 0 -58 24.5t-26 59.5t26 59.5t58 24.5t58 -24.5t26 -59.5t-26 -59.5t-58 -24.5zM612 -27q-222 0 -356.5 141.5t-134.5 362.5q0 218 137.5 360t355.5 142q103 0 192 -38t148 -112l-73 -67q-42 55 -115 88t-150 33q-170 0 -275 -116t-105 -290
q0 -173 104 -288t272 -115t279 114l70 -63q-133 -152 -349 -152z" />
    <glyph glyph-name="Ccaron" unicode="&#x10c;" horiz-adv-x="1476" 
d="M807 1565l-219 295h108l176 -236l177 236h108l-219 -295h-131zM872 -39q-215 0 -386 98.5t-266 273t-95 392.5q0 163 56.5 305.5t155.5 243t238 158t299 57.5q159 0 290.5 -55t209.5 -156l-84 -78q-65 82 -175 133t-238 51q-188 0 -333 -90.5t-220.5 -239.5t-75.5 -329
q0 -133 44.5 -253t124.5 -210t199.5 -143t260.5 -53q135 0 242.5 48.5t201.5 164.5l80 -64q-194 -254 -529 -254z" />
    <glyph glyph-name="ccaron" unicode="&#x10d;" horiz-adv-x="1011" 
d="M549 1155l-219 295h108l176 -236l177 236h108l-219 -295h-131zM612 -27q-222 0 -356.5 141.5t-134.5 362.5q0 218 137.5 360t355.5 142q103 0 192 -38t148 -112l-73 -67q-42 55 -115 88t-150 33q-170 0 -275 -116t-105 -290q0 -173 104 -288t272 -115t279 114l70 -63
q-133 -152 -349 -152z" />
    <glyph glyph-name="Dcaron" unicode="&#x10e;" horiz-adv-x="1558" 
d="M649 1565l-219 295h109l176 -236l176 236h108l-219 -295h-131zM201 0v1450h458q118 0 230 -28t211 -87t173 -143t117.5 -204.5t43.5 -262.5t-43.5 -262.5t-117.5 -204.5t-173 -143t-211 -87t-230 -28h-458zM317 104h312q159 0 289 47.5t215.5 131t131.5 197t46 245.5
q0 133 -46 246.5t-131.5 197t-215.5 130.5t-289 47h-312v-1242z" />
    <glyph glyph-name="dcaron" unicode="&#x10f;" horiz-adv-x="1368" 
d="M606 -27q-143 0 -254.5 66.5t-172 181t-60.5 256.5q0 215 136 358.5t351 143.5q116 0 218.5 -57t162.5 -162h4v788h113v-1548h-113v188h-4q-60 -102 -163 -158.5t-218 -56.5zM1223 1071l118 379h117l-143 -379h-92zM616 70q168 0 278 117t110 290t-110.5 291.5
t-277.5 118.5q-174 0 -277 -118t-103 -292q0 -175 102.5 -291t277.5 -116z" />
    <glyph glyph-name="Dcroat" unicode="&#x110;" horiz-adv-x="1558" 
d="M188 0v717h-153v90h153v643h461q118 0 229.5 -28t210.5 -87t172.5 -143t116.5 -204.5t43 -262.5t-43 -262.5t-116.5 -204.5t-172.5 -143t-210.5 -87t-229.5 -28h-461zM305 106h307q161 0 291 47t215.5 130.5t131.5 196.5t46 245q0 133 -46 246t-131.5 196t-215.5 129.5
t-291 46.5h-307v-536h535v-90h-535v-611z" />
    <glyph glyph-name="dcroat" unicode="&#x111;" horiz-adv-x="1298" 
d="M606 -27q-143 0 -254.5 66.5t-172 181t-60.5 256.5q0 215 136 358.5t351 143.5q116 0 218.5 -57t162.5 -162h4v407h-354v82h354v299h113v-299h123v-82h-123v-1167h-113v188h-4q-60 -102 -163 -158.5t-218 -56.5zM616 70q168 0 278 117t110 290t-110.5 291.5t-277.5 118.5
q-174 0 -277 -118t-103 -292q0 -175 102.5 -291t277.5 -116z" />
    <glyph glyph-name="Emacron" unicode="&#x112;" horiz-adv-x="1210" 
d="M383 1651v90h528v-90h-528zM201 0v1450h882v-104h-768v-541h719v-103h-719v-598h795v-104h-909z" />
    <glyph glyph-name="emacron" unicode="&#x113;" horiz-adv-x="1161" 
d="M336 1241v90h528v-90h-528zM602 -27q-209 0 -346 144t-137 362q0 215 136 357.5t337 142.5q109 0 196 -37.5t141.5 -102.5t83.5 -148.5t29 -178.5v-57h-809q3 -158 106.5 -271.5t266.5 -113.5q104 0 181.5 40t146.5 121l74 -59q-154 -199 -406 -199zM236 543h696
q-6 154 -97 249t-245 95q-77 0 -144 -31.5t-111 -81.5t-70 -110.5t-29 -120.5z" />
    <glyph glyph-name="Ebreve" unicode="&#x114;" horiz-adv-x="1210" 
d="M645 1587q-120 0 -198.5 71t-88.5 195h76q14 -85 72.5 -130.5t138.5 -45.5q85 0 141.5 44t73.5 132h74q-10 -124 -88.5 -195t-200.5 -71zM201 0v1450h882v-104h-768v-541h719v-103h-719v-598h795v-104h-909z" />
    <glyph glyph-name="ebreve" unicode="&#x115;" horiz-adv-x="1161" 
d="M598 1178q-120 0 -198.5 71t-88.5 195h76q14 -85 72.5 -130.5t138.5 -45.5q85 0 141.5 44t73.5 132h74q-10 -124 -88.5 -195t-200.5 -71zM602 -27q-209 0 -346 144t-137 362q0 215 136 357.5t337 142.5q109 0 196 -37.5t141.5 -102.5t83.5 -148.5t29 -178.5v-57h-809
q3 -158 106.5 -271.5t266.5 -113.5q104 0 181.5 40t146.5 121l74 -59q-154 -199 -406 -199zM236 543h696q-6 154 -97 249t-245 95q-77 0 -144 -31.5t-111 -81.5t-70 -110.5t-29 -120.5z" />
    <glyph glyph-name="Edotaccent" unicode="&#x116;" horiz-adv-x="1210" 
d="M655 1659q-32 0 -57 24t-25 60t25 60t57 24t57 -24t25 -60t-25 -60t-57 -24zM201 0v1450h882v-104h-768v-541h719v-103h-719v-598h795v-104h-909z" />
    <glyph glyph-name="edotaccent" unicode="&#x117;" horiz-adv-x="1161" 
d="M598 1249q-32 0 -58 24.5t-26 59.5t26 59.5t58 24.5t58 -24.5t26 -59.5t-26 -59.5t-58 -24.5zM602 -27q-209 0 -346 144t-137 362q0 215 136 357.5t337 142.5q109 0 196 -37.5t141.5 -102.5t83.5 -148.5t29 -178.5v-57h-809q3 -158 106.5 -271.5t266.5 -113.5
q104 0 181.5 40t146.5 121l74 -59q-154 -199 -406 -199zM236 543h696q-6 154 -97 249t-245 95q-77 0 -144 -31.5t-111 -81.5t-70 -110.5t-29 -120.5z" />
    <glyph glyph-name="Eogonek" unicode="&#x118;" horiz-adv-x="1210" 
d="M991 -457q-74 0 -127 48t-53 124q0 75 50.5 144.5t133.5 140.5h-794v1450h882v-104h-768v-541h719v-103h-719v-598h795v-104h-33q-91 -94 -128.5 -148t-37.5 -112q0 -49 31.5 -79t79.5 -30q68 0 115 50l34 -66q-75 -72 -180 -72z" />
    <glyph glyph-name="eogonek" unicode="&#x119;" horiz-adv-x="1161" 
d="M639 -457q-74 0 -127 48t-53 124q0 119 155 262q-18 -2 -32 -2q-129 0 -235.5 67.5t-167 183t-60.5 253.5q0 215 136 357.5t337 142.5q109 0 196 -37.5t141.5 -102.5t83.5 -148.5t29 -178.5v-57h-809q3 -158 106.5 -271.5t266.5 -113.5q103 0 186.5 46.5t133.5 121.5
l82 -66q-118 -152 -299 -188q-80 -82 -115 -135t-35 -109q0 -48 32 -78.5t79 -30.5q69 0 116 50l33 -66q-75 -72 -180 -72zM236 543h696q-6 154 -97 249t-245 95q-77 0 -144 -31.5t-111 -81.5t-70 -110.5t-29 -120.5z" />
    <glyph glyph-name="Ecaron" unicode="&#x11a;" horiz-adv-x="1210" 
d="M582 1565l-220 295h109l176 -236l176 236h109l-219 -295h-131zM201 0v1450h882v-104h-768v-541h719v-103h-719v-598h795v-104h-909z" />
    <glyph glyph-name="ecaron" unicode="&#x11b;" horiz-adv-x="1161" 
d="M530 1155l-219 295h109l176 -236l176 236h109l-219 -295h-132zM602 -27q-209 0 -346 144t-137 362q0 215 136 357.5t337 142.5q109 0 196 -37.5t141.5 -102.5t83.5 -148.5t29 -178.5v-57h-809q3 -158 106.5 -271.5t266.5 -113.5q104 0 181.5 40t146.5 121l74 -59
q-154 -199 -406 -199zM236 543h696q-6 154 -97 249t-245 95q-77 0 -144 -31.5t-111 -81.5t-70 -110.5t-29 -120.5z" />
    <glyph glyph-name="Gcircumflex" unicode="&#x11c;" horiz-adv-x="1605" 
d="M598 1565l219 295h131l219 -295h-108l-176 235l-176 -235h-109zM883 -39q-219 0 -392.5 99.5t-269.5 274t-96 392.5q0 216 97.5 390.5t270.5 273t388 98.5q313 0 505 -189l-73 -79q-78 78 -190 120.5t-242 42.5q-189 0 -335 -90.5t-222 -239t-76 -327.5
q0 -134 44.5 -253.5t124.5 -210.5t201.5 -144t266.5 -53q250 0 415 98v479h-348v102h465v-647q-228 -137 -534 -137z" />
    <glyph glyph-name="gcircumflex" unicode="&#x11d;" horiz-adv-x="1290" 
d="M344 1155l219 295h131l219 -295h-108l-176 236l-176 -236h-109zM600 -498q-131 0 -248 50t-200 139l71 76q73 -77 173 -121.5t208 -44.5q85 0 152 22.5t110.5 61t72 93t40.5 115t12 130.5v186h-4q-54 -102 -159 -159.5t-222 -57.5q-216 0 -351.5 138t-135.5 351
q0 138 60.5 251t172.5 180t254 67q117 0 220.5 -57.5t160.5 -161.5h4v194h113v-931q0 -77 -13.5 -146.5t-49 -139.5t-90.5 -120.5t-145 -82.5t-206 -32zM616 86q168 0 278 113.5t110 285.5q0 164 -111 283t-277 119q-116 0 -204 -56t-132 -146.5t-44 -199.5
q0 -168 103 -283.5t277 -115.5z" />
    <glyph glyph-name="Gbreve" unicode="&#x11e;" horiz-adv-x="1605" 
d="M879 1587q-120 0 -198.5 71t-88.5 195h76q14 -85 72.5 -130.5t138.5 -45.5q85 0 141.5 44t73.5 132h73q-10 -125 -88.5 -195.5t-199.5 -70.5zM883 -39q-219 0 -392.5 99.5t-269.5 274t-96 392.5q0 216 97.5 390.5t270.5 273t388 98.5q313 0 505 -189l-73 -79
q-78 78 -190 120.5t-242 42.5q-189 0 -335 -90.5t-222 -239t-76 -327.5q0 -134 44.5 -253.5t124.5 -210.5t201.5 -144t266.5 -53q250 0 415 98v479h-348v102h465v-647q-228 -137 -534 -137z" />
    <glyph glyph-name="gbreve" unicode="&#x11f;" horiz-adv-x="1290" 
d="M631 1178q-120 0 -198.5 71t-88.5 195h76q14 -85 72.5 -130.5t138.5 -45.5q85 0 141.5 44t73.5 132h74q-10 -124 -88.5 -195t-200.5 -71zM600 -498q-131 0 -248 50t-200 139l71 76q73 -77 173 -121.5t208 -44.5q85 0 152 22.5t110.5 61t72 93t40.5 115t12 130.5v186h-4
q-54 -102 -159 -159.5t-222 -57.5q-216 0 -351.5 138t-135.5 351q0 138 60.5 251t172.5 180t254 67q117 0 220.5 -57.5t160.5 -161.5h4v194h113v-931q0 -77 -13.5 -146.5t-49 -139.5t-90.5 -120.5t-145 -82.5t-206 -32zM616 86q168 0 278 113.5t110 285.5q0 164 -111 283
t-277 119q-116 0 -204 -56t-132 -146.5t-44 -199.5q0 -168 103 -283.5t277 -115.5z" />
    <glyph glyph-name="Gdotaccent" unicode="&#x120;" horiz-adv-x="1605" 
d="M877 1659q-32 0 -57 24t-25 60t25 60t57 24t56.5 -24t24.5 -60t-24.5 -60t-56.5 -24zM883 -39q-219 0 -392.5 99.5t-269.5 274t-96 392.5q0 216 97.5 390.5t270.5 273t388 98.5q313 0 505 -189l-73 -79q-78 78 -190 120.5t-242 42.5q-189 0 -335 -90.5t-222 -239
t-76 -327.5q0 -134 44.5 -253.5t124.5 -210.5t201.5 -144t266.5 -53q250 0 415 98v479h-348v102h465v-647q-228 -137 -534 -137z" />
    <glyph glyph-name="gdotaccent" unicode="&#x121;" horiz-adv-x="1290" 
d="M629 1249q-32 0 -58 24.5t-26 59.5t26 59.5t58 24.5t58 -24.5t26 -59.5t-26 -59.5t-58 -24.5zM600 -498q-131 0 -248 50t-200 139l71 76q73 -77 173 -121.5t208 -44.5q85 0 152 22.5t110.5 61t72 93t40.5 115t12 130.5v186h-4q-54 -102 -159 -159.5t-222 -57.5
q-216 0 -351.5 138t-135.5 351q0 138 60.5 251t172.5 180t254 67q117 0 220.5 -57.5t160.5 -161.5h4v194h113v-931q0 -77 -13.5 -146.5t-49 -139.5t-90.5 -120.5t-145 -82.5t-206 -32zM616 86q168 0 278 113.5t110 285.5q0 164 -111 283t-277 119q-116 0 -204 -56
t-132 -146.5t-44 -199.5q0 -168 103 -283.5t277 -115.5z" />
    <glyph glyph-name="uni0122" unicode="&#x122;" horiz-adv-x="1605" 
d="M883 -39q-219 0 -392.5 99.5t-269.5 274t-96 392.5q0 216 97.5 390.5t270.5 273t388 98.5q313 0 505 -189l-73 -79q-78 78 -190 120.5t-242 42.5q-189 0 -335 -90.5t-222 -239t-76 -327.5q0 -134 44.5 -253.5t124.5 -210.5t201.5 -144t266.5 -53q250 0 415 98v479h-348
v102h465v-647q-228 -137 -534 -137zM729 -471l121 379h117l-146 -379h-92z" />
    <glyph glyph-name="uni0123" unicode="&#x123;" horiz-adv-x="1290" 
d="M575 1155l146 379h92l-121 -379h-117zM600 -498q-131 0 -248 50t-200 139l71 76q73 -77 173 -121.5t208 -44.5q85 0 152 22.5t110.5 61t72 93t40.5 115t12 130.5v186h-4q-54 -102 -159 -159.5t-222 -57.5q-216 0 -351.5 138t-135.5 351q0 138 60.5 251t172.5 180t254 67
q117 0 220.5 -57.5t160.5 -161.5h4v194h113v-931q0 -77 -13.5 -146.5t-49 -139.5t-90.5 -120.5t-145 -82.5t-206 -32zM616 86q168 0 278 113.5t110 285.5q0 164 -111 283t-277 119q-116 0 -204 -56t-132 -146.5t-44 -199.5q0 -168 103 -283.5t277 -115.5z" />
    <glyph glyph-name="Hcircumflex" unicode="&#x124;" horiz-adv-x="1478" 
d="M453 1565l219 295h131l219 -295h-109l-176 235l-176 -235h-108zM201 0v1450h116v-643h846v643h117v-1450h-117v698h-846v-698h-116z" />
    <glyph glyph-name="hcircumflex" unicode="&#x125;" horiz-adv-x="1185" 
d="M301 1630l219 295h131l219 -295h-108l-176 236l-176 -236h-109zM195 0v1548h110v-780h4q46 102 136.5 156.5t199.5 54.5q179 0 269 -109t90 -288v-582h-111v541q0 344 -272 344q-63 0 -119 -25.5t-100.5 -74t-70.5 -126t-26 -174.5v-485h-110z" />
    <glyph glyph-name="Hbar" unicode="&#x126;" horiz-adv-x="1478" 
d="M201 0v1450h116v-344h846v344h117v-1450h-117v698h-846v-698h-116zM317 807h846v217h-846v-217z" />
    <glyph glyph-name="hbar" unicode="&#x127;" horiz-adv-x="1185" 
d="M195 0v1167h-121v82h121v299h110v-299h357v-82h-357v-399h4q39 96 133.5 153.5t202.5 57.5q179 0 269 -109t90 -288v-582h-111v541q0 346 -272 346q-131 0 -223.5 -106t-92.5 -296v-485h-110z" />
    <glyph glyph-name="Itilde" unicode="&#x128;" horiz-adv-x="516" 
d="M-53 1599q13 86 53.5 139.5t112.5 53.5q49 0 145 -49q89 -47 131 -47q74 0 96 100h72q-13 -84 -54.5 -136t-113.5 -52q-60 0 -143 47q-80 47 -133 47q-73 0 -95 -103h-71zM201 0v1450h116v-1450h-116z" />
    <glyph glyph-name="itilde" unicode="&#x129;" horiz-adv-x="497" 
d="M-51 1190q13 85 54.5 138.5t113.5 53.5q53 0 153 -53q88 -43 123 -43q72 0 94 100h72q-13 -85 -53.5 -137.5t-112.5 -52.5q-53 0 -153 53q-88 43 -123 43q-75 0 -97 -102h-71zM193 0v954h112v-954h-112z" />
    <glyph glyph-name="Imacron" unicode="&#x12a;" horiz-adv-x="516" 
d="M-4 1651v90h528v-90h-528zM201 0v1450h116v-1450h-116z" />
    <glyph glyph-name="imacron" unicode="&#x12b;" horiz-adv-x="497" 
d="M-14 1241v90h528v-90h-528zM193 0v954h112v-954h-112z" />
    <glyph glyph-name="Ibreve" unicode="&#x12c;" horiz-adv-x="516" 
d="M258 1587q-120 0 -198.5 71t-88.5 195h76q14 -85 72.5 -130.5t138.5 -45.5q85 0 141.5 44t73.5 132h74q-10 -124 -88.5 -195t-200.5 -71zM201 0v1450h116v-1450h-116z" />
    <glyph glyph-name="ibreve" unicode="&#x12d;" horiz-adv-x="497" 
d="M248 1178q-120 0 -198.5 71t-88.5 195h76q14 -85 72.5 -130.5t138.5 -45.5q85 0 141.5 44t73.5 132h74q-10 -124 -88.5 -195t-200.5 -71zM193 0v954h112v-954h-112z" />
    <glyph glyph-name="Iogonek" unicode="&#x12e;" horiz-adv-x="516" 
d="M221 -457q-74 0 -127 48t-53 124q0 75 50.5 144.5t133.5 140.5h-24v1450h116v-1450q-56 -56 -78 -79t-51 -59.5t-38 -63.5t-9 -58q0 -48 32 -78.5t79 -30.5q70 0 117 50l32 -66q-75 -72 -180 -72z" />
    <glyph glyph-name="iogonek" unicode="&#x12f;" horiz-adv-x="497" 
d="M248 1249q-32 0 -57 24t-25 60t25 60t57 24q33 0 58.5 -24t25.5 -60t-25.5 -60t-58.5 -24zM213 -457q-74 0 -127 48t-53 124q0 130 184 285h-24v954h112v-954h-6q-92 -92 -130 -146.5t-38 -113.5q0 -49 32.5 -79t80.5 -30q67 0 114 50l33 -66q-72 -72 -178 -72z" />
    <glyph glyph-name="Idotaccent" unicode="&#x130;" horiz-adv-x="516" 
d="M260 1659q-32 0 -57 24t-25 60t25 60t57 24t57 -24t25 -60t-25 -60t-57 -24zM201 0v1450h116v-1450h-116z" />
    <glyph glyph-name="dotlessi" unicode="&#x131;" horiz-adv-x="497" 
d="M193 0v954h112v-954h-112z" />
    <glyph glyph-name="IJ" unicode="&#x132;" horiz-adv-x="1486" 
d="M201 0v1450h116v-1450h-116zM918 -37q-145 0 -246 76.5t-131 198.5l108 30q24 -89 92.5 -145.5t163.5 -56.5q76 0 131.5 28t86.5 78.5t45 111.5t14 136v1030h116v-1038q0 -68 -11 -129t-38.5 -120.5t-69 -103t-109 -70t-152.5 -26.5z" />
    <glyph glyph-name="ij" unicode="&#x133;" horiz-adv-x="993" 
d="M248 1249q-32 0 -57 24t-25 60t25 60t57 24q33 0 58.5 -24t25.5 -60t-25.5 -60t-58.5 -24zM745 1249q-32 0 -56.5 24t-24.5 60t24.5 60t56.5 24q33 0 58.5 -24t25.5 -60q0 -35 -26 -59.5t-58 -24.5zM193 0v954h112v-954h-112zM543 -492q-59 0 -97 13l17 92q42 -10 78 -10
q39 0 66.5 11.5t43.5 30t25 48.5t11.5 59t2.5 70v1132h111v-1147q0 -67 -11.5 -117.5t-39.5 -93.5t-80 -65.5t-127 -22.5z" />
    <glyph glyph-name="Jcircumflex" unicode="&#x134;" horiz-adv-x="999" 
d="M465 1565l219 295h131l219 -295h-108l-176 235l-177 -235h-108zM430 -37q-145 0 -246 76.5t-131 198.5l109 30q24 -89 92.5 -145.5t163.5 -56.5q76 0 131.5 28t86 78.5t44.5 111.5t14 136v1030h117v-1038q0 -68 -11 -129t-38.5 -120.5t-69.5 -103t-109.5 -70
t-152.5 -26.5z" />
    <glyph glyph-name="jcircumflex" unicode="&#x135;" horiz-adv-x="499" 
d="M-37 1155l219 295h131l219 -295h-108l-176 236l-176 -236h-109zM47 -492q-58 0 -96 13l16 92q42 -10 78 -10q39 0 66.5 11.5t43.5 30t25.5 48.5t12 59t2.5 70v1132h110v-1147q0 -67 -11.5 -117.5t-39.5 -93.5t-80 -65.5t-127 -22.5z" />
    <glyph glyph-name="uni0136" unicode="&#x136;" horiz-adv-x="1247" 
d="M201 0v1450h116v-655l703 655h168l-733 -659l772 -791h-170l-740 774v-774h-116zM514 -471l121 379h117l-146 -379h-92z" />
    <glyph glyph-name="uni0137" unicode="&#x137;" horiz-adv-x="1005" 
d="M195 0v1548h110v-1028h6l455 434h160l-488 -438l539 -516h-164l-502 502h-6v-502h-110zM397 -469l121 379h117l-146 -379h-92z" />
    <glyph glyph-name="kgreenlandic" unicode="&#x138;" horiz-adv-x="1005" 
d="M195 0v954h110v-434h6l455 434h160l-488 -438l539 -516h-164l-502 502h-6v-502h-110z" />
    <glyph glyph-name="Lacute" unicode="&#x139;" horiz-adv-x="1036" 
d="M209 1565l207 295h147l-258 -295h-96zM201 0v1450h116v-1346h689v-104h-805z" />
    <glyph glyph-name="lacute" unicode="&#x13a;" horiz-adv-x="499" 
d="M197 1622l206 295h148l-258 -295h-96zM195 0v1548h110v-1548h-110z" />
    <glyph glyph-name="uni013B" unicode="&#x13b;" horiz-adv-x="1036" 
d="M201 0v1450h116v-1346h689v-104h-805zM446 -471l121 379h117l-145 -379h-93z" />
    <glyph glyph-name="uni013C" unicode="&#x13c;" horiz-adv-x="499" 
d="M195 0v1548h110v-1548h-110zM106 -469l121 379h117l-145 -379h-93z" />
    <glyph glyph-name="Lcaron" unicode="&#x13d;" horiz-adv-x="1036" 
d="M201 0v1450h116v-1346h689v-104h-805zM477 1071l119 379h117l-144 -379h-92z" />
    <glyph glyph-name="lcaron" unicode="&#x13e;" horiz-adv-x="569" 
d="M195 0v1548h110v-1548h-110zM422 1071l119 379h116l-143 -379h-92z" />
    <glyph glyph-name="Ldot" unicode="&#x13f;" horiz-adv-x="1036" 
d="M201 0v1450h116v-1346h689v-104h-805zM645 799q-33 0 -58.5 24t-25.5 60t25.5 60t58.5 24q32 0 57 -24t25 -60t-25 -60t-57 -24z" />
    <glyph glyph-name="ldot" unicode="&#x140;" horiz-adv-x="595" 
d="M195 0v1548h110v-1548h-110zM508 860q-32 0 -58 24.5t-26 59.5t26 59.5t58 24.5t58 -24.5t26 -59.5t-26 -59.5t-58 -24.5z" />
    <glyph glyph-name="Lslash" unicode="&#x141;" horiz-adv-x="1036" 
d="M201 0v506l-158 -137v116l158 138v827h116v-745l437 380v-114l-437 -383v-484h689v-104h-805z" />
    <glyph glyph-name="lslash" unicode="&#x142;" horiz-adv-x="499" 
d="M197 0v696l-156 -155v121l156 155v731h108v-643l162 160v-119l-162 -160v-786h-108z" />
    <glyph glyph-name="Nacute" unicode="&#x143;" horiz-adv-x="1572" 
d="M719 1565l207 295h147l-258 -295h-96zM201 0v1450h147l903 -1282h4v1282h117v-1450h-147l-903 1290h-5v-1290h-116z" />
    <glyph glyph-name="nacute" unicode="&#x144;" horiz-adv-x="1183" 
d="M518 1155l207 295h147l-258 -295h-96zM193 0v735q0 124 -9 219h107q8 -106 8 -190h4q41 97 137 156t205 59q179 0 267.5 -109t88.5 -288v-582h-110v541q0 344 -270 344q-133 0 -224.5 -105t-91.5 -295v-485h-112z" />
    <glyph glyph-name="uni0145" unicode="&#x145;" horiz-adv-x="1572" 
d="M201 0v1450h147l903 -1282h4v1282h117v-1450h-147l-903 1290h-5v-1290h-116zM616 -471l121 379h117l-145 -379h-93z" />
    <glyph glyph-name="uni0146" unicode="&#x146;" horiz-adv-x="1183" 
d="M193 0v735q0 124 -9 219h107q8 -106 8 -190h4q41 97 137 156t205 59q179 0 267.5 -109t88.5 -288v-582h-110v541q0 344 -270 344q-133 0 -224.5 -105t-91.5 -295v-485h-112zM449 -471l120 379h117l-145 -379h-92z" />
    <glyph glyph-name="Ncaron" unicode="&#x147;" horiz-adv-x="1572" 
d="M721 1565l-219 295h108l176 -236l177 236h108l-219 -295h-131zM201 0v1450h147l903 -1282h4v1282h117v-1450h-147l-903 1290h-5v-1290h-116z" />
    <glyph glyph-name="ncaron" unicode="&#x148;" horiz-adv-x="1183" 
d="M535 1155l-220 295h109l176 -236l176 236h109l-219 -295h-131zM193 0v735q0 124 -9 219h107q8 -106 8 -190h4q41 97 137 156t205 59q179 0 267.5 -109t88.5 -288v-582h-110v541q0 344 -270 344q-133 0 -224.5 -105t-91.5 -295v-485h-112z" />
    <glyph glyph-name="napostrophe" unicode="&#x149;" horiz-adv-x="1183" 
d="M-4 1071l121 379h116l-145 -379h-92zM193 0v735q0 124 -9 219h107q8 -106 8 -190h4q41 97 137 156t205 59q179 0 267.5 -109t88.5 -288v-582h-110v541q0 344 -270 344q-133 0 -224.5 -105t-91.5 -295v-485h-112z" />
    <glyph glyph-name="Eng" unicode="&#x14a;" horiz-adv-x="1572" 
d="M1114 -492q-58 0 -96 13l16 92q42 -10 78 -10q39 0 66.5 11.5t43.5 30t25.5 48.5t12 59t2.5 70v158l-940 1310h-5v-1290h-116v1450h147l903 -1253h4v1253h117v-1643q0 -67 -11.5 -117.5t-39.5 -93.5t-80 -65.5t-127 -22.5z" />
    <glyph glyph-name="eng" unicode="&#x14b;" horiz-adv-x="1183" 
d="M743 -492q-58 0 -96 13l17 92q42 -10 77 -10q39 0 66.5 11.5t43.5 30t25.5 48.5t12 59t2.5 70v719q0 346 -270 346q-133 0 -224.5 -106t-91.5 -296v-485h-112v735q0 124 -9 219h107q8 -106 8 -190h4q41 97 137 156t205 59q179 0 267.5 -109t88.5 -288v-775
q0 -67 -11.5 -117.5t-39.5 -93.5t-80 -65.5t-127 -22.5z" />
    <glyph glyph-name="Omacron" unicode="&#x14c;" horiz-adv-x="1755" 
d="M618 1651v90h529v-90h-529zM877 -39q-212 0 -384 98t-270 273t-98 393t98 393t270 273t384 98q160 0 299.5 -57.5t239 -158t157 -243t57.5 -305.5t-57.5 -305.5t-157 -243t-239 -158t-299.5 -57.5zM877 66q188 0 333.5 91t221 240t75.5 328q0 180 -76 329t-221.5 239.5
t-332.5 90.5q-140 0 -259 -52.5t-199.5 -142.5t-125.5 -210t-45 -254q0 -133 44.5 -253t125 -210t199.5 -143t260 -53z" />
    <glyph glyph-name="omacron" unicode="&#x14d;" horiz-adv-x="1247" 
d="M360 1241v90h529v-90h-529zM623 -27q-220 0 -361 143t-141 361q0 219 140.5 360.5t361.5 141.5q222 0 362.5 -141.5t140.5 -360.5q0 -218 -141 -361t-362 -143zM623 74q176 0 282.5 114.5t106.5 288.5t-106.5 290t-282.5 116q-175 0 -281 -116t-106 -290t106 -288.5
t281 -114.5z" />
    <glyph glyph-name="Obreve" unicode="&#x14e;" horiz-adv-x="1755" 
d="M881 1587q-120 0 -198.5 71t-88.5 195h76q14 -85 72.5 -130.5t138.5 -45.5q85 0 141.5 44t73.5 132h73q-10 -125 -88.5 -195.5t-199.5 -70.5zM877 -39q-212 0 -384 98t-270 273t-98 393t98 393t270 273t384 98q160 0 299.5 -57.5t239 -158t157 -243t57.5 -305.5
t-57.5 -305.5t-157 -243t-239 -158t-299.5 -57.5zM877 66q188 0 333.5 91t221 240t75.5 328q0 180 -76 329t-221.5 239.5t-332.5 90.5q-140 0 -259 -52.5t-199.5 -142.5t-125.5 -210t-45 -254q0 -133 44.5 -253t125 -210t199.5 -143t260 -53z" />
    <glyph glyph-name="obreve" unicode="&#x14f;" horiz-adv-x="1247" 
d="M625 1178q-120 0 -198.5 71t-88.5 195h76q14 -85 72.5 -130.5t138.5 -45.5q85 0 141.5 44t73.5 132h73q-10 -125 -88.5 -195.5t-199.5 -70.5zM623 -27q-220 0 -361 143t-141 361q0 219 140.5 360.5t361.5 141.5q222 0 362.5 -141.5t140.5 -360.5q0 -218 -141 -361
t-362 -143zM623 74q176 0 282.5 114.5t106.5 288.5t-106.5 290t-282.5 116q-175 0 -281 -116t-106 -290t106 -288.5t281 -114.5z" />
    <glyph glyph-name="Ohungarumlaut" unicode="&#x150;" horiz-adv-x="1755" 
d="M668 1565l206 295h148l-258 -295h-96zM985 1565l205 295h147l-256 -295h-96zM877 -39q-212 0 -384 98t-270 273t-98 393t98 393t270 273t384 98q160 0 299.5 -57.5t239 -158t157 -243t57.5 -305.5t-57.5 -305.5t-157 -243t-239 -158t-299.5 -57.5zM877 66q188 0 333.5 91
t221 240t75.5 328q0 180 -76 329t-221.5 239.5t-332.5 90.5q-140 0 -259 -52.5t-199.5 -142.5t-125.5 -210t-45 -254q0 -133 44.5 -253t125 -210t199.5 -143t260 -53z" />
    <glyph glyph-name="ohungarumlaut" unicode="&#x151;" horiz-adv-x="1247" 
d="M422 1155l207 295h147l-258 -295h-96zM737 1155l207 295h148l-258 -295h-97zM623 -27q-220 0 -361 143t-141 361q0 219 140.5 360.5t361.5 141.5q222 0 362.5 -141.5t140.5 -360.5q0 -218 -141 -361t-362 -143zM623 74q176 0 282.5 114.5t106.5 288.5t-106.5 290
t-282.5 116q-175 0 -281 -116t-106 -290t106 -288.5t281 -114.5z" />
    <glyph glyph-name="OE" unicode="&#x152;" horiz-adv-x="2023" 
d="M920 0q-118 0 -230 28t-211 87t-173 143t-117.5 204.5t-43.5 262.5t43.5 262.5t117.5 204.5t173 143t211 87t230 28h974v-104h-694v-541h647v-103h-647v-598h721v-104h-1001zM950 104h133v1242h-133q-159 0 -288.5 -47.5t-215 -131t-132 -197t-46.5 -245.5
q0 -133 46.5 -246.5t132 -197t215 -130.5t288.5 -47z" />
    <glyph glyph-name="oe" unicode="&#x153;" horiz-adv-x="2045" 
d="M621 -27q-219 0 -360.5 143t-141.5 361q0 219 141.5 360.5t360.5 141.5q151 0 266 -69t176 -191q58 121 166.5 190.5t245.5 69.5q110 0 197.5 -37.5t143 -102.5t84.5 -148.5t29 -178.5q0 -41 -2 -57h-811q3 -158 108 -271.5t267 -113.5q102 0 185.5 46.5t133.5 121.5
l82 -66q-154 -199 -403 -199q-144 0 -255 71t-169 194q-61 -124 -176.5 -194.5t-267.5 -70.5zM621 70q176 0 283.5 116.5t107.5 290.5q0 175 -107.5 292.5t-283.5 117.5q-175 0 -282.5 -118t-107.5 -292t107.5 -290.5t282.5 -116.5zM1122 543h695q-6 154 -96 249t-244 95
q-78 0 -145.5 -31.5t-111 -81.5t-69.5 -110.5t-29 -120.5z" />
    <glyph glyph-name="Racute" unicode="&#x154;" horiz-adv-x="1224" 
d="M477 1565l207 295h147l-258 -295h-96zM201 0v1450h417q105 0 189 -19.5t152 -62t105.5 -118t37.5 -179.5q0 -84 -31 -152.5t-85 -113t-122.5 -71t-146.5 -32.5l428 -702h-141l-414 694h-273v-694h-116zM317 795h285q185 0 284 70.5t99 205.5q0 279 -385 279h-283v-555z
" />
    <glyph glyph-name="racute" unicode="&#x155;" horiz-adv-x="710" 
d="M244 1155l207 295h147l-258 -295h-96zM193 0v735q0 124 -9 219h107q8 -106 8 -190h4q39 101 124 158t189 57q51 0 76 -8l-12 -103q-32 9 -78 9q-133 0 -215 -104.5t-82 -283.5v-489h-112z" />
    <glyph glyph-name="uni0156" unicode="&#x156;" horiz-adv-x="1224" 
d="M201 0v1450h417q105 0 189 -19.5t152 -62t105.5 -118t37.5 -179.5q0 -84 -31 -152.5t-85 -113t-122.5 -71t-146.5 -32.5l428 -702h-141l-414 694h-273v-694h-116zM317 795h285q185 0 284 70.5t99 205.5q0 279 -385 279h-283v-555zM481 -471l121 379h117l-146 -379h-92z
" />
    <glyph glyph-name="uni0157" unicode="&#x157;" horiz-adv-x="710" 
d="M193 0v735q0 124 -9 219h107q8 -106 8 -190h4q39 101 124 158t189 57q51 0 76 -8l-12 -103q-32 9 -78 9q-133 0 -215 -104.5t-82 -283.5v-489h-112zM100 -471l121 379h117l-145 -379h-93z" />
    <glyph glyph-name="Rcaron" unicode="&#x158;" horiz-adv-x="1224" 
d="M512 1565l-219 295h108l177 -236l176 236h108l-219 -295h-131zM201 0v1450h417q105 0 189 -19.5t152 -62t105.5 -118t37.5 -179.5q0 -84 -31 -152.5t-85 -113t-122.5 -71t-146.5 -32.5l428 -702h-141l-414 694h-273v-694h-116zM317 795h285q185 0 284 70.5t99 205.5
q0 279 -385 279h-283v-555z" />
    <glyph glyph-name="rcaron" unicode="&#x159;" horiz-adv-x="710" 
d="M360 1155l-219 295h109l176 -236l176 236h109l-219 -295h-132zM193 0v735q0 124 -9 219h107q8 -106 8 -190h4q39 101 124 158t189 57q51 0 76 -8l-12 -103q-32 9 -78 9q-133 0 -215 -104.5t-82 -283.5v-489h-112z" />
    <glyph glyph-name="Sacute" unicode="&#x15a;" horiz-adv-x="1159" 
d="M510 1565l207 295h147l-258 -295h-96zM565 -39q-278 0 -438 209l82 72q151 -179 356 -179q65 0 125.5 20t110 57t79 95.5t29.5 129.5q0 68 -26 120t-70 85t-101 59t-120 47t-125.5 43.5t-119.5 53.5t-101 72t-70 105t-26 146q0 97 40 174t106.5 123.5t146.5 71t165 24.5
q135 0 236.5 -47.5t161.5 -124.5l-84 -76q-123 148 -320 148q-61 0 -119.5 -18.5t-107.5 -53t-79 -92t-30 -129.5q0 -67 26 -118.5t70 -83.5t101.5 -57.5t120.5 -46t126 -42t120.5 -52.5t101.5 -72t70 -105.5t26 -147.5q0 -101 -39.5 -181t-106 -129t-147.5 -74.5
t-170 -25.5z" />
    <glyph glyph-name="sacute" unicode="&#x15b;" horiz-adv-x="890" 
d="M381 1155l207 295h147l-258 -295h-96zM449 -25q-111 0 -207 45.5t-156 133.5l88 63q42 -66 115.5 -106.5t159.5 -40.5q99 0 167 46.5t68 139.5q0 21 -5.5 39t-12 32t-22.5 27.5t-26.5 22t-35 18.5t-36.5 15t-42.5 13.5t-42 11.5t-45.5 11q-50 12 -85 24t-76 33.5
t-66.5 48t-42.5 68t-17 93.5q0 88 48 150t119.5 89t158.5 27q105 0 190.5 -42.5t130.5 -119.5l-86 -61q-36 61 -98.5 96t-140.5 35q-86 0 -150.5 -42t-64.5 -124q0 -78 55 -115.5t184 -66.5q161 -36 240.5 -99.5t79.5 -175.5q0 -73 -29 -130t-79 -91t-110.5 -51t-127.5 -17z
" />
    <glyph glyph-name="Scircumflex" unicode="&#x15c;" horiz-adv-x="1159" 
d="M319 1565l220 295h131l219 -295h-109l-176 235l-176 -235h-109zM565 -39q-278 0 -438 209l82 72q151 -179 356 -179q65 0 125.5 20t110 57t79 95.5t29.5 129.5q0 68 -26 120t-70 85t-101 59t-120 47t-125.5 43.5t-119.5 53.5t-101 72t-70 105t-26 146q0 97 40 174
t106.5 123.5t146.5 71t165 24.5q135 0 236.5 -47.5t161.5 -124.5l-84 -76q-123 148 -320 148q-61 0 -119.5 -18.5t-107.5 -53t-79 -92t-30 -129.5q0 -67 26 -118.5t70 -83.5t101.5 -57.5t120.5 -46t126 -42t120.5 -52.5t101.5 -72t70 -105.5t26 -147.5q0 -101 -39.5 -181
t-106 -129t-147.5 -74.5t-170 -25.5z" />
    <glyph glyph-name="scircumflex" unicode="&#x15d;" horiz-adv-x="890" 
d="M176 1155l219 295h131l219 -295h-108l-176 236l-176 -236h-109zM449 -25q-111 0 -207 45.5t-156 133.5l88 63q42 -66 115.5 -106.5t159.5 -40.5q99 0 167 46.5t68 139.5q0 21 -5.5 39t-12 32t-22.5 27.5t-26.5 22t-35 18.5t-36.5 15t-42.5 13.5t-42 11.5t-45.5 11
q-50 12 -85 24t-76 33.5t-66.5 48t-42.5 68t-17 93.5q0 88 48 150t119.5 89t158.5 27q105 0 190.5 -42.5t130.5 -119.5l-86 -61q-36 61 -98.5 96t-140.5 35q-86 0 -150.5 -42t-64.5 -124q0 -78 55 -115.5t184 -66.5q161 -36 240.5 -99.5t79.5 -175.5q0 -73 -29 -130t-79 -91
t-110.5 -51t-127.5 -17z" />
    <glyph glyph-name="Scedilla" unicode="&#x15e;" horiz-adv-x="1159" 
d="M543 -469q-104 0 -191 41l27 63q65 -32 156 -32q52 0 99.5 24t47.5 76q0 45 -34 66.5t-89 21.5q-56 0 -104 -20l-31 26l106 166q-253 12 -403 207l82 72q151 -179 356 -179q65 0 125.5 20t110 57t79 95.5t29.5 129.5q0 68 -26 120t-70 85t-101 59t-120 47t-125.5 43.5
t-119.5 53.5t-101 72t-70 105t-26 146q0 97 40 174t106.5 123.5t146.5 71t165 24.5q135 0 236.5 -47.5t161.5 -124.5l-84 -76q-123 148 -320 148q-61 0 -119.5 -18.5t-107.5 -53t-79 -92t-30 -129.5q0 -67 26 -118.5t70 -83.5t101.5 -57.5t120.5 -46t126 -42t120.5 -52.5
t101.5 -72t70 -105.5t26 -147.5q0 -96 -35.5 -173t-95.5 -125.5t-134.5 -76.5t-158.5 -33l-78 -123q31 10 82 10q68 0 120 -37.5t52 -107.5q0 -48 -22 -83.5t-58.5 -54.5t-75.5 -27.5t-81 -8.5z" />
    <glyph glyph-name="scedilla" unicode="&#x15f;" horiz-adv-x="890" 
d="M422 -469q-104 0 -191 41l27 63q65 -32 156 -32q52 0 99.5 24t47.5 76q0 45 -34 66.5t-89 21.5q-56 0 -104 -20l-31 26l115 180q-102 5 -189.5 50t-142.5 127l88 63q42 -66 115.5 -106.5t159.5 -40.5q99 0 167 46.5t68 139.5q0 52 -30.5 88t-79.5 55t-108 34t-118.5 34
t-108.5 46t-79.5 77.5t-30.5 122.5q0 88 48 150t119.5 89t158.5 27q105 0 190.5 -42.5t130.5 -119.5l-86 -61q-36 61 -98.5 96t-140.5 35q-86 0 -150.5 -42t-64.5 -124q0 -78 55 -115.5t184 -66.5q161 -36 240.5 -99.5t79.5 -175.5q0 -67 -24.5 -120.5t-67 -87.5t-95.5 -54
t-114 -25l-88 -137q31 10 81 10q68 0 120 -37.5t52 -107.5q0 -48 -22 -83.5t-58.5 -54.5t-75.5 -27.5t-81 -8.5z" />
    <glyph glyph-name="Scaron" unicode="&#x160;" horiz-adv-x="1159" 
d="M526 1565l-219 295h109l176 -236l176 236h109l-220 -295h-131zM565 -39q-278 0 -438 209l82 72q151 -179 356 -179q65 0 125.5 20t110 57t79 95.5t29.5 129.5q0 68 -26 120t-70 85t-101 59t-120 47t-125.5 43.5t-119.5 53.5t-101 72t-70 105t-26 146q0 97 40 174
t106.5 123.5t146.5 71t165 24.5q135 0 236.5 -47.5t161.5 -124.5l-84 -76q-123 148 -320 148q-61 0 -119.5 -18.5t-107.5 -53t-79 -92t-30 -129.5q0 -67 26 -118.5t70 -83.5t101.5 -57.5t120.5 -46t126 -42t120.5 -52.5t101.5 -72t70 -105.5t26 -147.5q0 -101 -39.5 -181
t-106 -129t-147.5 -74.5t-170 -25.5z" />
    <glyph glyph-name="scaron" unicode="&#x161;" horiz-adv-x="890" 
d="M395 1155l-219 295h109l176 -236l176 236h108l-219 -295h-131zM449 -25q-111 0 -207 45.5t-156 133.5l88 63q42 -66 115.5 -106.5t159.5 -40.5q99 0 167 46.5t68 139.5q0 21 -5.5 39t-12 32t-22.5 27.5t-26.5 22t-35 18.5t-36.5 15t-42.5 13.5t-42 11.5t-45.5 11
q-50 12 -85 24t-76 33.5t-66.5 48t-42.5 68t-17 93.5q0 88 48 150t119.5 89t158.5 27q105 0 190.5 -42.5t130.5 -119.5l-86 -61q-36 61 -98.5 96t-140.5 35q-86 0 -150.5 -42t-64.5 -124q0 -78 55 -115.5t184 -66.5q161 -36 240.5 -99.5t79.5 -175.5q0 -73 -29 -130t-79 -91
t-110.5 -51t-127.5 -17z" />
    <glyph glyph-name="uni0162" unicode="&#x162;" horiz-adv-x="1148" 
d="M516 0v1346h-487v104h1091v-104h-487v-1346h-117zM422 -471l121 379h116l-145 -379h-92z" />
    <glyph glyph-name="uni0163" unicode="&#x163;" horiz-adv-x="641" 
d="M453 -16q-47 0 -86.5 12.5t-74 39.5t-54 76.5t-19.5 116.5v631h-201v94h199v273h113v-273h272v-94h-272v-604q0 -97 39 -136.5t112 -39.5q60 0 117 26l6 -96q-73 -26 -151 -26zM258 -471l121 379h117l-146 -379h-92z" />
    <glyph glyph-name="Tcaron" unicode="&#x164;" horiz-adv-x="1148" 
d="M508 1565l-219 295h108l176 -236l177 236h108l-219 -295h-131zM516 0v1346h-487v104h1091v-104h-487v-1346h-117z" />
    <glyph glyph-name="tcaron" unicode="&#x165;" horiz-adv-x="661" 
d="M463 1118l119 379h116l-143 -379h-92zM453 -16q-47 0 -86.5 12.5t-74 39.5t-54 76.5t-19.5 116.5v631h-201v94h199v273h113v-273h272v-94h-272v-604q0 -97 39 -136.5t112 -39.5q60 0 117 26l6 -96q-73 -26 -151 -26z" />
    <glyph glyph-name="Tbar" unicode="&#x166;" horiz-adv-x="1148" 
d="M516 0v1030h-375v84h375v232h-487v104h1091v-104h-487v-232h360v-84h-360v-1030h-117z" />
    <glyph glyph-name="tbar" unicode="&#x167;" horiz-adv-x="641" 
d="M453 -16q-47 0 -86.5 12.5t-74 39.5t-54 76.5t-19.5 116.5v310h-184v82h184v239h-201v94h199v273h113v-273h272v-94h-272v-239h250v-82h-250v-283q0 -97 39 -136.5t112 -39.5q60 0 117 26l6 -96q-73 -26 -151 -26z" />
    <glyph glyph-name="Utilde" unicode="&#x168;" horiz-adv-x="1468" 
d="M449 1599q13 86 53 139.5t112 53.5q50 0 146 -49q89 -47 131 -47q74 0 96 100h72q-13 -84 -54.5 -136t-113.5 -52q-60 0 -143 47q-80 47 -134 47q-72 0 -94 -103h-71zM733 -39q-123 0 -220 35.5t-156.5 92.5t-98.5 135t-54.5 156t-15.5 163v907h117v-893q0 -74 11.5 -140
t42 -132t77.5 -113t123 -76.5t174 -29.5q97 0 173 29t123.5 75.5t78.5 112t43 132.5t12 142v893h117v-907q0 -85 -15.5 -163t-54.5 -156t-99 -135t-157 -92.5t-221 -35.5z" />
    <glyph glyph-name="utilde" unicode="&#x169;" horiz-adv-x="1183" 
d="M287 1190q13 85 54.5 138.5t113.5 53.5q53 0 153 -53q88 -43 123 -43q72 0 94 100h72q-13 -85 -53.5 -137.5t-112.5 -52.5q-53 0 -153 53q-88 43 -123 43q-75 0 -97 -102h-71zM539 -27q-179 0 -269 109.5t-90 288.5v583h113v-540q0 -346 270 -346q63 0 119 26t100.5 74.5
t70.5 126t26 174.5v485h110v-735q0 -117 10 -219h-108q-8 102 -8 188h-4q-39 -96 -135 -155.5t-205 -59.5z" />
    <glyph glyph-name="Umacron" unicode="&#x16a;" horiz-adv-x="1468" 
d="M471 1651v90h528v-90h-528zM733 -39q-123 0 -220 35.5t-156.5 92.5t-98.5 135t-54.5 156t-15.5 163v907h117v-893q0 -74 11.5 -140t42 -132t77.5 -113t123 -76.5t174 -29.5q97 0 173 29t123.5 75.5t78.5 112t43 132.5t12 142v893h117v-907q0 -85 -15.5 -163t-54.5 -156
t-99 -135t-157 -92.5t-221 -35.5z" />
    <glyph glyph-name="umacron" unicode="&#x16b;" horiz-adv-x="1183" 
d="M324 1241v90h528v-90h-528zM539 -27q-179 0 -269 109.5t-90 288.5v583h113v-540q0 -346 270 -346q63 0 119 26t100.5 74.5t70.5 126t26 174.5v485h110v-735q0 -117 10 -219h-108q-8 102 -8 188h-4q-39 -96 -135 -155.5t-205 -59.5z" />
    <glyph glyph-name="Ubreve" unicode="&#x16c;" horiz-adv-x="1468" 
d="M733 1587q-120 0 -198.5 71t-88.5 195h76q14 -85 72.5 -130.5t138.5 -45.5q85 0 141.5 44t73.5 132h74q-10 -124 -88.5 -195t-200.5 -71zM733 -39q-123 0 -220 35.5t-156.5 92.5t-98.5 135t-54.5 156t-15.5 163v907h117v-893q0 -74 11.5 -140t42 -132t77.5 -113
t123 -76.5t174 -29.5q97 0 173 29t123.5 75.5t78.5 112t43 132.5t12 142v893h117v-907q0 -85 -15.5 -163t-54.5 -156t-99 -135t-157 -92.5t-221 -35.5z" />
    <glyph glyph-name="ubreve" unicode="&#x16d;" horiz-adv-x="1183" 
d="M590 1178q-120 0 -198.5 71t-88.5 195h76q14 -85 72.5 -130.5t138.5 -45.5q85 0 141.5 44t73.5 132h74q-10 -124 -88.5 -195t-200.5 -71zM539 -27q-179 0 -269 109.5t-90 288.5v583h113v-540q0 -346 270 -346q63 0 119 26t100.5 74.5t70.5 126t26 174.5v485h110v-735
q0 -117 10 -219h-108q-8 102 -8 188h-4q-39 -96 -135 -155.5t-205 -59.5z" />
    <glyph glyph-name="Uring" unicode="&#x16e;" horiz-adv-x="1468" 
d="M737 1546q-80 0 -138 56.5t-58 138.5t57.5 138t138.5 56t139 -56t58 -138t-58 -138.5t-139 -56.5zM737 1608q55 0 94 39t39 94t-39 94t-94 39t-94 -39t-39 -94t39 -94t94 -39zM733 -39q-123 0 -220 35.5t-156.5 92.5t-98.5 135t-54.5 156t-15.5 163v907h117v-893
q0 -74 11.5 -140t42 -132t77.5 -113t123 -76.5t174 -29.5q97 0 173 29t123.5 75.5t78.5 112t43 132.5t12 142v893h117v-907q0 -85 -15.5 -163t-54.5 -156t-99 -135t-157 -92.5t-221 -35.5z" />
    <glyph glyph-name="uring" unicode="&#x16f;" horiz-adv-x="1183" 
d="M588 1137q-81 0 -139 56t-58 138t58 138.5t139 56.5q80 0 138 -56.5t58 -138.5t-57.5 -138t-138.5 -56zM588 1198q56 0 94.5 39t38.5 94t-38.5 94t-94.5 39t-94.5 -39t-38.5 -94t38.5 -94t94.5 -39zM539 -27q-179 0 -269 109.5t-90 288.5v583h113v-540q0 -346 270 -346
q63 0 119 26t100.5 74.5t70.5 126t26 174.5v485h110v-735q0 -117 10 -219h-108q-8 102 -8 188h-4q-39 -96 -135 -155.5t-205 -59.5z" />
    <glyph glyph-name="Uhungarumlaut" unicode="&#x170;" horiz-adv-x="1468" 
d="M514 1565l207 295h147l-258 -295h-96zM831 1565l205 295h148l-256 -295h-97zM733 -39q-123 0 -220 35.5t-156.5 92.5t-98.5 135t-54.5 156t-15.5 163v907h117v-893q0 -74 11.5 -140t42 -132t77.5 -113t123 -76.5t174 -29.5q97 0 173 29t123.5 75.5t78.5 112t43 132.5
t12 142v893h117v-907q0 -85 -15.5 -163t-54.5 -156t-99 -135t-157 -92.5t-221 -35.5z" />
    <glyph glyph-name="uhungarumlaut" unicode="&#x171;" horiz-adv-x="1183" 
d="M371 1155l207 295h147l-258 -295h-96zM686 1155l207 295h147l-258 -295h-96zM539 -27q-179 0 -269 109.5t-90 288.5v583h113v-540q0 -346 270 -346q63 0 119 26t100.5 74.5t70.5 126t26 174.5v485h110v-735q0 -117 10 -219h-108q-8 102 -8 188h-4q-39 -96 -135 -155.5
t-205 -59.5z" />
    <glyph glyph-name="Uogonek" unicode="&#x172;" horiz-adv-x="1468" 
d="M188 543v907h117v-893q0 -74 11.5 -140t42 -132t77.5 -113t123 -76.5t174 -29.5q97 0 173 29t123.5 75.5t78.5 112t43 132.5t12 142v893h117v-907q0 -77 -12.5 -148t-43.5 -143t-78.5 -127.5t-123.5 -97t-172 -56.5q-75 -76 -107 -126t-32 -105q0 -49 31.5 -79t78.5 -30
q70 0 117 50l33 -66q-72 -72 -180 -72q-74 0 -127.5 48t-53.5 124q0 114 142 248h-25q-122 0 -218 35.5t-155 92.5t-97.5 135t-53.5 155.5t-15 161.5z" />
    <glyph glyph-name="uogonek" unicode="&#x173;" horiz-adv-x="1183" 
d="M889 -457q-74 0 -127 48t-53 124q0 75 50.5 144.5t133.5 140.5h-2q-8 102 -8 188h-4q-39 -96 -135 -155.5t-205 -59.5q-179 0 -269 109.5t-90 288.5v583h113v-540q0 -346 270 -346q63 0 119 26t100.5 74.5t70.5 126t26 174.5v485h110v-735q0 -117 10 -219h-24
q-89 -89 -127.5 -145t-38.5 -115q0 -49 31.5 -79t79.5 -30q67 0 114 50l35 -66q-75 -72 -180 -72z" />
    <glyph glyph-name="Wcircumflex" unicode="&#x174;" horiz-adv-x="1980" 
d="M705 1565l219 295h131l219 -295h-109l-176 235l-176 -235h-108zM467 0l-430 1450h123l377 -1296h4l377 1296h145l379 -1296h6l373 1296h123l-431 -1450h-141l-381 1294h-4l-379 -1294h-141z" />
    <glyph glyph-name="wcircumflex" unicode="&#x175;" horiz-adv-x="1499" 
d="M461 1155l219 295h131l219 -295h-108l-177 236l-176 -236h-108zM352 0l-295 954h119l240 -815h4l272 815h113l276 -815h4l238 815h117l-295 -954h-125l-270 811h-5l-268 -811h-125z" />
    <glyph glyph-name="Ycircumflex" unicode="&#x176;" horiz-adv-x="1193" 
d="M315 1565l220 295h131l219 -295h-109l-176 235l-176 -235h-109zM539 0v627l-531 823h146l446 -723l449 723h135l-529 -823v-627h-116z" />
    <glyph glyph-name="ycircumflex" unicode="&#x177;" horiz-adv-x="962" 
d="M209 1155l219 295h131l219 -295h-108l-176 236l-177 -236h-108zM172 -494q-47 0 -113 15l15 100q43 -16 94 -16q69 0 111 44.5t75 129.5l82 215l-399 960h125l336 -843l307 843h121l-475 -1220q-45 -113 -109 -170.5t-170 -57.5z" />
    <glyph glyph-name="Ydieresis" unicode="&#x178;" horiz-adv-x="1193" 
d="M416 1653q-37 0 -62.5 27t-25.5 63q0 35 25.5 61.5t62.5 26.5q36 0 61 -26.5t25 -61.5q0 -36 -25 -63t-61 -27zM784 1653q-36 0 -61 27t-25 63q0 35 25 61.5t61 26.5q37 0 62.5 -26.5t25.5 -61.5q0 -36 -25.5 -63t-62.5 -27zM539 0v627l-531 823h146l446 -723l449 723
h135l-529 -823v-627h-116z" />
    <glyph glyph-name="Zacute" unicode="&#x179;" horiz-adv-x="1185" 
d="M516 1565l207 295h147l-258 -295h-96zM78 0v102l878 1244h-856v104h998v-104l-877 -1242h893v-104h-1036z" />
    <glyph glyph-name="zacute" unicode="&#x17a;" horiz-adv-x="903" 
d="M381 1155l207 295h147l-258 -295h-96zM74 0v82l588 778h-558v94h701v-84l-586 -774h608v-96h-753z" />
    <glyph glyph-name="Zdotaccent" unicode="&#x17b;" horiz-adv-x="1185" 
d="M596 1659q-32 0 -57 24t-25 60t25 60t57 24t57 -24t25 -60t-25 -60t-57 -24zM78 0v102l878 1244h-856v104h998v-104l-877 -1242h893v-104h-1036z" />
    <glyph glyph-name="zdotaccent" unicode="&#x17c;" horiz-adv-x="903" 
d="M457 1249q-32 0 -58 24.5t-26 59.5t26 59.5t58 24.5t58 -24.5t26 -59.5t-26 -59.5t-58 -24.5zM74 0v82l588 778h-558v94h701v-84l-586 -774h608v-96h-753z" />
    <glyph glyph-name="Zcaron" unicode="&#x17d;" horiz-adv-x="1185" 
d="M530 1565l-219 295h109l176 -236l176 236h109l-219 -295h-132zM78 0v102l878 1244h-856v104h998v-104l-877 -1242h893v-104h-1036z" />
    <glyph glyph-name="zcaron" unicode="&#x17e;" horiz-adv-x="903" 
d="M393 1155l-219 295h109l176 -236l176 236h108l-219 -295h-131zM74 0v82l588 778h-558v94h701v-84l-586 -774h608v-96h-753z" />
    <glyph glyph-name="longs" unicode="&#x17f;" horiz-adv-x="555" 
d="M231 0v860h-198v94h198v285q0 163 79.5 248.5t221.5 85.5q66 0 109 -14l-18 -97q-54 15 -93 15q-54 0 -92 -19.5t-57.5 -55.5t-28 -78t-8.5 -97v-1227h-113z" />
    <glyph glyph-name="uni018F" unicode="&#x18f;" horiz-adv-x="1691" 
d="M125 727v78h1315q-13 123 -58.5 227t-120 184t-184.5 125t-243 45q-139 0 -250 -52t-178 -136l-97 74q184 217 527 217q162 0 299 -57.5t231.5 -158.5t147.5 -242.5t53 -305.5q0 -162 -57.5 -305t-155 -243t-231 -158t-281.5 -58q-158 0 -292 57.5t-227 158.5t-145.5 243
t-52.5 307zM248 702q4 -131 47 -247t117.5 -203t185 -138t242.5 -51q165 0 302 86t216 232t84 321h-1194z" />
    <glyph glyph-name="florin" unicode="&#x192;" horiz-adv-x="1175" 
d="M197 -287q-93 0 -148 33l45 90q46 -24 105 -24q39 0 68.5 13.5t48 32.5t32.5 52.5t21.5 61t15.5 69.5l133 721h-223v90h242l57 311q13 67 32.5 118t52.5 97.5t86.5 71.5t125.5 25q103 0 176 -54l-55 -80q-50 35 -115 35q-155 0 -195 -235l-51 -289h228v-90h-246
l-141 -756q-9 -51 -22 -91.5t-36.5 -79.5t-54.5 -65t-77 -41.5t-105 -15.5z" />
    <glyph glyph-name="Ohorn" unicode="&#x1a0;" horiz-adv-x="1755" 
d="M877 -39q-212 0 -384 98t-270 273t-98 393t98 393t270 273t384 98q191 0 385 -98q69 -35 139 -35q73 0 118.5 37.5t45.5 97.5q0 49 -27 127l100 27q31 -106 31 -150q0 -109 -66.5 -167t-183.5 -58q109 -122 160 -254.5t51 -290.5q0 -163 -57.5 -305.5t-157 -243
t-239 -158t-299.5 -57.5zM877 66q188 0 333.5 91t221 240t75.5 328q0 180 -76 329t-221.5 239.5t-332.5 90.5q-140 0 -259 -52.5t-199.5 -142.5t-125.5 -210t-45 -254q0 -133 44.5 -253t125 -210t199.5 -143t260 -53z" />
    <glyph glyph-name="ohorn" unicode="&#x1a1;" horiz-adv-x="1247" 
d="M623 -27q-220 0 -361 143t-141 361q0 219 140.5 360.5t361.5 141.5q69 0 134.5 -19.5t119 -39t94.5 -19.5q73 0 118.5 39t45.5 100q0 49 -27 127l100 27q31 -106 31 -150q0 -108 -62 -164.5t-176 -58.5q125 -141 125 -344q0 -218 -141 -361t-362 -143zM623 74
q176 0 282.5 114.5t106.5 288.5t-106.5 290t-282.5 116q-175 0 -281 -116t-106 -290t106 -288.5t281 -114.5z" />
    <glyph glyph-name="Uhorn" unicode="&#x1af;" horiz-adv-x="1468" 
d="M733 -39q-123 0 -220 35.5t-156.5 92.5t-98.5 135t-54.5 156t-15.5 163v907h117v-893q0 -74 11.5 -140t42 -132t77.5 -113t123 -76.5t174 -29.5q97 0 173 29t123.5 75.5t78.5 112t43 132.5t12 142v893h113q66 0 107.5 38.5t41.5 96.5q0 52 -26 127l100 27
q31 -106 31 -150q0 -109 -66.5 -167t-183.5 -58v-821q0 -85 -15.5 -163t-54.5 -156t-99 -135t-157 -92.5t-221 -35.5z" />
    <glyph glyph-name="uhorn" unicode="&#x1b0;" horiz-adv-x="1183" 
d="M539 -27q-179 0 -269 109.5t-90 288.5v583h113v-540q0 -346 270 -346q63 0 119 26t100.5 74.5t70.5 126t26 174.5v485h88q77 0 120 34.5t43 105.5q0 52 -26 127l100 26q31 -106 31 -149q0 -112 -64.5 -168t-181.5 -56v-655q0 -117 10 -219h-108q-8 102 -8 188h-4
q-39 -96 -135 -155.5t-205 -59.5z" />
    <glyph glyph-name="uni01CD" unicode="&#x1cd;" horiz-adv-x="1413" 
d="M645 1565l-219 295h109l176 -236l176 236h108l-219 -295h-131zM25 0l628 1450h117l616 -1450h-129l-163 391h-777l-163 -391h-129zM360 498h691l-342 829z" />
    <glyph glyph-name="uni01CE" unicode="&#x1ce;" horiz-adv-x="1079" 
d="M467 1155l-219 295h108l176 -236l177 236h108l-219 -295h-131zM446 -27q-58 0 -113.5 16.5t-104.5 49t-79 89.5t-30 130q0 66 22.5 118.5t65 86.5t94.5 57.5t121 35.5t133.5 17t142.5 5h97v43q0 133 -70 199.5t-201 66.5q-81 0 -155.5 -30.5t-128.5 -82.5l-62 74
q61 60 155.5 95.5t201.5 35.5q165 0 265.5 -88.5t100.5 -257.5v-418q0 -125 17 -215h-101q-16 98 -16 176h-4q-114 -203 -351 -203zM473 66q80 0 143 29.5t101.5 79t58 110t19.5 127.5v77h-72q-62 0 -113.5 -3t-111 -11t-104 -24t-82.5 -40t-58.5 -61.5t-20.5 -85.5
q0 -54 21 -94t57 -61.5t76.5 -32t85.5 -10.5z" />
    <glyph glyph-name="uni01CF" unicode="&#x1cf;" horiz-adv-x="516" 
d="M193 1565l-220 295h109l176 -236l176 236h109l-219 -295h-131zM201 0v1450h116v-1450h-116z" />
    <glyph glyph-name="uni01D0" unicode="&#x1d0;" horiz-adv-x="497" 
d="M184 1155l-219 295h109l176 -236l176 236h109l-220 -295h-131zM193 0v954h112v-954h-112z" />
    <glyph glyph-name="uni01D1" unicode="&#x1d1;" horiz-adv-x="1755" 
d="M811 1565l-219 295h108l177 -236l176 236h108l-219 -295h-131zM877 -39q-212 0 -384 98t-270 273t-98 393t98 393t270 273t384 98q160 0 299.5 -57.5t239 -158t157 -243t57.5 -305.5t-57.5 -305.5t-157 -243t-239 -158t-299.5 -57.5zM877 66q188 0 333.5 91t221 240
t75.5 328q0 180 -76 329t-221.5 239.5t-332.5 90.5q-140 0 -259 -52.5t-199.5 -142.5t-125.5 -210t-45 -254q0 -133 44.5 -253t125 -210t199.5 -143t260 -53z" />
    <glyph glyph-name="uni01D2" unicode="&#x1d2;" horiz-adv-x="1247" 
d="M549 1155l-219 295h108l176 -236l177 236h108l-219 -295h-131zM623 -27q-220 0 -361 143t-141 361q0 219 140.5 360.5t361.5 141.5q222 0 362.5 -141.5t140.5 -360.5q0 -218 -141 -361t-362 -143zM623 74q176 0 282.5 114.5t106.5 288.5t-106.5 290t-282.5 116
q-175 0 -281 -116t-106 -290t106 -288.5t281 -114.5z" />
    <glyph glyph-name="uni01D3" unicode="&#x1d3;" horiz-adv-x="1468" 
d="M670 1565l-219 295h108l176 -236l176 236h109l-219 -295h-131zM733 -39q-123 0 -220 35.5t-156.5 92.5t-98.5 135t-54.5 156t-15.5 163v907h117v-893q0 -74 11.5 -140t42 -132t77.5 -113t123 -76.5t174 -29.5q97 0 173 29t123.5 75.5t78.5 112t43 132.5t12 142v893h117
v-907q0 -85 -15.5 -163t-54.5 -156t-99 -135t-157 -92.5t-221 -35.5z" />
    <glyph glyph-name="uni01D4" unicode="&#x1d4;" horiz-adv-x="1183" 
d="M522 1155l-219 295h109l176 -236l176 236h108l-219 -295h-131zM539 -27q-179 0 -269 109.5t-90 288.5v583h113v-540q0 -346 270 -346q63 0 119 26t100.5 74.5t70.5 126t26 174.5v485h110v-735q0 -117 10 -219h-108q-8 102 -8 188h-4q-39 -96 -135 -155.5t-205 -59.5z" />
    <glyph glyph-name="uni01D5" unicode="&#x1d5;" horiz-adv-x="1468" 
d="M475 2013v90h529v-90h-529zM555 1585q-37 0 -62.5 27t-25.5 63q0 35 25.5 61.5t62.5 26.5q36 0 61 -26.5t25 -61.5q0 -36 -25 -63t-61 -27zM924 1585q-36 0 -61 27t-25 63q0 35 25 61.5t61 26.5q37 0 62.5 -26.5t25.5 -61.5q0 -36 -25.5 -63t-62.5 -27zM733 -39
q-123 0 -220 35.5t-156.5 92.5t-98.5 135t-54.5 156t-15.5 163v907h117v-893q0 -74 11.5 -140t42 -132t77.5 -113t123 -76.5t174 -29.5q97 0 173 29t123.5 75.5t78.5 112t43 132.5t12 142v893h117v-907q0 -85 -15.5 -163t-54.5 -156t-99 -135t-157 -92.5t-221 -35.5z" />
    <glyph glyph-name="uni01D6" unicode="&#x1d6;" horiz-adv-x="1183" 
d="M324 1645v90h528v-90h-528zM403 1217q-37 0 -62.5 27t-25.5 63q0 35 25.5 61.5t62.5 26.5q36 0 61 -26.5t25 -61.5q0 -36 -25 -63t-61 -27zM772 1217q-36 0 -61 27t-25 63q0 35 25 61.5t61 26.5q37 0 62.5 -26.5t25.5 -61.5q0 -36 -25.5 -63t-62.5 -27zM539 -27
q-179 0 -269 109.5t-90 288.5v583h113v-540q0 -346 270 -346q63 0 119 26t100.5 74.5t70.5 126t26 174.5v485h110v-735q0 -117 10 -219h-108q-8 102 -8 188h-4q-39 -96 -135 -155.5t-205 -59.5z" />
    <glyph glyph-name="uni01D7" unicode="&#x1d7;" horiz-adv-x="1468" 
d="M686 1901l184 266h146l-234 -266h-96zM563 1585q-37 0 -62.5 27t-25.5 63q0 35 25.5 61.5t62.5 26.5q36 0 61 -26.5t25 -61.5q0 -36 -25 -63t-61 -27zM932 1585q-36 0 -61 27t-25 63q0 35 25 61.5t61 26.5q37 0 62.5 -26.5t25.5 -61.5q0 -36 -25.5 -63t-62.5 -27z
M733 -39q-123 0 -220 35.5t-156.5 92.5t-98.5 135t-54.5 156t-15.5 163v907h117v-893q0 -74 11.5 -140t42 -132t77.5 -113t123 -76.5t174 -29.5q97 0 173 29t123.5 75.5t78.5 112t43 132.5t12 142v893h117v-907q0 -85 -15.5 -163t-54.5 -156t-99 -135t-157 -92.5t-221 -35.5
z" />
    <glyph glyph-name="uni01D8" unicode="&#x1d8;" horiz-adv-x="1183" 
d="M524 1532l185 266h145l-233 -266h-97zM401 1217q-37 0 -62.5 27t-25.5 63q0 35 25.5 61.5t62.5 26.5q36 0 61 -26.5t25 -61.5q0 -36 -25 -63t-61 -27zM770 1217q-36 0 -61 27t-25 63q0 35 25 61.5t61 26.5q37 0 62.5 -26.5t25.5 -61.5q0 -36 -25.5 -63t-62.5 -27z
M539 -27q-179 0 -269 109.5t-90 288.5v583h113v-540q0 -346 270 -346q63 0 119 26t100.5 74.5t70.5 126t26 174.5v485h110v-735q0 -117 10 -219h-108q-8 102 -8 188h-4q-39 -96 -135 -155.5t-205 -59.5z" />
    <glyph glyph-name="uni01D9" unicode="&#x1d9;" horiz-adv-x="1468" 
d="M682 1901l-199 266h109l156 -207l155 207h109l-199 -266h-131zM563 1585q-37 0 -62.5 27t-25.5 63q0 35 25.5 61.5t62.5 26.5q36 0 61 -26.5t25 -61.5q0 -36 -25 -63t-61 -27zM932 1585q-36 0 -61 27t-25 63q0 35 25 61.5t61 26.5q37 0 62.5 -26.5t25.5 -61.5
q0 -36 -25.5 -63t-62.5 -27zM733 -39q-123 0 -220 35.5t-156.5 92.5t-98.5 135t-54.5 156t-15.5 163v907h117v-893q0 -74 11.5 -140t42 -132t77.5 -113t123 -76.5t174 -29.5q97 0 173 29t123.5 75.5t78.5 112t43 132.5t12 142v893h117v-907q0 -85 -15.5 -163t-54.5 -156
t-99 -135t-157 -92.5t-221 -35.5z" />
    <glyph glyph-name="uni01DA" unicode="&#x1da;" horiz-adv-x="1183" 
d="M520 1532l-198 266h108l156 -207l155 207h109l-199 -266h-131zM401 1217q-37 0 -62.5 27t-25.5 63q0 35 25.5 61.5t62.5 26.5q36 0 61 -26.5t25 -61.5q0 -36 -25 -63t-61 -27zM770 1217q-36 0 -61 27t-25 63q0 35 25 61.5t61 26.5q37 0 62.5 -26.5t25.5 -61.5
q0 -36 -25.5 -63t-62.5 -27zM539 -27q-179 0 -269 109.5t-90 288.5v583h113v-540q0 -346 270 -346q63 0 119 26t100.5 74.5t70.5 126t26 174.5v485h110v-735q0 -117 10 -219h-108q-8 102 -8 188h-4q-39 -96 -135 -155.5t-205 -59.5z" />
    <glyph glyph-name="uni01DB" unicode="&#x1db;" horiz-adv-x="1468" 
d="M702 1901l-233 266h145l185 -266h-97zM563 1585q-37 0 -62.5 27t-25.5 63q0 35 25.5 61.5t62.5 26.5q36 0 61 -26.5t25 -61.5q0 -36 -25 -63t-61 -27zM932 1585q-36 0 -61 27t-25 63q0 35 25 61.5t61 26.5q37 0 62.5 -26.5t25.5 -61.5q0 -36 -25.5 -63t-62.5 -27z
M733 -39q-123 0 -220 35.5t-156.5 92.5t-98.5 135t-54.5 156t-15.5 163v907h117v-893q0 -74 11.5 -140t42 -132t77.5 -113t123 -76.5t174 -29.5q97 0 173 29t123.5 75.5t78.5 112t43 132.5t12 142v893h117v-907q0 -85 -15.5 -163t-54.5 -156t-99 -135t-157 -92.5t-221 -35.5
z" />
    <glyph glyph-name="uni01DC" unicode="&#x1dc;" horiz-adv-x="1183" 
d="M541 1532l-234 266h146l184 -266h-96zM401 1217q-37 0 -62.5 27t-25.5 63q0 35 25.5 61.5t62.5 26.5q36 0 61 -26.5t25 -61.5q0 -36 -25 -63t-61 -27zM770 1217q-36 0 -61 27t-25 63q0 35 25 61.5t61 26.5q37 0 62.5 -26.5t25.5 -61.5q0 -36 -25.5 -63t-62.5 -27z
M539 -27q-179 0 -269 109.5t-90 288.5v583h113v-540q0 -346 270 -346q63 0 119 26t100.5 74.5t70.5 126t26 174.5v485h110v-735q0 -117 10 -219h-108q-8 102 -8 188h-4q-39 -96 -135 -155.5t-205 -59.5z" />
    <glyph glyph-name="Aringacute" unicode="&#x1fa;" horiz-adv-x="1413" 
d="M702 2056l207 295h148l-258 -295h-97zM725 1546q-81 0 -139 56.5t-58 138.5t58 138t139 56t139 -56t58 -138t-58 -138.5t-139 -56.5zM725 1608q55 0 94 39t39 94t-39 94t-94 39t-94 -39t-39 -94t39 -94t94 -39zM25 0l628 1450h117l616 -1450h-129l-163 391h-777
l-163 -391h-129zM360 498h691l-342 829z" />
    <glyph glyph-name="aringacute" unicode="&#x1fb;" horiz-adv-x="1079" 
d="M502 1606l207 295h147l-258 -295h-96zM537 1092q-81 0 -139 56t-58 138t58 138.5t139 56.5q80 0 138 -56.5t58 -138.5t-57.5 -138t-138.5 -56zM537 1153q55 0 94 38.5t39 94.5t-39 94.5t-94 38.5q-56 0 -95 -39t-39 -94t39 -94t95 -39zM446 -27q-58 0 -113.5 16.5
t-104.5 49t-79 89.5t-30 130q0 66 22.5 118.5t65 86.5t94.5 57.5t121 35.5t133.5 17t142.5 5h97v43q0 133 -70 199.5t-201 66.5q-81 0 -155.5 -30.5t-128.5 -82.5l-62 74q61 60 155.5 95.5t201.5 35.5q165 0 265.5 -88.5t100.5 -257.5v-418q0 -125 17 -215h-101
q-16 98 -16 176h-4q-114 -203 -351 -203zM473 66q80 0 143 29.5t101.5 79t58 110t19.5 127.5v77h-72q-62 0 -113.5 -3t-111 -11t-104 -24t-82.5 -40t-58.5 -61.5t-20.5 -85.5q0 -54 21 -94t57 -61.5t76.5 -32t85.5 -10.5z" />
    <glyph glyph-name="AEacute" unicode="&#x1fc;" horiz-adv-x="2013" 
d="M1350 1565l206 295h148l-258 -295h-96zM37 0l942 1450h895v-104h-711v-541h662v-103h-662v-598h740v-104h-856v410h-611l-266 -410h-133zM498 514h549v832h-13z" />
    <glyph glyph-name="aeacute" unicode="&#x1fd;" horiz-adv-x="1787" 
d="M883 1155l207 295h147l-258 -295h-96zM461 -27q-64 0 -122.5 15.5t-108.5 47t-79.5 86t-29.5 126.5q0 52 17 94.5t46 72.5t73 53t90 36.5t106 22.5t113.5 13t117.5 5h111v49q0 135 -69 214t-198 79q-83 0 -159.5 -30.5t-135.5 -82.5l-63 72q64 60 164.5 96.5t208.5 36.5
q128 0 212.5 -59.5t114.5 -163.5q55 101 153.5 162t215.5 61q104 0 187 -37.5t135.5 -102.5t80 -148.5t27.5 -178.5q0 -45 -2 -57h-768q1 -76 26 -145t69.5 -122.5t111.5 -85.5t145 -32q98 0 178 46.5t127 119.5l80 -64q-149 -197 -385 -197q-139 0 -242 67t-149 185
q-42 -127 -146 -190.5t-253 -63.5zM903 545h653q-2 152 -87.5 247t-229.5 95q-72 0 -135.5 -31.5t-106 -81.5t-67.5 -110.5t-27 -118.5zM477 66q160 0 239 86.5t79 226.5v76h-74q-69 0 -122.5 -2.5t-112 -10t-101 -22t-78 -36.5t-53.5 -56t-18 -78q0 -51 20 -88.5
t55.5 -57.5t76 -29t89.5 -9z" />
    <glyph glyph-name="Oslashacute" unicode="&#x1fe;" horiz-adv-x="1755" 
d="M766 1565l207 295h147l-258 -295h-96zM868 -39q-281 0 -485 170l-152 -164l-61 58l149 165q-97 101 -149.5 238.5t-52.5 296.5q0 109 26 210t73 185t115.5 153t151 116.5t181 73.5t204.5 26q280 0 482 -166l151 164l62 -55l-150 -166q100 -103 154.5 -241t54.5 -300
q0 -218 -98 -393t-270.5 -273t-385.5 -98zM399 274l877 967q-162 143 -408 143q-142 0 -261 -52.5t-198.5 -142.5t-124 -210t-44.5 -254q0 -130 41 -247t118 -204zM868 66q190 0 335.5 91t220.5 240t75 328q0 131 -42.5 249.5t-121.5 205.5l-876 -967q166 -147 409 -147z
" />
    <glyph glyph-name="oslashacute" unicode="&#x1ff;" horiz-adv-x="1247" 
d="M508 1155l207 295h147l-258 -295h-96zM156 -47l-56 51l136 139q-117 139 -117 334q0 219 141.5 360.5t360.5 141.5q193 0 329 -111l131 136l54 -54l-131 -135q124 -137 124 -338q0 -218 -142.5 -361t-364.5 -143q-193 0 -330 117zM309 217l572 582q-44 43 -112 66.5
t-146 23.5q-177 0 -284.5 -118.5t-107.5 -293.5q0 -159 78 -260zM621 66q178 0 286.5 117.5t108.5 293.5q0 161 -86 264l-572 -581q105 -94 263 -94z" />
    <glyph glyph-name="uni0218" unicode="&#x218;" horiz-adv-x="1159" 
d="M565 -39q-278 0 -438 209l82 72q151 -179 356 -179q65 0 125.5 20t110 57t79 95.5t29.5 129.5q0 68 -26 120t-70 85t-101 59t-120 47t-125.5 43.5t-119.5 53.5t-101 72t-70 105t-26 146q0 97 40 174t106.5 123.5t146.5 71t165 24.5q135 0 236.5 -47.5t161.5 -124.5
l-84 -76q-123 148 -320 148q-61 0 -119.5 -18.5t-107.5 -53t-79 -92t-30 -129.5q0 -67 26 -118.5t70 -83.5t101.5 -57.5t120.5 -46t126 -42t120.5 -52.5t101.5 -72t70 -105.5t26 -147.5q0 -101 -39.5 -181t-106 -129t-147.5 -74.5t-170 -25.5zM438 -473l121 379h117
l-146 -379h-92z" />
    <glyph glyph-name="uni0219" unicode="&#x219;" horiz-adv-x="890" 
d="M449 -25q-111 0 -207 45.5t-156 133.5l88 63q42 -66 115.5 -106.5t159.5 -40.5q99 0 167 46.5t68 139.5q0 21 -5.5 39t-12 32t-22.5 27.5t-26.5 22t-35 18.5t-36.5 15t-42.5 13.5t-42 11.5t-45.5 11q-50 12 -85 24t-76 33.5t-66.5 48t-42.5 68t-17 93.5q0 88 48 150
t119.5 89t158.5 27q105 0 190.5 -42.5t130.5 -119.5l-86 -61q-36 61 -98.5 96t-140.5 35q-86 0 -150.5 -42t-64.5 -124q0 -78 55 -115.5t184 -66.5q161 -36 240.5 -99.5t79.5 -175.5q0 -73 -29 -130t-79 -91t-110.5 -51t-127.5 -17zM297 -473l121 379h117l-146 -379h-92z
" />
    <glyph glyph-name="uni021A" unicode="&#x21a;" horiz-adv-x="1148" 
d="M516 0v1346h-487v104h1091v-104h-487v-1346h-117zM428 -471l121 379h117l-146 -379h-92z" />
    <glyph glyph-name="uni021B" unicode="&#x21b;" horiz-adv-x="641" 
d="M453 -16q-47 0 -86.5 12.5t-74 39.5t-54 76.5t-19.5 116.5v631h-201v94h199v273h113v-273h272v-94h-272v-604q0 -97 39 -136.5t112 -39.5q60 0 117 26l6 -96q-73 -26 -151 -26zM252 -471l121 379h116l-145 -379h-92z" />
    <glyph glyph-name="uni0237" unicode="&#x237;" horiz-adv-x="499" 
d="M47 -492q-58 0 -96 13l16 92q42 -10 78 -10q39 0 66.5 11.5t43.5 30t25.5 48.5t12 59t2.5 70v1132h110v-1147q0 -67 -11.5 -117.5t-39.5 -93.5t-80 -65.5t-127 -22.5z" />
    <glyph glyph-name="uni0259" unicode="&#x259;" horiz-adv-x="1167" 
d="M573 -27q-110 0 -198 40.5t-143 111t-84 161.5t-29 195q0 42 2 62h811q-16 147 -118.5 244.5t-262.5 97.5q-84 0 -155 -36t-120 -89l-75 67q62 72 155.5 112t202.5 40q222 0 356 -141t134 -361q0 -217 -137 -360.5t-339 -143.5zM573 68q153 0 257 111t104 270h-705
q6 -172 96.5 -276.5t247.5 -104.5z" />
    <glyph glyph-name="uni02B9" unicode="&#x2b9;" horiz-adv-x="344" 
d="M135 948l66 502h116l-90 -502h-92z" />
    <glyph glyph-name="uni02BC" unicode="&#x2bc;" horiz-adv-x="360" 
d="M61 1071l121 379h117l-145 -379h-93z" />
    <glyph glyph-name="circumflex" unicode="&#x2c6;" horiz-adv-x="491" 
d="M-39 1155l219 295h131l219 -295h-108l-176 236l-176 -236h-109z" />
    <glyph glyph-name="caron" unicode="&#x2c7;" horiz-adv-x="491" 
d="M180 1155l-219 295h109l176 -236l176 236h108l-219 -295h-131z" />
    <glyph glyph-name="uni02C9" unicode="&#x2c9;" horiz-adv-x="491" 
d="M-18 1651v90h528v-90h-528z" />
    <glyph glyph-name="breve" unicode="&#x2d8;" horiz-adv-x="491" 
d="M244 1178q-120 0 -198.5 71t-88.5 195h76q14 -85 72.5 -130.5t138.5 -45.5q85 0 141.5 44t73.5 132h73q-10 -125 -88.5 -195.5t-199.5 -70.5z" />
    <glyph glyph-name="dotaccent" unicode="&#x2d9;" horiz-adv-x="491" 
d="M246 1249q-32 0 -58 24.5t-26 59.5t26 59.5t58 24.5t58 -24.5t26 -59.5t-26 -59.5t-58 -24.5z" />
    <glyph glyph-name="ring" unicode="&#x2da;" horiz-adv-x="491" 
d="M246 1137q-81 0 -139 56t-58 138t58 138.5t139 56.5q80 0 138 -56.5t58 -138.5t-57.5 -138t-138.5 -56zM246 1198q56 0 94.5 39t38.5 94t-38.5 94t-94.5 39t-94.5 -39t-38.5 -94t38.5 -94t94.5 -39z" />
    <glyph glyph-name="ogonek" unicode="&#x2db;" horiz-adv-x="491" 
d="M248 -457q-74 0 -127 48t-53 124q0 75 50.5 144.5t133.5 140.5h82q-91 -94 -128.5 -148t-37.5 -112q0 -48 32 -78.5t79 -30.5q70 0 114 50l35 -66q-75 -72 -180 -72z" />
    <glyph glyph-name="tilde" unicode="&#x2dc;" horiz-adv-x="491" 
d="M-59 1190q13 85 54.5 138.5t113.5 53.5q45 0 144.5 -48t131.5 -48q72 0 94 100h72q-13 -85 -53.5 -137.5t-112.5 -52.5q-46 0 -144.5 48t-131.5 48q-75 0 -97 -102h-71z" />
    <glyph glyph-name="hungarumlaut" unicode="&#x2dd;" horiz-adv-x="491" 
d="M-61 1155l206 295h148l-258 -295h-96zM254 1155l207 295h147l-258 -295h-96z" />
    <glyph glyph-name="gravecomb" unicode="&#x300;" 
d="M82 1155l-258 295h147l207 -295h-96z" />
    <glyph glyph-name="acutecomb" unicode="&#x301;" 
d="M-178 1155l207 295h147l-258 -295h-96z" />
    <glyph glyph-name="uni0302" unicode="&#x302;" 
d="M-285 1155l219 295h132l219 -295h-109l-176 236l-176 -236h-109z" />
    <glyph glyph-name="tildecomb" unicode="&#x303;" 
d="M-305 1190q13 85 54.5 138.5t113.5 53.5q53 0 153 -53q88 -43 123 -43q72 0 94 100h72q-13 -85 -53.5 -137.5t-112.5 -52.5q-53 0 -153 53q-88 43 -123 43q-74 0 -96 -102h-72z" />
    <glyph glyph-name="uni0304" unicode="&#x304;" 
d="M-264 1241v90h528v-90h-528z" />
    <glyph glyph-name="uni0306" unicode="&#x306;" 
d="M-2 1178q-120 0 -198.5 71t-88.5 195h76q14 -85 72.5 -130.5t138.5 -45.5q85 0 141.5 44t73.5 132h74q-10 -124 -88.5 -195t-200.5 -71z" />
    <glyph glyph-name="uni0307" unicode="&#x307;" 
d="M0 1249q-32 0 -58 24.5t-26 59.5t26 59.5t58 24.5t58 -24.5t26 -59.5t-26 -59.5t-58 -24.5z" />
    <glyph glyph-name="uni0308" unicode="&#x308;" 
d="M-184 1243q-37 0 -62.5 27t-25.5 63q0 35 25.5 61.5t62.5 26.5q36 0 61 -26.5t25 -61.5q0 -36 -25 -63t-61 -27zM184 1243q-36 0 -61 27t-25 63q0 35 25 61.5t61 26.5q37 0 62.5 -26.5t25.5 -61.5q0 -36 -25.5 -63t-62.5 -27z" />
    <glyph glyph-name="hookabovecomb" unicode="&#x309;" 
d="M-49 1137q0 45 20 74.5t72 54.5q68 35 68 92q0 42 -26.5 67t-74.5 25q-104 0 -121 -113l-88 11q15 86 69.5 129t141.5 43q85 0 136 -44.5t51 -113.5q0 -102 -101 -148q-65 -32 -65 -77h-82z" />
    <glyph glyph-name="uni030A" unicode="&#x30a;" 
d="M0 1137q-81 0 -139 56t-58 138t58 138.5t139 56.5t139 -56.5t58 -138.5t-58 -138t-139 -56zM0 1198q56 0 94.5 39t38.5 94t-38.5 94t-94.5 39t-94.5 -39t-38.5 -94t38.5 -94t94.5 -39z" />
    <glyph glyph-name="uni030B" unicode="&#x30b;" 
d="M-334 1155l207 295h147l-258 -295h-96zM-18 1155l206 295h148l-258 -295h-96z" />
    <glyph glyph-name="uni030C" unicode="&#x30c;" 
d="M-66 1155l-219 295h109l176 -236l176 236h109l-219 -295h-132z" />
    <glyph glyph-name="uni0312" unicode="&#x312;" 
d="M-131 1155l145 379h92l-120 -379h-117z" />
    <glyph glyph-name="uni0313" unicode="&#x313;" 
d="M-119 1155l119 379h117l-144 -379h-92z" />
    <glyph glyph-name="uni0315" unicode="&#x315;" 
d="M-119 1155l119 379h117l-144 -379h-92z" />
    <glyph glyph-name="uni031B" unicode="&#x31b;" 
d="M0 975v82h84q81 0 121.5 36t40.5 99q0 60 -33 127l98 27q33 -79 33 -154q0 -99 -63.5 -158t-182.5 -59h-98z" />
    <glyph glyph-name="dotbelowcomb" unicode="&#x323;" 
d="M0 -377q-32 0 -58 24.5t-26 59.5t26 59.5t58 24.5t58 -24.5t26 -59.5t-26 -59.5t-58 -24.5z" />
    <glyph glyph-name="uni0324" unicode="&#x324;" 
d="M-184 -436q-37 0 -62.5 27t-25.5 63q0 35 25.5 61.5t62.5 26.5q36 0 61 -26.5t25 -61.5q0 -36 -25 -63t-61 -27zM184 -436q-36 0 -61 27t-25 63q0 35 25 61.5t61 26.5q37 0 62.5 -26.5t25.5 -61.5q0 -36 -25.5 -63t-62.5 -27z" />
    <glyph glyph-name="uni0325" unicode="&#x325;" 
d="M0 -543q-81 0 -139 56.5t-58 138.5t58 138t139 56t139 -56t58 -138t-58 -138.5t-139 -56.5zM0 -481q56 0 94.5 38.5t38.5 94.5t-38.5 94.5t-94.5 38.5t-94.5 -38.5t-38.5 -94.5t38.5 -94.5t94.5 -38.5z" />
    <glyph glyph-name="uni0326" unicode="&#x326;" 
d="M-104 -471l120 379h117l-145 -379h-92z" />
    <glyph glyph-name="uni0327" unicode="&#x327;" 
d="M-25 -469q-103 0 -190 41l27 63q65 -32 155 -32q31 0 62.5 8t58.5 32t27 60q0 45 -34 66.5t-89 21.5q-57 0 -105 -20l-30 26l131 203h73l-102 -160q31 10 82 10q68 0 120 -37.5t52 -107.5q0 -48 -22.5 -83.5t-59 -54.5t-75.5 -27.5t-81 -8.5z" />
    <glyph glyph-name="uni0328" unicode="&#x328;" 
d="M2 -457q-74 0 -127 48t-53 124q0 75 50.5 144.5t133.5 140.5h82q-91 -94 -128.5 -148t-37.5 -112q0 -48 32 -78.5t79 -30.5q70 0 114 50l35 -66q-75 -72 -180 -72z" />
    <glyph glyph-name="uni0330" unicode="&#x330;" 
d="M-305 -489q13 85 54.5 138.5t113.5 53.5q45 0 144.5 -48t131.5 -48q72 0 94 100h72q-13 -85 -53.5 -137.5t-112.5 -52.5q-46 0 -144.5 48t-131.5 48q-74 0 -96 -102h-72z" />
    <glyph glyph-name="uni0331" unicode="&#x331;" 
d="M-264 -438v90h528v-90h-528z" />
    <glyph glyph-name="uni0335" unicode="&#x335;" 
d="M-215 457v94h430v-94h-430z" />
    <glyph glyph-name="uni0336" unicode="&#x336;" 
d="M-553 457v94h1106v-94h-1106z" />
    <glyph glyph-name="uni0337" unicode="&#x337;" 
d="M-338 199l-47 82l725 417l45 -82z" />
    <glyph glyph-name="uni0338" unicode="&#x338;" 
d="M-465 -176l-72 59l1004 1194l70 -59z" />
    <glyph glyph-name="uni0374" unicode="&#x374;" horiz-adv-x="487" 
d="M139 1114l111 377h141l-162 -377h-90z" />
    <glyph glyph-name="uni0375" unicode="&#x375;" horiz-adv-x="487" 
d="M139 -336l162 377h90l-110 -377h-142z" />
    <glyph glyph-name="uni037E" unicode="&#x37e;" horiz-adv-x="602" 
d="M301 776q-39 0 -65.5 27.5t-26.5 64.5q0 39 26.5 67t65.5 28t65.5 -28t26.5 -67q0 -37 -26.5 -64.5t-65.5 -27.5zM133 -285l131 478h121l-156 -478h-96z" />
    <glyph glyph-name="tonos" unicode="&#x384;" horiz-adv-x="489" 
d="M139 1155l105 295h147l-158 -295h-94z" />
    <glyph glyph-name="dieresistonos" unicode="&#x385;" horiz-adv-x="598" 
d="M207 1155l59 295h137l-116 -295h-80zM61 1223q-38 0 -63 26t-25 62t25.5 63t62.5 27q36 0 61 -27t25 -63t-25 -62t-61 -26zM539 1223q-38 0 -63 26t-25 62t25.5 63t62.5 27q36 0 61 -27t25 -63t-25 -62t-61 -26z" />
    <glyph glyph-name="Alphatonos" unicode="&#x386;" horiz-adv-x="1413" 
d="M25 0l628 1450h117l616 -1450h-129l-163 391h-777l-163 -391h-129zM137 1155l105 295h147l-158 -295h-94zM360 498h691l-342 829z" />
    <glyph glyph-name="anoteleia" unicode="&#x387;" horiz-adv-x="520" 
d="M260 514q-39 0 -65.5 27.5t-26.5 64.5q0 38 26.5 66t65.5 28t65.5 -28t26.5 -66q0 -37 -26.5 -64.5t-65.5 -27.5z" />
    <glyph glyph-name="Epsilontonos" unicode="&#x388;" horiz-adv-x="1210" 
d="M-203 1155l105 295h147l-158 -295h-94zM201 0v1450h882v-104h-768v-541h719v-103h-719v-598h795v-104h-909z" />
    <glyph glyph-name="Etatonos" unicode="&#x389;" horiz-adv-x="1478" 
d="M-203 1155l105 295h147l-158 -295h-94zM201 0v1450h116v-643h846v643h117v-1450h-117v698h-846v-698h-116z" />
    <glyph glyph-name="Iotatonos" unicode="&#x38a;" horiz-adv-x="516" 
d="M-203 1155l105 295h147l-158 -295h-94zM201 0v1450h116v-1450h-116z" />
    <glyph glyph-name="Omicrontonos" unicode="&#x38c;" horiz-adv-x="1755" 
d="M877 -39q-212 0 -384 98t-270 273t-98 393t98 393t270 273t384 98q160 0 299.5 -57.5t239 -158t157 -243t57.5 -305.5t-57.5 -305.5t-157 -243t-239 -158t-299.5 -57.5zM-90 1155l104 295h148l-158 -295h-94zM877 66q114 0 214 34t175.5 95t130 143t82.5 181t28 206
q0 180 -76 329t-221.5 239.5t-332.5 90.5q-140 0 -259 -52.5t-199.5 -142.5t-125.5 -210t-45 -254q0 -180 75.5 -329t220.5 -239.5t333 -90.5z" />
    <glyph glyph-name="Upsilontonos" unicode="&#x38e;" horiz-adv-x="1193" 
d="M-328 1155l105 295h147l-157 -295h-95zM539 0v627l-531 823h146l446 -723l449 723h135l-529 -823v-627h-116z" />
    <glyph glyph-name="Omegatonos" unicode="&#x38f;" horiz-adv-x="1585" 
d="M152 0v96h399v193q-186 53 -292.5 209t-106.5 356q0 132 51.5 248.5t138.5 198.5t204.5 129t246.5 47t246.5 -47t204 -128.5t137.5 -198t51 -247.5q0 -202 -106 -358t-294 -209v-193h400v-96h-488v358q182 33 280.5 168t98.5 326q0 149 -70.5 269.5t-192 187.5t-269.5 67
q-146 0 -267.5 -67t-192.5 -187.5t-71 -269.5q0 -192 98.5 -328t280.5 -166v-358h-487zM-102 1155l104 295h148l-158 -295h-94z" />
    <glyph glyph-name="iotadieresistonos" unicode="&#x390;" horiz-adv-x="626" 
d="M199 1155l59 295h137l-116 -295h-80zM53 1223q-38 0 -63 26t-25 62t25.5 63t62.5 27q36 0 61 -27t25 -63t-25 -62t-61 -26zM530 1223q-38 0 -63 26t-25 62t25.5 63t62.5 27q36 0 61 -27t25 -63t-25 -62t-61 -26zM414 -16q-45 0 -84.5 12.5t-74.5 39t-55 75.5t-20 116v727
h113v-698q0 -99 39.5 -137.5t111.5 -38.5q61 0 115 26l6 -96q-69 -26 -151 -26z" />
    <glyph glyph-name="Alpha" unicode="&#x391;" horiz-adv-x="1413" 
d="M25 0l628 1450h117l616 -1450h-129l-163 391h-777l-163 -391h-129zM360 498h691l-342 829z" />
    <glyph glyph-name="Beta" unicode="&#x392;" horiz-adv-x="1288" 
d="M201 0v1450h420q70 0 133 -10t124.5 -36t106 -66t71.5 -104.5t27 -146.5q0 -122 -75 -207t-193 -112v-4q142 -15 240 -111t98 -256q0 -190 -144 -293.5t-374 -103.5h-434zM317 807h312q63 0 120 14.5t107 45t79.5 85t29.5 127.5q0 72 -29 126t-81 84.5t-116 45.5t-141 15
h-281v-543zM317 100h306q87 0 159.5 17t130 52.5t89.5 94.5t32 137q0 153 -106 230.5t-281 77.5h-330v-609z" />
    <glyph glyph-name="Gamma" unicode="&#x393;" horiz-adv-x="1107" 
d="M201 0v1450h819v-104h-703v-1346h-116z" />
    <glyph glyph-name="uni0394" unicode="&#x394;" horiz-adv-x="1363" 
d="M45 0l571 1450h125l582 -1450h-1278zM193 100h974l-489 1241z" />
    <glyph glyph-name="Epsilon" unicode="&#x395;" horiz-adv-x="1210" 
d="M201 0v1450h882v-104h-768v-541h719v-103h-719v-598h795v-104h-909z" />
    <glyph glyph-name="Zeta" unicode="&#x396;" horiz-adv-x="1185" 
d="M78 0v102l878 1244h-856v104h998v-104l-877 -1242h893v-104h-1036z" />
    <glyph glyph-name="Eta" unicode="&#x397;" horiz-adv-x="1478" 
d="M201 0v1450h116v-643h846v643h117v-1450h-117v698h-846v-698h-116z" />
    <glyph glyph-name="Theta" unicode="&#x398;" horiz-adv-x="1755" 
d="M877 -39q-212 0 -384 98t-270 273t-98 393t98 393t270 273t384 98q160 0 299.5 -57.5t239 -158t157 -243t57.5 -305.5t-57.5 -305.5t-157 -243t-239 -158t-299.5 -57.5zM877 66q114 0 214 34t175.5 95t130 143t82.5 181t28 206q0 180 -76 329t-221.5 239.5t-332.5 90.5
q-140 0 -259 -52.5t-199.5 -142.5t-125.5 -210t-45 -254q0 -180 75.5 -329t220.5 -239.5t333 -90.5zM455 684v96h852v-96h-852z" />
    <glyph glyph-name="Iota" unicode="&#x399;" horiz-adv-x="516" 
d="M201 0v1450h116v-1450h-116z" />
    <glyph glyph-name="Kappa" unicode="&#x39a;" horiz-adv-x="1247" 
d="M201 0v1450h116v-655l703 655h168l-733 -659l772 -791h-170l-740 774v-774h-116z" />
    <glyph glyph-name="Lambda" unicode="&#x39b;" horiz-adv-x="1400" 
d="M25 0l608 1450h117l596 -1450h-129l-529 1327l-534 -1327h-129z" />
    <glyph glyph-name="Mu" unicode="&#x39c;" horiz-adv-x="1826" 
d="M201 0v1450h180l534 -1255l531 1255h180v-1450h-117v1300h-4l-559 -1300h-65l-559 1300h-5v-1300h-116z" />
    <glyph glyph-name="Nu" unicode="&#x39d;" horiz-adv-x="1572" 
d="M201 0v1450h147l903 -1282h4v1282h117v-1450h-147l-903 1290h-5v-1290h-116z" />
    <glyph glyph-name="Xi" unicode="&#x39e;" horiz-adv-x="1267" 
d="M102 1341v109h1063v-109h-1063zM195 698v105h878v-105h-878zM102 0v109h1063v-109h-1063z" />
    <glyph glyph-name="Omicron" unicode="&#x39f;" horiz-adv-x="1755" 
d="M877 -39q-212 0 -384 98t-270 273t-98 393t98 393t270 273t384 98q160 0 299.5 -57.5t239 -158t157 -243t57.5 -305.5t-57.5 -305.5t-157 -243t-239 -158t-299.5 -57.5zM877 66q114 0 214 34t175.5 95t130 143t82.5 181t28 206q0 180 -76 329t-221.5 239.5t-332.5 90.5
q-140 0 -259 -52.5t-199.5 -142.5t-125.5 -210t-45 -254q0 -180 75.5 -329t220.5 -239.5t333 -90.5z" />
    <glyph glyph-name="Pi" unicode="&#x3a0;" horiz-adv-x="1458" 
d="M201 0v1450h1059v-1450h-117v1346h-826v-1346h-116z" />
    <glyph glyph-name="Rho" unicode="&#x3a1;" horiz-adv-x="1183" 
d="M201 0v1450h403q103 0 188 -22.5t150.5 -67t102 -118.5t36.5 -171q0 -186 -129 -285.5t-342 -99.5h-293v-686h-116zM317 784h287q166 0 263.5 73t97.5 214t-98.5 210t-264.5 69h-285v-566z" />
    <glyph glyph-name="Sigma" unicode="&#x3a3;" horiz-adv-x="1189" 
d="M82 0v104l471 664l-453 573v109h998v-104h-856l452 -572l-473 -670h897v-104h-1036z" />
    <glyph glyph-name="Tau" unicode="&#x3a4;" horiz-adv-x="1148" 
d="M516 0v1346h-487v104h1091v-104h-487v-1346h-117z" />
    <glyph glyph-name="Upsilon" unicode="&#x3a5;" horiz-adv-x="1193" 
d="M539 0v627l-531 823h146l446 -723l449 723h135l-529 -823v-627h-116z" />
    <glyph glyph-name="Phi" unicode="&#x3a6;" horiz-adv-x="1744" 
d="M813 -68v117q-147 4 -266 43t-199 103t-134.5 150.5t-78.5 183t-24 204.5q0 101 22.5 193.5t75 180t131.5 152.5t200.5 106t272.5 46v119h117v-119q145 -4 263.5 -42.5t199 -102t136 -149t80.5 -181.5t25 -203q0 -101 -22 -194t-74.5 -181t-131 -153.5t-201 -107.5
t-275.5 -48v-117h-117zM813 152v1159q-280 -10 -431 -162t-151 -416q0 -270 151 -420t431 -161zM930 152q275 9 428 157.5t153 423.5q0 263 -148.5 415.5t-432.5 162.5v-1159z" />
    <glyph glyph-name="Chi" unicode="&#x3a7;" horiz-adv-x="1271" 
d="M47 0l514 762l-463 688h144l393 -604l395 604h137l-462 -688l520 -762h-150l-442 672l-440 -672h-146z" />
    <glyph glyph-name="Psi" unicode="&#x3a8;" horiz-adv-x="1611" 
d="M748 0v258q-162 0 -281 38t-187.5 107t-100.5 156.5t-32 196.5v694h117v-676q0 -412 484 -412v1088h116v-1088q484 0 484 412v676h116v-694q0 -83 -17 -153t-60 -135t-109.5 -110.5t-172 -72.5t-241.5 -27v-258h-116z" />
    <glyph glyph-name="uni03A9" unicode="&#x3a9;" horiz-adv-x="1519" 
d="M109 0v96h399v193q-186 53 -292.5 209t-106.5 356q0 132 51.5 248.5t138.5 198.5t204.5 129t246.5 47t246.5 -47t204 -128.5t137.5 -198t51 -247.5q0 -202 -106 -358t-294 -209v-193h400v-96h-488v358q182 33 280.5 168t98.5 326q0 149 -70.5 269.5t-192 187.5t-269.5 67
q-146 0 -267.5 -67t-192.5 -187.5t-71 -269.5q0 -192 98.5 -328t280.5 -166v-358h-487z" />
    <glyph glyph-name="Iotadieresis" unicode="&#x3aa;" horiz-adv-x="516" 
d="M74 1653q-37 0 -62.5 27t-25.5 63q0 35 25.5 61.5t62.5 26.5q36 0 61 -26.5t25 -61.5q0 -36 -25 -63t-61 -27zM442 1653q-36 0 -61 27t-25 63q0 35 25 61.5t61 26.5q37 0 62.5 -26.5t25.5 -61.5q0 -36 -25.5 -63t-62.5 -27zM201 0v1450h116v-1450h-116z" />
    <glyph glyph-name="Upsilondieresis" unicode="&#x3ab;" horiz-adv-x="1193" 
d="M416 1653q-37 0 -62.5 27t-25.5 63q0 35 25.5 61.5t62.5 26.5q36 0 61 -26.5t25 -61.5q0 -36 -25 -63t-61 -27zM784 1653q-36 0 -61 27t-25 63q0 35 25 61.5t61 26.5q37 0 62.5 -26.5t25.5 -61.5q0 -36 -25.5 -63t-62.5 -27zM539 0v627l-531 823h146l446 -723l449 723
h135l-529 -823v-627h-116z" />
    <glyph glyph-name="alphatonos" unicode="&#x3ac;" horiz-adv-x="1400" 
d="M590 1155l104 295h148l-158 -295h-94zM600 -27q-141 0 -252 67.5t-170 182t-59 254.5q0 139 59 253t169.5 181.5t252.5 67.5q99 0 180 -30t133.5 -81t84.5 -110.5t44 -124.5h5l98 321h117l-179 -532l56 -197q26 -92 48.5 -118.5t63.5 -26.5q29 0 56 10l6 -90
q-32 -16 -86 -16q-75 0 -109.5 41t-68.5 155l-25 80h-4q-42 -119 -153 -203t-267 -84zM600 70q110 0 197.5 56.5t133.5 149t46 201.5q0 106 -43.5 197.5t-131 150t-202.5 58.5q-159 0 -261.5 -116t-102.5 -290q0 -184 106.5 -295.5t257.5 -111.5z" />
    <glyph glyph-name="epsilontonos" unicode="&#x3ad;" horiz-adv-x="1009" 
d="M522 1155l105 295h147l-158 -295h-94zM520 -27q-194 0 -296.5 74t-102.5 203q0 101 57.5 164.5t151.5 79.5v4q-170 47 -170 207q0 133 104.5 203.5t282.5 70.5q110 0 204 -24t152 -68l-57 -80q-109 78 -307 78q-131 0 -197 -46.5t-66 -131.5q0 -86 60.5 -124t193.5 -38
h201v-94h-219q-272 0 -272 -187q0 -94 75.5 -144t216.5 -50q105 0 182.5 29t145.5 96l72 -66q-71 -81 -169 -118.5t-243 -37.5z" />
    <glyph glyph-name="etatonos" unicode="&#x3ae;" horiz-adv-x="1191" 
d="M518 1155l105 295h147l-158 -295h-94zM899 -492v1033q0 346 -270 346q-132 0 -225 -106.5t-93 -295.5v-485h-110v735q0 137 -15 219h105q16 -71 16 -209h4q43 112 137 173t207 61q177 0 266 -109.5t89 -287.5v-1074h-111z" />
    <glyph glyph-name="iotatonos" unicode="&#x3af;" horiz-adv-x="626" 
d="M199 1155l104 295h148l-158 -295h-94zM414 -16q-45 0 -84.5 12.5t-74.5 39t-55 75.5t-20 116v727h113v-698q0 -99 39.5 -137.5t111.5 -38.5q61 0 115 26l6 -96q-69 -26 -151 -26z" />
    <glyph glyph-name="upsilondieresistonos" unicode="&#x3b0;" horiz-adv-x="1157" 
d="M496 1155l59 295h137l-117 -295h-79zM350 1223q-38 0 -63 26t-25 62t25.5 63t62.5 27q36 0 61 -27t25 -63t-25 -62t-61 -26zM827 1223q-38 0 -63 26t-25 62t25.5 63t62.5 27q36 0 61 -27t25 -63t-25 -62t-61 -26zM578 -27q-53 0 -99 8t-92.5 25.5t-82.5 49.5t-64.5 76.5
t-44 110t-15.5 146.5v565h113v-548q0 -71 14 -128.5t45 -105.5t88.5 -75t137.5 -27q63 0 113.5 16t83.5 41t57.5 63t37 74.5t20 84t9.5 82t2 77.5q0 243 -90 446h121q86 -198 86 -434q0 -265 -108.5 -406t-331.5 -141z" />
    <glyph glyph-name="alpha" unicode="&#x3b1;" horiz-adv-x="1400" 
d="M600 -27q-141 0 -252 67.5t-170 182t-59 254.5q0 139 59 253t169.5 181.5t252.5 67.5q99 0 180 -30t133.5 -81t84.5 -110.5t44 -124.5h5l98 321h117l-179 -532l56 -197q26 -92 48.5 -118.5t63.5 -26.5q29 0 56 10l6 -90q-32 -16 -86 -16q-75 0 -109.5 41t-68.5 155
l-25 80h-4q-42 -119 -153 -203t-267 -84zM600 70q110 0 197.5 56.5t133.5 149t46 201.5q0 106 -43.5 197.5t-131 150t-202.5 58.5q-159 0 -261.5 -116t-102.5 -290q0 -184 106.5 -295.5t257.5 -111.5z" />
    <glyph glyph-name="beta" unicode="&#x3b2;" horiz-adv-x="1296" 
d="M193 -492v1547q0 88 14 162.5t47.5 141t85.5 113.5t131 74t180 27q104 0 185.5 -30.5t131.5 -83t75.5 -119t25.5 -142.5q0 -123 -63 -206t-156 -111v-4q166 -38 247 -152.5t81 -278.5q0 -128 -56.5 -235.5t-164 -172.5t-244.5 -65q-140 0 -246 62t-158 153h-6v-680h-110z
M707 70q154 0 256 101t102 267q0 105 -32.5 179.5t-93 116t-135.5 59.5t-171 18h-170v96h162q161 0 245 73.5t84 213.5q0 136 -84 210.5t-227 74.5q-340 0 -340 -430v-545q0 -108 35.5 -193.5t94.5 -136.5t129 -77.5t145 -26.5z" />
    <glyph glyph-name="gamma" unicode="&#x3b3;" horiz-adv-x="1118" 
d="M543 -420v371l-285 721q-50 127 -83 161t-109 35l16 101q99 0 152 -32.5t90 -129.5l272 -707h6l356 854h115l-420 -997v-377h-110z" />
    <glyph glyph-name="delta" unicode="&#x3b4;" horiz-adv-x="1212" 
d="M602 -27q-129 0 -237.5 58t-177 173.5t-68.5 266.5q0 204 114 342.5t328 155.5v4q-254 111 -254 295q0 49 12.5 92.5t41.5 83t72.5 68t110 45t150.5 16.5q204 0 338 -74l-47 -92q-122 68 -289 68q-142 0 -208 -56t-66 -145q0 -83 58.5 -139t219.5 -125
q201 -85 297.5 -208t96.5 -323q0 -118 -40.5 -215.5t-109.5 -160t-157 -96.5t-185 -34zM602 70q116 0 204 57t132.5 149.5t44.5 204.5q0 96 -31.5 175.5t-84 130t-119 78.5t-138.5 28q-121 0 -209 -60t-129 -152t-41 -202q0 -174 103 -291.5t268 -117.5z" />
    <glyph glyph-name="epsilon" unicode="&#x3b5;" horiz-adv-x="1009" 
d="M520 -27q-194 0 -296.5 74t-102.5 203q0 101 57.5 164.5t151.5 79.5v4q-170 47 -170 207q0 133 104.5 203.5t282.5 70.5q110 0 204 -24t152 -68l-57 -80q-109 78 -307 78q-131 0 -197 -46.5t-66 -131.5q0 -86 60.5 -124t193.5 -38h201v-94h-219q-272 0 -272 -187
q0 -94 75.5 -144t216.5 -50q105 0 182.5 29t145.5 96l72 -66q-71 -81 -169 -118.5t-243 -37.5z" />
    <glyph glyph-name="zeta" unicode="&#x3b6;" horiz-adv-x="917" 
d="M535 -442v98q260 13 260 186q0 75 -46 116.5t-184 84.5q-91 28 -151.5 52t-125.5 64t-103 87t-62.5 119t-24.5 163q0 260 170.5 503t456.5 413v4h-557v100h731v-102q-327 -187 -505.5 -417.5t-178.5 -493.5q0 -83 22.5 -143.5t73 -105.5t115.5 -76.5t166 -64.5
q173 -56 241 -119.5t68 -185.5q0 -129 -98.5 -204t-267.5 -78z" />
    <glyph glyph-name="eta" unicode="&#x3b7;" horiz-adv-x="1191" 
d="M899 -492v1033q0 346 -270 346q-132 0 -225 -106.5t-93 -295.5v-485h-110v735q0 137 -15 219h105q16 -71 16 -209h4q43 112 137 173t207 61q177 0 266 -109.5t89 -287.5v-1074h-111z" />
    <glyph glyph-name="theta" unicode="&#x3b8;" horiz-adv-x="1257" 
d="M629 -27q-116 0 -206 46.5t-155 142t-99 250.5t-34 364q0 138 15 253.5t51 218t92 173t141 111.5t195 41q251 0 372 -206.5t121 -590.5q0 -803 -493 -803zM248 834h762q-2 142 -24 256.5t-66.5 203t-118 137t-172.5 48.5q-84 0 -149 -35t-107.5 -94t-70.5 -143.5
t-40 -175t-14 -197.5zM629 70q185 0 281.5 168.5t99.5 492.5h-762q4 -342 104 -501.5t277 -159.5z" />
    <glyph glyph-name="iota" unicode="&#x3b9;" horiz-adv-x="626" 
d="M414 -16q-45 0 -84.5 12.5t-74.5 39t-55 75.5t-20 116v727h113v-698q0 -99 39.5 -137.5t111.5 -38.5q61 0 115 26l6 -96q-69 -26 -151 -26z" />
    <glyph glyph-name="kappa" unicode="&#x3ba;" horiz-adv-x="1124" 
d="M188 0v954h111v-555h6l424 463q52 56 94.5 81.5t87.5 25.5q37 0 80 -15l-26 -96q-24 6 -45 6q-30 0 -62.5 -21t-83.5 -75l-153 -166l430 -602h-140l-368 518l-244 -264v-254h-111z" />
    <glyph glyph-name="lambda" unicode="&#x3bb;" horiz-adv-x="1165" 
d="M1057 -16q-99 0 -146 125l-288 786h-5l-430 -895h-125l510 1026l-112 303q-30 81 -57.5 112.5t-71.5 31.5q-26 0 -60 -9l-14 92q66 17 104 17q70 0 116 -48t89 -165l449 -1221q20 -59 71 -59q20 0 41 8l7 -90q-47 -14 -78 -14z" />
    <glyph glyph-name="uni03BC" unicode="&#x3bc;" horiz-adv-x="1232" 
d="M193 -492v1446h106v-540q0 -170 61 -256t211 -86q143 0 235.5 112.5t92.5 319.5v450h109v-766q0 -65 15 -90.5t54 -25.5q33 0 70 16l12 -86q-36 -20 -96 -20q-81 0 -122.5 39.5t-41.5 142.5v18h-4q-47 -93 -140 -151t-208 -58q-160 0 -248 95v-560h-106z" />
    <glyph glyph-name="nu" unicode="&#x3bd;" horiz-adv-x="976" 
d="M414 0l-377 954h125l319 -854h11l157 357q84 189 109.5 279.5t25.5 217.5h115q0 -126 -28.5 -221.5t-100.5 -255.5l-215 -477h-141z" />
    <glyph glyph-name="xi" unicode="&#x3be;" horiz-adv-x="1019" 
d="M573 -442v98q127 6 194 53.5t67 130.5t-53.5 119t-218.5 91q-10 3 -15 5q-243 81 -336.5 180t-93.5 259q0 136 78.5 237t218.5 137v6q-109 28 -167.5 101.5t-58.5 183.5q0 223 207 285v4h-225v100h793v-102h-148q-195 0 -310 -30t-164.5 -90.5t-49.5 -160.5
q0 -58 19.5 -100.5t52.5 -69t83 -42t103 -21.5t121 -6h202v-107h-200q-122 0 -210 -24.5t-138.5 -70.5t-73.5 -103t-23 -129q0 -56 16 -100.5t43.5 -77.5t75.5 -62.5t101 -51.5t131 -48q99 -33 158 -59.5t105 -62.5t64.5 -80t18.5 -106q0 -134 -98.5 -208.5t-268.5 -77.5z
" />
    <glyph glyph-name="omicron" unicode="&#x3bf;" horiz-adv-x="1247" 
d="M623 -27q-221 0 -362.5 142.5t-141.5 361.5t141.5 360.5t362.5 141.5q222 0 363.5 -141.5t141.5 -360.5t-141.5 -361.5t-363.5 -142.5zM623 70q176 0 282.5 116t106.5 291t-106.5 292.5t-282.5 117.5q-174 0 -280.5 -117.5t-106.5 -292.5q0 -174 106 -290.5t281 -116.5z
" />
    <glyph glyph-name="pi" unicode="&#x3c0;" horiz-adv-x="1148" 
d="M961 -12q-83 0 -128 45.5t-45 159.5v663h-405l-143 -856h-105l144 856h-226v98h1055v-98h-215v-655q0 -57 19 -84t67 -27q33 0 80 14l12 -96q-45 -20 -110 -20z" />
    <glyph glyph-name="rho" unicode="&#x3c1;" horiz-adv-x="1265" 
d="M162 -492v959q0 229 135.5 370.5t355.5 141.5q100 0 183 -29.5t139.5 -79t96 -115t57.5 -135.5t18 -143q0 -216 -135 -360t-346 -144q-121 0 -224.5 57.5t-160.5 157.5h-7v-680h-112zM649 70q175 0 278 116.5t103 290.5q0 112 -44.5 204t-132.5 149t-204 57
q-170 0 -278.5 -117.5t-108.5 -292.5q0 -173 110 -290t277 -117z" />
    <glyph glyph-name="sigma1" unicode="&#x3c2;" horiz-adv-x="1042" 
d="M553 -442v98q124 6 191 52.5t67 131.5q0 78 -51 121.5t-178 79.5q-89 25 -152 49.5t-126.5 63.5t-102 87t-62.5 118.5t-24 160.5q0 72 17.5 138.5t56 125t94.5 102t138 68.5t181 25q128 0 219.5 -30t165.5 -93l-65 -80q-127 105 -316 105q-82 0 -147.5 -22.5t-107 -58
t-69.5 -83t-39.5 -95t-11.5 -96.5q0 -81 25 -142.5t77.5 -105.5t117.5 -75t161 -60q164 -49 235 -115.5t71 -185.5q0 -132 -98.5 -206.5t-266.5 -77.5z" />
    <glyph glyph-name="sigma" unicode="&#x3c3;" horiz-adv-x="1294" 
d="M610 -27q-209 0 -350 138.5t-141 351.5q0 137 58 247.5t170.5 177t260.5 66.5h606v-98h-323v-4q91 -44 150 -147.5t59 -235.5q0 -224 -138.5 -360t-351.5 -136zM612 70q163 0 269 110.5t106 288.5q0 165 -102 278t-269 113q-89 0 -162.5 -32t-120.5 -86.5t-72 -124.5
t-25 -148q0 -173 104 -286t272 -113z" />
    <glyph glyph-name="tau" unicode="&#x3c4;" horiz-adv-x="1001" 
d="M690 -16q-142 0 -208 69.5t-66 184.5v618h-357v98h887v-98h-418v-606q0 -170 179 -170q88 0 155 26l6 -94q-74 -28 -178 -28z" />
    <glyph glyph-name="upsilon" unicode="&#x3c5;" horiz-adv-x="1157" 
d="M578 -27q-53 0 -99 8t-92.5 25.5t-82.5 49.5t-64.5 76.5t-44 110t-15.5 146.5v565h113v-548q0 -71 14 -128.5t45 -105.5t88.5 -75t137.5 -27q63 0 113.5 16t83.5 41t57.5 63t37 74.5t20 84t9.5 82t2 77.5q0 243 -90 446h121q86 -198 86 -434q0 -265 -108.5 -406
t-331.5 -141z" />
    <glyph glyph-name="phi" unicode="&#x3c6;" horiz-adv-x="1443" 
d="M666 -492v453q-172 1 -297 67.5t-187.5 182t-62.5 266.5q0 76 16.5 145.5t57 137.5t101.5 118t156.5 81.5t215.5 33.5v305h112v-305q117 -2 211 -32t156 -79.5t103 -116t59 -138.5t18 -150q0 -111 -35.5 -204t-102.5 -162.5t-172 -109t-237 -40.5v-453h-112zM666 59v834
q-99 -1 -176 -25.5t-124.5 -64.5t-78 -95.5t-42.5 -111.5t-12 -119q0 -198 112 -308t321 -110zM778 59q110 1 194 32t135.5 88t77 131.5t25.5 166.5q0 63 -12 119.5t-42.5 112t-78 95t-124.5 64t-175 25.5v-834z" />
    <glyph glyph-name="chi" unicode="&#x3c7;" horiz-adv-x="1130" 
d="M1028 -508q-101 0 -158 109l-286 546l-373 -639h-127l440 736l-266 506q-20 38 -31.5 55t-31 34.5t-45 23t-64.5 5.5l16 101q109 0 155 -30.5t97 -129.5l238 -459l336 604h127l-402 -702l318 -600q19 -33 37 -47.5t49 -14.5q15 0 47 7l6 -91q-41 -14 -82 -14z" />
    <glyph glyph-name="psi" unicode="&#x3c8;" horiz-adv-x="1458" 
d="M678 -492v451h-21q-115 1 -197.5 21t-148 68t-98.5 134.5t-33 212.5v559h113v-544q0 -87 15 -148t53 -109t108.5 -71t175.5 -23h33v1239h110v-1239h21q393 5 393 439q0 251 -90 456h121q86 -192 86 -456q0 -258 -131 -398t-383 -141h-17v-451h-110z" />
    <glyph glyph-name="omega" unicode="&#x3c9;" horiz-adv-x="1566" 
d="M487 -27q-161 0 -258.5 117.5t-97.5 337.5q0 168 52.5 307t129.5 236l101 -43q-166 -224 -166 -502q0 -68 14 -130t42 -113.5t75 -82t108 -30.5q115 0 177.5 83.5t62.5 247.5v338h113v-338q0 -93 20 -160t54.5 -103t74.5 -52t88 -16q111 0 176.5 95t65.5 261
q0 278 -166 502l100 43q76 -94 129.5 -234t53.5 -309q0 -121 -29.5 -211.5t-81 -142t-113.5 -76.5t-135 -25q-117 0 -191 67.5t-100 168.5h-4q-11 -41 -32.5 -79.5t-55.5 -75.5t-88 -59t-119 -22z" />
    <glyph glyph-name="iotadieresis" unicode="&#x3ca;" horiz-adv-x="626" 
d="M57 1243q-37 0 -62.5 27t-25.5 63q0 35 25.5 61.5t62.5 26.5q36 0 61 -26.5t25 -61.5q0 -36 -25 -63t-61 -27zM426 1243q-36 0 -61 27t-25 63q0 35 25 61.5t61 26.5q37 0 62.5 -26.5t25.5 -61.5q0 -36 -25.5 -63t-62.5 -27zM414 -16q-45 0 -84.5 12.5t-74.5 39t-55 75.5
t-20 116v727h113v-698q0 -99 39.5 -137.5t111.5 -38.5q61 0 115 26l6 -96q-69 -26 -151 -26z" />
    <glyph glyph-name="upsilondieresis" unicode="&#x3cb;" horiz-adv-x="1157" 
d="M375 1243q-37 0 -62.5 27t-25.5 63q0 35 25.5 61.5t62.5 26.5q36 0 61 -26.5t25 -61.5q0 -36 -25 -63t-61 -27zM743 1243q-36 0 -61 27t-25 63q0 35 25 61.5t61 26.5q37 0 62.5 -26.5t25.5 -61.5q0 -36 -25.5 -63t-62.5 -27zM578 -27q-53 0 -99 8t-92.5 25.5t-82.5 49.5
t-64.5 76.5t-44 110t-15.5 146.5v565h113v-548q0 -71 14 -128.5t45 -105.5t88.5 -75t137.5 -27q63 0 113.5 16t83.5 41t57.5 63t37 74.5t20 84t9.5 82t2 77.5q0 243 -90 446h121q86 -198 86 -434q0 -265 -108.5 -406t-331.5 -141z" />
    <glyph glyph-name="omicrontonos" unicode="&#x3cc;" horiz-adv-x="1247" 
d="M590 1155l104 295h148l-158 -295h-94zM623 -27q-221 0 -362.5 142.5t-141.5 361.5t141.5 360.5t362.5 141.5q222 0 363.5 -141.5t141.5 -360.5t-141.5 -361.5t-363.5 -142.5zM623 70q176 0 282.5 116t106.5 291t-106.5 292.5t-282.5 117.5q-174 0 -280.5 -117.5
t-106.5 -292.5q0 -174 106 -290.5t281 -116.5z" />
    <glyph glyph-name="upsilontonos" unicode="&#x3cd;" horiz-adv-x="1157" 
d="M518 1155l105 295h147l-158 -295h-94zM578 -27q-53 0 -99 8t-92.5 25.5t-82.5 49.5t-64.5 76.5t-44 110t-15.5 146.5v565h113v-548q0 -71 14 -128.5t45 -105.5t88.5 -75t137.5 -27q63 0 113.5 16t83.5 41t57.5 63t37 74.5t20 84t9.5 82t2 77.5q0 243 -90 446h121
q86 -198 86 -434q0 -265 -108.5 -406t-331.5 -141z" />
    <glyph glyph-name="omegatonos" unicode="&#x3ce;" horiz-adv-x="1566" 
d="M739 1155l105 295h147l-157 -295h-95zM487 -27q-161 0 -258.5 117.5t-97.5 337.5q0 168 52.5 307t129.5 236l101 -43q-166 -224 -166 -502q0 -68 14 -130t42 -113.5t75 -82t108 -30.5q115 0 177.5 83.5t62.5 247.5v338h113v-338q0 -93 20 -160t54.5 -103t74.5 -52t88 -16
q111 0 176.5 95t65.5 261q0 278 -166 502l100 43q76 -94 129.5 -234t53.5 -309q0 -121 -29.5 -211.5t-81 -142t-113.5 -76.5t-135 -25q-117 0 -191 67.5t-100 168.5h-4q-11 -41 -32.5 -79.5t-55.5 -75.5t-88 -59t-119 -22z" />
    <glyph glyph-name="uni0400" unicode="&#x400;" horiz-adv-x="1210" 
d="M649 1565l-258 295h148l206 -295h-96zM201 0v1450h882v-104h-768v-541h719v-103h-719v-598h795v-104h-909z" />
    <glyph glyph-name="uni0401" unicode="&#x401;" horiz-adv-x="1210" 
d="M463 1653q-37 0 -62.5 27t-25.5 63q0 35 25.5 61.5t62.5 26.5q36 0 61 -26.5t25 -61.5q0 -36 -25 -63t-61 -27zM831 1653q-36 0 -61 27t-25 63q0 35 25 61.5t61 26.5q37 0 63 -26.5t26 -61.5q0 -36 -26 -63t-63 -27zM201 0v1450h882v-104h-768v-541h719v-103h-719v-598
h795v-104h-909z" />
    <glyph glyph-name="uni0402" unicode="&#x402;" horiz-adv-x="1611" 
d="M999 -18q-85 0 -163 16l18 102q63 -14 135 -14q194 0 301 83t107 243q0 163 -108 249.5t-312 86.5q-97 0 -193.5 -15.5t-150.5 -36.5v-696h-117v1346h-487v104h1091v-104h-487v-543q60 17 162 31t188 14q250 0 390 -110.5t140 -323.5q0 -212 -138 -322t-376 -110z" />
    <glyph glyph-name="uni0403" unicode="&#x403;" horiz-adv-x="1030" 
d="M508 1565l207 295h147l-258 -295h-96zM201 0v1450h800v-104h-684v-1346h-116z" />
    <glyph glyph-name="uni0404" unicode="&#x404;" horiz-adv-x="1476" 
d="M874 -39q-215 0 -386.5 98.5t-267 273t-95.5 392.5q0 163 56.5 305.5t155.5 243t238 158t299 57.5q155 0 292 -58t214 -159l-94 -74q-61 80 -171.5 133t-237.5 53q-130 0 -242 -45t-191 -123.5t-129 -184t-63 -226.5h756v-103h-760v-8q5 -129 52 -243.5t126.5 -199.5
t196.5 -135t254 -50q134 0 251.5 53.5t192.5 159.5l90 -62q-82 -115 -222.5 -185.5t-314.5 -70.5z" />
    <glyph glyph-name="uni0405" unicode="&#x405;" horiz-adv-x="1159" 
d="M565 -39q-278 0 -438 209l82 72q151 -179 356 -179q65 0 125.5 20t110 57t79 95.5t29.5 129.5q0 68 -26 120t-70 85t-101 59t-120 47t-125.5 43.5t-119.5 53.5t-101 72t-70 105t-26 146q0 97 40 174t106.5 123.5t146.5 71t165 24.5q135 0 236.5 -47.5t161.5 -124.5
l-84 -76q-123 148 -320 148q-61 0 -119.5 -18.5t-107.5 -53t-79 -92t-30 -129.5q0 -67 26 -118.5t70 -83.5t101.5 -57.5t120.5 -46t126 -42t120.5 -52.5t101.5 -72t70 -105.5t26 -147.5q0 -101 -39.5 -181t-106 -129t-147.5 -74.5t-170 -25.5z" />
    <glyph glyph-name="uni0406" unicode="&#x406;" horiz-adv-x="516" 
d="M201 0v1450h116v-1450h-116z" />
    <glyph glyph-name="uni0407" unicode="&#x407;" horiz-adv-x="516" 
d="M74 1653q-37 0 -62.5 27t-25.5 63q0 35 25.5 61.5t62.5 26.5q36 0 61 -26.5t25 -61.5q0 -36 -25 -63t-61 -27zM442 1653q-36 0 -61 27t-25 63q0 35 25 61.5t61 26.5q37 0 62.5 -26.5t25.5 -61.5q0 -36 -25.5 -63t-62.5 -27zM201 0v1450h116v-1450h-116z" />
    <glyph glyph-name="uni0408" unicode="&#x408;" horiz-adv-x="999" 
d="M430 -37q-145 0 -246 76.5t-131 198.5l109 30q24 -89 92.5 -145.5t163.5 -56.5q76 0 131.5 28t86 78.5t44.5 111.5t14 136v1030h117v-1038q0 -68 -11 -129t-38.5 -120.5t-69.5 -103t-109.5 -70t-152.5 -26.5z" />
    <glyph glyph-name="uni0409" unicode="&#x409;" horiz-adv-x="2207" 
d="M131 -14q-71 0 -123 16l21 104q58 -14 86 -14q195 0 273.5 240.5t78.5 797.5v320h850v-639h293q145 0 255.5 -43.5t177 -137.5t66.5 -229q0 -136 -67.5 -228t-178.5 -132.5t-259 -40.5h-404v1348h-618v-269q0 -183 -9.5 -328t-30 -270t-55.5 -215t-84.5 -154t-117.5 -95
t-154 -31zM1317 100h274q183 0 291.5 73.5t108.5 225.5t-105 231t-284 79h-285v-609z" />
    <glyph glyph-name="uni040A" unicode="&#x40a;" horiz-adv-x="2168" 
d="M201 0v1450h116v-639h846v639h117v-639h291q108 0 198 -25.5t158 -74.5t106 -128.5t38 -181.5q0 -103 -38.5 -181t-107.5 -125.5t-159.5 -71t-200.5 -23.5h-402v709h-846v-709h-116zM1280 100h274q88 0 159 17t125.5 52t84 93.5t29.5 136.5q0 152 -105 231t-284 79h-283
v-609z" />
    <glyph glyph-name="uni040B" unicode="&#x40b;" horiz-adv-x="1611" 
d="M516 0v1346h-487v104h1091v-104h-487v-543q166 45 348 45q457 0 457 -375v-473h-117v463q0 132 -81 207t-255 75q-104 0 -200 -13.5t-152 -33.5v-698h-117z" />
    <glyph glyph-name="uni040C" unicode="&#x40c;" horiz-adv-x="1247" 
d="M575 1565l207 295h148l-258 -295h-97zM201 0v1450h116v-655l703 655h168l-733 -659l772 -791h-170l-740 774v-774h-116z" />
    <glyph glyph-name="uni040D" unicode="&#x40d;" horiz-adv-x="1509" 
d="M741 1565l-258 295h148l207 -295h-97zM201 0v1450h116v-1272h5l852 1272h137v-1450h-117v1280h-6l-852 -1280h-135z" />
    <glyph glyph-name="uni040E" unicode="&#x40e;" horiz-adv-x="1267" 
d="M643 1587q-120 0 -196.5 70t-90.5 186l78 15q15 -86 72 -133.5t137 -47.5t137 47.5t72 133.5l78 -15q-14 -116 -90.5 -186t-196.5 -70zM254 -14q-68 0 -117 12l21 108q44 -14 96 -14q70 0 121 39t96 123l109 201l-566 995h136l495 -877l479 877h129l-682 -1237
q-64 -114 -135.5 -170.5t-181.5 -56.5z" />
    <glyph glyph-name="uni040F" unicode="&#x40f;" horiz-adv-x="1472" 
d="M680 -365v365h-479v1450h116v-1346h840v1346h117v-1450h-481v-365h-113z" />
    <glyph glyph-name="uni0410" unicode="&#x410;" horiz-adv-x="1413" 
d="M25 0l628 1450h117l616 -1450h-129l-163 391h-777l-163 -391h-129zM360 498h691l-342 829z" />
    <glyph glyph-name="uni0411" unicode="&#x411;" horiz-adv-x="1273" 
d="M201 0v1450h839v-104h-723v-535h322q108 0 198 -25.5t158 -74.5t106 -128.5t38 -181.5q0 -103 -38.5 -181t-107.5 -125.5t-159.5 -71t-200.5 -23.5h-432zM317 100h306q119 0 205.5 29.5t139 98t52.5 171.5q0 152 -105 231t-284 79h-314v-609z" />
    <glyph glyph-name="uni0412" unicode="&#x412;" horiz-adv-x="1288" 
d="M201 0v1450h420q70 0 133 -10t124.5 -36t106 -66t71.5 -104.5t27 -146.5q0 -122 -75 -207t-193 -112v-4q142 -15 240 -111t98 -256q0 -190 -144 -293.5t-374 -103.5h-434zM317 807h312q63 0 120 14.5t107 45t79.5 85t29.5 127.5q0 72 -29 126t-81 84.5t-116 45.5t-141 15
h-281v-543zM317 100h306q87 0 159.5 17t130 52.5t89.5 94.5t32 137q0 153 -106 230.5t-281 77.5h-330v-609z" />
    <glyph glyph-name="uni0413" unicode="&#x413;" horiz-adv-x="1030" 
d="M201 0v1450h800v-104h-684v-1346h-116z" />
    <glyph glyph-name="uni0414" unicode="&#x414;" horiz-adv-x="1523" 
d="M35 -365v469h115q131 134 196.5 364t65.5 583v399h872v-1346h166v-469h-113v365h-1192v-365h-110zM297 104h870v1242h-641v-295q0 -666 -229 -947z" />
    <glyph glyph-name="uni0415" unicode="&#x415;" horiz-adv-x="1210" 
d="M201 0v1450h882v-104h-768v-541h719v-103h-719v-598h795v-104h-909z" />
    <glyph glyph-name="uni0416" unicode="&#x416;" horiz-adv-x="1929" 
d="M20 0l748 791l-709 659h168l678 -655v655h117v-655l680 655h168l-709 -659l748 -791h-170l-717 774v-774h-117v774l-715 -774h-170z" />
    <glyph glyph-name="uni0417" unicode="&#x417;" horiz-adv-x="1177" 
d="M541 -39q-139 0 -257.5 53t-199.5 152l80 70q156 -173 379 -173q154 0 264.5 93t110.5 243q0 79 -33.5 140t-92 97.5t-130.5 54.5t-154 18h-94v102h88q106 0 186.5 29t132 97t51.5 169q0 123 -96 203t-233 80q-102 0 -178 -36t-150 -110l-72 72q79 84 173.5 129t222.5 45
q202 0 323 -102.5t121 -284.5q0 -128 -76 -218.5t-194 -117.5v-4q139 -24 231 -121.5t92 -241.5q0 -132 -67.5 -233t-179 -153t-248.5 -52z" />
    <glyph glyph-name="uni0418" unicode="&#x418;" horiz-adv-x="1509" 
d="M201 0v1450h116v-1272h5l852 1272h137v-1450h-117v1280h-6l-852 -1280h-135z" />
    <glyph glyph-name="uni0419" unicode="&#x419;" horiz-adv-x="1509" 
d="M754 1587q-120 0 -196.5 70t-90.5 186l78 15q15 -86 72 -133.5t137 -47.5t137 47.5t72 133.5l77 -15q-14 -116 -90 -186t-196 -70zM201 0v1450h116v-1272h5l852 1272h137v-1450h-117v1280h-6l-852 -1280h-135z" />
    <glyph glyph-name="uni041A" unicode="&#x41a;" horiz-adv-x="1247" 
d="M201 0v1450h116v-655l703 655h168l-733 -659l772 -791h-170l-740 774v-774h-116z" />
    <glyph glyph-name="uni041B" unicode="&#x41b;" horiz-adv-x="1517" 
d="M131 -14q-71 0 -123 16l21 104q58 -14 86 -14q195 0 273.5 240.5t78.5 797.5v320h850v-1450h-117v1348h-618v-269q0 -183 -9.5 -328t-30 -270t-55.5 -215t-84.5 -154t-117.5 -95t-154 -31z" />
    <glyph glyph-name="uni041C" unicode="&#x41c;" horiz-adv-x="1826" 
d="M201 0v1450h180l534 -1255l531 1255h180v-1450h-117v1300h-4l-559 -1300h-65l-559 1300h-5v-1300h-116z" />
    <glyph glyph-name="uni041D" unicode="&#x41d;" horiz-adv-x="1478" 
d="M201 0v1450h116v-643h846v643h117v-1450h-117v698h-846v-698h-116z" />
    <glyph glyph-name="uni041E" unicode="&#x41e;" horiz-adv-x="1755" 
d="M877 -39q-212 0 -384 98t-270 273t-98 393t98 393t270 273t384 98q160 0 299.5 -57.5t239 -158t157 -243t57.5 -305.5t-57.5 -305.5t-157 -243t-239 -158t-299.5 -57.5zM877 66q188 0 333.5 91t221 240t75.5 328q0 180 -76 329t-221.5 239.5t-332.5 90.5
q-140 0 -259 -52.5t-199.5 -142.5t-125.5 -210t-45 -254q0 -133 44.5 -253t125 -210t199.5 -143t260 -53z" />
    <glyph glyph-name="uni041F" unicode="&#x41f;" horiz-adv-x="1472" 
d="M201 0v1450h1073v-1450h-117v1346h-840v-1346h-116z" />
    <glyph glyph-name="uni0420" unicode="&#x420;" horiz-adv-x="1183" 
d="M201 0v1450h403q104 0 189 -22t150.5 -67t101.5 -119t36 -171q0 -125 -61 -213.5t-166 -131t-244 -42.5h-293v-684h-116zM317 784h287q166 0 263.5 73t97.5 214t-98.5 210t-264.5 69h-285v-566z" />
    <glyph glyph-name="uni0421" unicode="&#x421;" horiz-adv-x="1476" 
d="M872 -39q-215 0 -386 98.5t-266 273t-95 392.5q0 163 56.5 305.5t155.5 243t238 158t299 57.5q159 0 290.5 -55t209.5 -156l-84 -78q-65 82 -175 133t-238 51q-188 0 -333 -90.5t-220.5 -239.5t-75.5 -329q0 -133 44.5 -253t124.5 -210t199.5 -143t260.5 -53
q135 0 242.5 48.5t201.5 164.5l80 -64q-194 -254 -529 -254z" />
    <glyph glyph-name="uni0422" unicode="&#x422;" horiz-adv-x="1148" 
d="M516 0v1346h-487v104h1091v-104h-487v-1346h-117z" />
    <glyph glyph-name="uni0423" unicode="&#x423;" horiz-adv-x="1267" 
d="M254 -14q-68 0 -117 12l21 108q44 -14 96 -14q70 0 121 39t96 123l109 201l-566 995h136l495 -877l479 877h129l-682 -1237q-64 -114 -135.5 -170.5t-181.5 -56.5z" />
    <glyph glyph-name="uni0424" unicode="&#x424;" horiz-adv-x="1685" 
d="M784 -39v174q-198 3 -350.5 78.5t-237.5 214t-85 320.5q0 280 186 441t487 169v131h117v-131q148 -4 271.5 -46t213 -118.5t139.5 -190.5t50 -255q0 -275 -185.5 -441.5t-488.5 -171.5v-174h-117zM784 238v1017q-257 -7 -404 -145t-147 -365q0 -230 146.5 -362.5
t404.5 -144.5zM901 238q258 12 405.5 145t147.5 362q0 227 -147.5 365t-405.5 145v-1017z" />
    <glyph glyph-name="uni0425" unicode="&#x425;" horiz-adv-x="1292" 
d="M47 0l526 762l-479 688h146l409 -606l408 606h137l-475 -690l526 -760h-145l-455 674l-452 -674h-146z" />
    <glyph glyph-name="uni0426" unicode="&#x426;" horiz-adv-x="1511" 
d="M1327 -365v365h-1126v1450h116v-1346h840v1346h117v-1346h164v-469h-111z" />
    <glyph glyph-name="uni0427" unicode="&#x427;" horiz-adv-x="1292" 
d="M975 0v618q-166 -45 -354 -45q-451 0 -451 375v502h117v-492q0 -131 80.5 -206.5t248.5 -75.5q110 0 207.5 13.5t151.5 33.5v727h117v-1450h-117z" />
    <glyph glyph-name="uni0428" unicode="&#x428;" horiz-adv-x="2168" 
d="M201 0v1450h116v-1346h709v1346h117v-1346h708v1346h117v-1450h-1767z" />
    <glyph glyph-name="uni0429" unicode="&#x429;" horiz-adv-x="2207" 
d="M2023 -365v365h-1822v1450h116v-1346h709v1346h117v-1346h708v1346h117v-1346h166v-469h-111z" />
    <glyph glyph-name="uni042A" unicode="&#x42a;" horiz-adv-x="1419" 
d="M412 0v1346h-383v104h501v-639h291q108 0 198 -25.5t158 -74.5t106 -128.5t38 -181.5q0 -103 -38.5 -181t-107.5 -125.5t-159.5 -71t-200.5 -23.5h-403zM530 100h275q119 0 205.5 29.5t139 98t52.5 171.5q0 152 -105 231t-284 79h-283v-609z" />
    <glyph glyph-name="uni042B" unicode="&#x42b;" horiz-adv-x="1652" 
d="M201 0v1450h116v-639h291q108 0 198 -25.5t158 -74.5t106 -128.5t38 -181.5q0 -103 -38.5 -181t-107.5 -125.5t-159.5 -71t-200.5 -23.5h-401zM1335 0v1450h117v-1450h-117zM317 100h275q119 0 205.5 29.5t139 98t52.5 171.5q0 152 -105 231t-284 79h-283v-609z" />
    <glyph glyph-name="uni042C" unicode="&#x42c;" horiz-adv-x="1206" 
d="M201 0v1450h116v-639h291q108 0 198 -25.5t158 -74.5t106 -128.5t38 -181.5q0 -103 -38.5 -181t-107.5 -125.5t-159.5 -71t-200.5 -23.5h-401zM317 100h275q119 0 205.5 29.5t139 98t52.5 171.5q0 152 -105 231t-284 79h-283v-609z" />
    <glyph glyph-name="uni042D" unicode="&#x42d;" horiz-adv-x="1476" 
d="M602 -39q-173 0 -313.5 71t-222.5 185l90 62q75 -106 192.5 -159.5t251.5 -53.5q181 0 326 86t224 231t79 319h-760v103h756q-12 121 -62 226.5t-129 184t-191.5 123.5t-242.5 45q-126 0 -237.5 -53t-172.5 -133l-94 74q79 101 216 159t290 58q213 0 384.5 -98
t268.5 -273t97 -393q0 -164 -56.5 -305.5t-155 -242.5t-238 -158.5t-300.5 -57.5z" />
    <glyph glyph-name="uni042E" unicode="&#x42e;" horiz-adv-x="2162" 
d="M1341 -37q-151 0 -279.5 56.5t-218 155.5t-142 234.5t-56.5 292.5h-328v-702h-116v1450h116v-645h332q16 192 104.5 346t242 245t345.5 91q153 0 284.5 -59.5t221.5 -161.5t140.5 -241t50.5 -296q0 -215 -86 -389t-246 -275.5t-365 -101.5zM1341 68q133 0 243.5 54.5
t181.5 147t110 211t39 248.5q0 126 -39 243t-110.5 209.5t-182 147.5t-242.5 55q-107 0 -200 -36t-160.5 -98.5t-116 -145.5t-72.5 -178.5t-24 -196.5q0 -104 24 -201t72 -180.5t115.5 -146t160.5 -98t201 -35.5z" />
    <glyph glyph-name="uni042F" unicode="&#x42f;" horiz-adv-x="1226" 
d="M94 0l398 649q-170 26 -271.5 126.5t-101.5 273.5q0 103 38.5 181t107.5 125.5t159 71t199 23.5h403v-1450h-117v639h-291l-382 -639h-142zM627 741h282v609h-274q-182 0 -290.5 -73.5t-108.5 -225.5t106 -231t285 -79z" />
    <glyph glyph-name="uni0430" unicode="&#x430;" horiz-adv-x="1079" 
d="M446 -27q-58 0 -113.5 16.5t-104.5 49t-79 89.5t-30 130q0 59 18.5 106.5t49 80t77.5 57t97 39t114 23t121.5 11.5t126.5 3h72v43q0 133 -70 199.5t-201 66.5q-81 0 -155.5 -30.5t-128.5 -82.5l-62 74q61 60 155.5 95.5t201.5 35.5q165 0 265.5 -88.5t100.5 -257.5v-418
q0 -125 17 -215h-101q-16 98 -16 176h-4q-114 -203 -351 -203zM473 66q80 0 143 29.5t101.5 79t58 110t19.5 127.5v77h-72q-62 0 -113.5 -3t-111 -11t-104 -24t-82.5 -40t-58.5 -61.5t-20.5 -85.5q0 -54 21 -94t57 -61.5t76.5 -32t85.5 -10.5z" />
    <glyph glyph-name="uni0431" unicode="&#x431;" horiz-adv-x="1259" 
d="M637 -27q-249 0 -377 166q-61 69 -91 172.5t-30 270.5q0 110 3.5 191.5t14 171.5t29 154.5t50 127.5t76 104t107.5 70t144 39l307 37q71 9 113.5 29t56.5 65l80 -25q-19 -72 -69.5 -110t-147.5 -50l-293 -36q-106 -13 -176.5 -52.5t-115 -115.5t-64 -185.5t-21.5 -271.5
h7q64 127 175.5 189.5t252.5 62.5q140 0 249 -66.5t166.5 -180.5t57.5 -255q0 -218 -142 -360t-362 -142zM637 70q172 0 279.5 115t107.5 288q0 176 -105 293t-276 117t-280 -118.5t-109 -291.5q0 -174 106 -288.5t277 -114.5z" />
    <glyph glyph-name="uni0432" unicode="&#x432;" horiz-adv-x="1089" 
d="M193 0v954h428q59 0 109.5 -11.5t95.5 -37.5t71.5 -74.5t26.5 -115.5q0 -80 -48.5 -135.5t-125.5 -73.5v-2q93 -11 157 -74.5t64 -167.5q0 -125 -94.5 -193.5t-245.5 -68.5h-438zM305 543h311q50 0 93 14.5t74.5 52t31.5 92.5q0 82 -60.5 120t-156.5 38h-293v-317z
M305 96h309q108 0 175 42.5t67 131.5q0 90 -63 135.5t-164 45.5h-324v-355z" />
    <glyph glyph-name="uni0433" unicode="&#x433;" horiz-adv-x="858" 
d="M193 0v954h620v-94h-508v-860h-112z" />
    <glyph glyph-name="uni0434" unicode="&#x434;" horiz-adv-x="1226" 
d="M51 -313v409h113q70 89 115 243.5t45 356.5v258h673v-858h156v-409h-104v313h-893v-313h-105zM291 96h598v764h-457v-192q0 -339 -141 -572z" />
    <glyph glyph-name="uni0435" unicode="&#x435;" horiz-adv-x="1161" 
d="M602 -27q-209 0 -346 144t-137 362q0 215 136 357.5t337 142.5q109 0 196 -37.5t141.5 -102.5t83.5 -148.5t29 -178.5v-57h-809q3 -158 106.5 -271.5t266.5 -113.5q104 0 181.5 40t146.5 121l74 -59q-154 -199 -406 -199zM236 543h696q-6 154 -97 249t-245 95
q-77 0 -144 -31.5t-111 -81.5t-70 -110.5t-29 -120.5z" />
    <glyph glyph-name="uni0436" unicode="&#x436;" horiz-adv-x="1492" 
d="M27 0l526 500l-475 454h160l448 -450h4v450h113v-450h4l448 450h160l-475 -454l526 -500h-163l-496 485h-4v-485h-113v485h-4l-496 -485h-163z" />
    <glyph glyph-name="uni0437" unicode="&#x437;" horiz-adv-x="950" 
d="M461 -27q-255 0 -381 177l82 65q48 -68 125 -106.5t172 -38.5q108 0 182 49.5t74 148.5q0 91 -80.5 138t-202.5 47h-80v90h72q115 0 188.5 48t73.5 136q0 80 -64 120t-171 40q-76 0 -144.5 -35t-107.5 -96l-86 61q47 77 138.5 119.5t203.5 42.5q155 0 248.5 -66
t93.5 -186q0 -83 -56.5 -143.5t-146.5 -79.5v-4q103 -14 167 -77.5t64 -158.5q0 -134 -101 -212.5t-263 -78.5z" />
    <glyph glyph-name="uni0438" unicode="&#x438;" horiz-adv-x="1220" 
d="M193 0v954h112v-798l600 798h121v-954h-108v805h-5l-600 -805h-120z" />
    <glyph glyph-name="uni0439" unicode="&#x439;" horiz-adv-x="1220" 
d="M608 1178q-120 0 -196 70t-90 186l77 14q15 -86 72 -133t137 -47t137 47t72 133l78 -14q-14 -116 -90.5 -186t-196.5 -70zM193 0v954h112v-798l600 798h121v-954h-108v805h-5l-600 -805h-120z" />
    <glyph glyph-name="uni043A" unicode="&#x43a;" horiz-adv-x="1015" 
d="M197 0v954h110v-450h6l465 450h160l-498 -454l549 -500h-164l-512 485h-6v-485h-110z" />
    <glyph glyph-name="uni043B" unicode="&#x43b;" horiz-adv-x="1189" 
d="M119 -10q-54 0 -94 12l14 96q27 -10 63 -10q122 0 178 130.5t56 404.5v331h661v-954h-110v860h-443v-272q0 -137 -16 -241.5t-52.5 -187t-101 -126t-155.5 -43.5z" />
    <glyph glyph-name="uni043C" unicode="&#x43c;" horiz-adv-x="1474" 
d="M193 0v954h165l379 -790l381 790h162v-954h-111v825h-4l-399 -825h-59l-402 825v-825h-112z" />
    <glyph glyph-name="uni043D" unicode="&#x43d;" horiz-adv-x="1196" 
d="M193 0v954h112v-411h586v411h110v-954h-110v449h-586v-449h-112z" />
    <glyph glyph-name="uni043E" unicode="&#x43e;" horiz-adv-x="1247" 
d="M623 -27q-220 0 -362 143t-142 361q0 219 141.5 360.5t362.5 141.5q222 0 363.5 -141.5t141.5 -360.5q0 -218 -142 -361t-363 -143zM623 70q176 0 282.5 116t106.5 291t-106.5 292.5t-282.5 117.5q-174 0 -280.5 -117.5t-106.5 -292.5q0 -174 106 -290.5t281 -116.5z" />
    <glyph glyph-name="uni043F" unicode="&#x43f;" horiz-adv-x="1181" 
d="M193 0v954h794v-954h-110v860h-572v-860h-112z" />
    <glyph glyph-name="uni0440" unicode="&#x440;" horiz-adv-x="1294" 
d="M193 -492v1446h110v-190h6q59 106 160 160.5t219 54.5q217 0 353.5 -143t136.5 -359q0 -142 -59.5 -256.5t-171.5 -181t-255 -66.5q-118 0 -222.5 54t-160.5 157h-6v-676h-110zM678 70q175 0 278 116.5t103 290.5t-103.5 292t-277.5 118q-166 0 -275.5 -118.5
t-109.5 -291.5t109.5 -290t275.5 -117z" />
    <glyph glyph-name="uni0441" unicode="&#x441;" horiz-adv-x="1011" 
d="M612 -27q-222 0 -356.5 141.5t-134.5 362.5q0 218 137.5 360t355.5 142q103 0 192 -38t148 -112l-73 -67q-42 55 -115 88t-150 33q-170 0 -275 -116t-105 -290q0 -173 104 -288t272 -115t279 114l70 -63q-133 -152 -349 -152z" />
    <glyph glyph-name="uni0442" unicode="&#x442;" horiz-adv-x="903" 
d="M395 0v860h-352v94h815v-94h-352v-860h-111z" />
    <glyph glyph-name="uni0443" unicode="&#x443;" horiz-adv-x="962" 
d="M172 -494q-47 0 -113 15l15 100q43 -16 94 -16q69 0 111 44.5t75 129.5l82 215l-399 960h125l332 -839l311 839h121l-475 -1220q-45 -113 -109 -170.5t-170 -57.5z" />
    <glyph glyph-name="uni0444" unicode="&#x444;" horiz-adv-x="1435" 
d="M662 -492v465q-259 3 -406 136t-147 366q0 230 147.5 364.5t405.5 137.5v582h112v-582q258 -3 405.5 -137.5t147.5 -364.5q0 -233 -147 -366t-406 -136v-465h-112zM662 70v813q-207 -3 -322 -109.5t-115 -296.5q0 -196 113.5 -301.5t323.5 -105.5zM774 70
q210 0 323 105.5t113 301.5q0 191 -113.5 297t-322.5 109v-813z" />
    <glyph glyph-name="uni0445" unicode="&#x445;" horiz-adv-x="970" 
d="M41 0l375 496l-346 458h143l272 -381l273 381h135l-342 -454l381 -500h-146l-303 420l-309 -420h-133z" />
    <glyph glyph-name="uni0446" unicode="&#x446;" horiz-adv-x="1216" 
d="M1038 -313v313h-845v954h112v-858h572v858h110v-858h156v-409h-105z" />
    <glyph glyph-name="uni0447" unicode="&#x447;" horiz-adv-x="1075" 
d="M770 0v403q-145 -38 -293 -38q-319 0 -319 297v292h112v-280q0 -124 57 -169.5t173 -45.5q110 0 270 39v456h111v-954h-111z" />
    <glyph glyph-name="uni0448" unicode="&#x448;" horiz-adv-x="1726" 
d="M193 0v954h112v-858h504v858h111v-858h503v858h111v-954h-1341z" />
    <glyph glyph-name="uni0449" unicode="&#x449;" horiz-adv-x="1763" 
d="M1585 -313v313h-1392v954h112v-858h504v858h111v-858h503v858h111v-858h156v-409h-105z" />
    <glyph glyph-name="uni044A" unicode="&#x44a;" horiz-adv-x="1159" 
d="M336 0v860h-293v94h406v-374h256q176 0 269 -77.5t93 -217.5q0 -137 -91.5 -211t-270.5 -74h-369zM449 96h268q235 0 235 189q0 200 -235 200h-268v-389z" />
    <glyph glyph-name="uni044B" unicode="&#x44b;" horiz-adv-x="1417" 
d="M193 0v954h112v-374h256q176 0 269.5 -77.5t93.5 -217.5q0 -137 -92 -211t-271 -74h-368zM1112 0v954h113v-954h-113zM305 96h268q236 0 236 189q0 200 -236 200h-268v-389z" />
    <glyph glyph-name="uni044C" unicode="&#x44c;" horiz-adv-x="1015" 
d="M193 0v954h112v-374h256q176 0 269.5 -77.5t93.5 -217.5q0 -137 -92 -211t-271 -74h-368zM305 96h268q236 0 236 189q0 200 -236 200h-268v-389z" />
    <glyph glyph-name="uni044D" unicode="&#x44d;" horiz-adv-x="1015" 
d="M395 -27q-221 0 -352 150l78 65q46 -53 118.5 -85.5t155.5 -32.5q169 0 274 107.5t113 271.5h-471v94h467q-21 152 -122.5 246t-258.5 94q-82 0 -153.5 -34t-118.5 -85l-70 70q59 69 148.5 107t195.5 38q223 0 360.5 -140t137.5 -362q0 -223 -139 -363.5t-363 -140.5z
" />
    <glyph glyph-name="uni044E" unicode="&#x44e;" horiz-adv-x="1624" 
d="M1020 -29q-208 0 -342 134.5t-143 340.5l-230 3v-449h-112v954h112v-411h232q24 191 155.5 313.5t327.5 122.5q214 0 349.5 -144t135.5 -360q0 -217 -136 -360.5t-349 -143.5zM1020 66q166 0 267.5 117t101.5 292t-101.5 292.5t-267.5 117.5q-167 0 -268 -117.5
t-101 -292.5t100.5 -292t268.5 -117z" />
    <glyph glyph-name="uni044F" unicode="&#x44f;" horiz-adv-x="1093" 
d="M129 0l260 393q-114 24 -178 94.5t-64 182.5q0 135 96.5 209.5t262.5 74.5h395v-954h-113v385h-278l-246 -385h-135zM506 479h282v381h-276q-121 0 -186.5 -49t-65.5 -141q0 -89 64.5 -140t181.5 -51z" />
    <glyph glyph-name="uni0450" unicode="&#x450;" horiz-adv-x="1161" 
d="M586 1155l-258 295h147l207 -295h-96zM602 -27q-209 0 -346 144t-137 362q0 215 136 357.5t337 142.5q109 0 196 -37.5t141.5 -102.5t83.5 -148.5t29 -178.5v-57h-809q3 -158 106.5 -271.5t266.5 -113.5q104 0 181.5 40t146.5 121l74 -59q-154 -199 -406 -199zM236 543
h696q-6 154 -97 249t-245 95q-77 0 -144 -31.5t-111 -81.5t-70 -110.5t-29 -120.5z" />
    <glyph glyph-name="uni0451" unicode="&#x451;" horiz-adv-x="1161" 
d="M418 1243q-37 0 -62.5 27t-25.5 63q0 35 25.5 61.5t62.5 26.5q36 0 61 -26.5t25 -61.5q0 -36 -25 -63t-61 -27zM786 1243q-36 0 -61 27t-25 63q0 35 25 61.5t61 26.5q37 0 62.5 -26.5t25.5 -61.5q0 -36 -25.5 -63t-62.5 -27zM602 -27q-209 0 -346 144t-137 362
q0 215 136 357.5t337 142.5q109 0 196 -37.5t141.5 -102.5t83.5 -148.5t29 -178.5v-57h-809q3 -158 106.5 -271.5t266.5 -113.5q104 0 181.5 40t146.5 121l74 -59q-154 -199 -406 -199zM236 543h696q-6 154 -97 249t-245 95q-77 0 -144 -31.5t-111 -81.5t-70 -110.5
t-29 -120.5z" />
    <glyph glyph-name="uni0452" unicode="&#x452;" horiz-adv-x="1185" 
d="M709 -494q-65 0 -115 15l18 96q58 -12 95 -12q54 0 92 19t57.5 55t28 78t8.5 96v688q0 346 -272 346q-131 0 -223.5 -106t-92.5 -296v-485h-110v1174h-177v83h177v291h110v-291h332v-83h-332v-406h4q39 96 133.5 153.5t202.5 57.5q179 0 269 -109t90 -288v-740
q0 -163 -78.5 -249.5t-216.5 -86.5z" />
    <glyph glyph-name="uni0453" unicode="&#x453;" horiz-adv-x="858" 
d="M393 1155l207 295h148l-259 -295h-96zM193 0v954h620v-94h-508v-860h-112z" />
    <glyph glyph-name="uni0454" unicode="&#x454;" horiz-adv-x="1015" 
d="M621 -27q-224 0 -363 140.5t-139 363.5t137.5 362.5t361.5 139.5q105 0 198 -38.5t151 -106.5l-76 -70q-47 52 -119.5 88.5t-153.5 36.5q-156 0 -257.5 -96.5t-122.5 -249.5h497v-94h-502q8 -164 114 -273.5t274 -109.5q84 0 155.5 34t118.5 88l80 -65
q-131 -150 -354 -150z" />
    <glyph glyph-name="uni0455" unicode="&#x455;" horiz-adv-x="890" 
d="M449 -25q-111 0 -207 45.5t-156 133.5l88 63q42 -66 115.5 -106.5t159.5 -40.5q99 0 167 46.5t68 139.5q0 52 -30.5 88t-79.5 55t-108 34t-118.5 34t-108.5 46t-79.5 77.5t-30.5 122.5q0 88 48 150t119.5 89t158.5 27q105 0 190.5 -42.5t130.5 -119.5l-86 -61
q-36 61 -98.5 96t-140.5 35q-86 0 -150.5 -42t-64.5 -124q0 -78 55 -115.5t184 -66.5q161 -36 240.5 -99.5t79.5 -175.5q0 -73 -29 -130t-79 -91t-110.5 -51t-127.5 -17z" />
    <glyph glyph-name="uni0456" unicode="&#x456;" horiz-adv-x="497" 
d="M248 1249q-32 0 -57 24t-25 60t25 60t57 24q33 0 58.5 -24t25.5 -60t-25.5 -60t-58.5 -24zM193 0v954h112v-954h-112z" />
    <glyph glyph-name="uni0457" unicode="&#x457;" horiz-adv-x="497" 
d="M63 1243q-37 0 -62.5 27t-25.5 63q0 35 25.5 61.5t62.5 26.5q36 0 61.5 -26.5t25.5 -61.5q0 -36 -25.5 -63t-61.5 -27zM432 1243q-36 0 -61 27t-25 63q0 35 25 61.5t61 26.5q37 0 62.5 -26.5t25.5 -61.5q0 -36 -25.5 -63t-62.5 -27zM193 0v954h112v-954h-112z" />
    <glyph glyph-name="uni0458" unicode="&#x458;" horiz-adv-x="499" 
d="M250 1249q-32 0 -57 24t-25 60t25 60t57 24q33 0 58.5 -24t25.5 -60q0 -35 -26 -59.5t-58 -24.5zM47 -492q-58 0 -96 13l16 92q42 -10 78 -10q39 0 66.5 11.5t43.5 30t25.5 48.5t12 59t2.5 70v1132h110v-1147q0 -67 -11.5 -117.5t-39.5 -93.5t-80 -65.5t-127 -22.5z" />
    <glyph glyph-name="uni0459" unicode="&#x459;" horiz-adv-x="1708" 
d="M119 -10q-54 0 -94 12l14 96q27 -10 63 -10q122 0 178 130.5t56 404.5v331h661v-374h256q176 0 269.5 -77.5t93.5 -217.5q0 -137 -91.5 -211t-269.5 -74h-368v860h-443v-272q0 -137 -16 -241.5t-52.5 -187t-101 -126t-155.5 -43.5zM997 96h269q235 0 235 189
q0 200 -235 200h-269v-389z" />
    <glyph glyph-name="uni045A" unicode="&#x45a;" horiz-adv-x="1712" 
d="M193 0v954h112v-395h586v395h110v-395h256q178 0 270.5 -73t92.5 -212q0 -274 -360 -274h-369v465h-586v-465h-112zM1001 96h269q123 0 179 44t56 134q0 191 -235 191h-269v-369z" />
    <glyph glyph-name="uni045B" unicode="&#x45b;" horiz-adv-x="1185" 
d="M195 0v1174h-177v83h177v291h110v-291h332v-83h-332v-406h4q39 96 133.5 153.5t202.5 57.5q179 0 269 -109t90 -288v-582h-111v541q0 346 -272 346q-131 0 -223.5 -106t-92.5 -296v-485h-110z" />
    <glyph glyph-name="uni045C" unicode="&#x45c;" horiz-adv-x="1015" 
d="M465 1155l207 295h147l-258 -295h-96zM197 0v954h110v-450h6l465 450h160l-498 -454l549 -500h-164l-512 485h-6v-485h-110z" />
    <glyph glyph-name="uni045D" unicode="&#x45d;" horiz-adv-x="1220" 
d="M608 1155l-258 295h148l207 -295h-97zM193 0v954h112v-798l600 798h121v-954h-108v805h-5l-600 -805h-120z" />
    <glyph glyph-name="uni045E" unicode="&#x45e;" horiz-adv-x="962" 
d="M496 1178q-120 0 -196.5 70t-90.5 186l78 14q15 -86 72 -133t137 -47t137 47t72 133l77 -14q-14 -116 -90 -186t-196 -70zM172 -494q-47 0 -113 15l15 100q43 -16 94 -16q69 0 111 44.5t75 129.5l82 215l-399 960h125l332 -839l311 839h121l-475 -1220
q-45 -113 -109 -170.5t-170 -57.5z" />
    <glyph glyph-name="uni045F" unicode="&#x45f;" horiz-adv-x="1181" 
d="M539 -313v313h-346v954h112v-858h572v858h110v-954h-344v-313h-104z" />
    <glyph glyph-name="uni0462" unicode="&#x462;" horiz-adv-x="1206" 
d="M201 0v1139h-160v82h160v229h116v-229h428v-82h-428v-328h293q107 0 196.5 -25.5t157.5 -74.5t106 -128.5t38 -181.5q0 -103 -38.5 -181t-107.5 -125.5t-159.5 -71t-200.5 -23.5h-401zM317 100h275q119 0 205.5 29.5t139 98t52.5 171.5q0 152 -105 231t-284 79h-283v-609
z" />
    <glyph glyph-name="uni0463" unicode="&#x463;" horiz-adv-x="1028" 
d="M205 0v870h-187v84h187v273h112v-273h332v-84h-332v-290h256q176 0 269.5 -77.5t93.5 -217.5q0 -137 -92 -211t-271 -74h-368zM317 96h269q235 0 235 189q0 200 -235 200h-269v-389z" />
    <glyph glyph-name="uni0472" unicode="&#x472;" horiz-adv-x="1755" 
d="M877 -39q-212 0 -384 98t-270 273t-98 393t98 393t270 273t384 98q160 0 299.5 -57.5t239 -158t157 -243t57.5 -305.5t-57.5 -305.5t-157 -243t-239 -158t-299.5 -57.5zM250 784h1255q-13 167 -91.5 303t-219 217.5t-317.5 81.5q-176 0 -316 -81.5t-219 -217.5t-92 -303z
M877 66q180 0 321.5 83t220 223.5t86.5 313.5h-1257q9 -173 88 -313t220.5 -223.5t320.5 -83.5z" />
    <glyph glyph-name="uni0473" unicode="&#x473;" horiz-adv-x="1247" 
d="M623 -27q-220 0 -362 143t-142 361q0 219 141.5 360.5t362.5 141.5q222 0 363.5 -141.5t141.5 -360.5q0 -218 -142 -361t-363 -143zM238 530h770q-16 149 -117 253t-268 104t-268 -104t-117 -253zM623 70q90 0 163 31.5t120 85t73.5 120.5t30.5 142h-774q5 -75 31.5 -142
t73.5 -120.5t120 -85t162 -31.5z" />
    <glyph glyph-name="uni0474" unicode="&#x474;" horiz-adv-x="1363" 
d="M565 0l-549 1450h125l490 -1305h4l395 1053q63 168 121.5 230.5t163.5 62.5q69 0 115 -14l-21 -97q-51 15 -90 15q-58 0 -89 -37.5t-79 -161.5l-455 -1196h-131z" />
    <glyph glyph-name="uni0475" unicode="&#x475;" horiz-adv-x="1036" 
d="M422 0l-385 954h125l323 -837h4l228 590q61 159 111.5 215.5t146.5 56.5q59 0 108 -12l-20 -95q-44 13 -82 13q-51 0 -81 -36t-75 -155l-276 -694h-127z" />
    <glyph glyph-name="uni0490" unicode="&#x490;" horiz-adv-x="1030" 
d="M201 0v1450h690v299h110v-403h-684v-1346h-116z" />
    <glyph glyph-name="uni0491" unicode="&#x491;" horiz-adv-x="858" 
d="M193 0v954h518v254h102v-348h-508v-860h-112z" />
    <glyph glyph-name="uni0492" unicode="&#x492;" horiz-adv-x="1030" 
d="M201 0v719h-160v84h160v647h800v-104h-684v-543h428v-84h-428v-719h-116z" />
    <glyph glyph-name="uni0493" unicode="&#x493;" horiz-adv-x="868" 
d="M205 0v451h-187v81h187v422h620v-94h-508v-328h254v-81h-254v-451h-112z" />
    <glyph glyph-name="uni0496" unicode="&#x496;" horiz-adv-x="2019" 
d="M1864 -365v365h-125l-715 774h-2v-774h-117v774h-2l-713 -774h-170l748 791l-709 659h168l676 -655h2v655h117v-655h2l678 655h168l-709 -659l649 -687h164v-469h-110z" />
    <glyph glyph-name="uni0497" unicode="&#x497;" horiz-adv-x="1505" 
d="M1417 -313v313h-114l-496 485h-4v-485h-113v485h-4l-496 -485h-163l528 500l-477 454h160l448 -450h4v450h113v-450h4l448 450h160l-475 -454l426 -404h156v-409h-105z" />
    <glyph glyph-name="uni049A" unicode="&#x49a;" horiz-adv-x="1335" 
d="M1180 -365v365h-123l-738 774h-2v-774h-116v1450h116v-655h2l701 655h168l-733 -659l671 -687h164v-469h-110z" />
    <glyph glyph-name="uni049B" unicode="&#x49b;" horiz-adv-x="1028" 
d="M936 -313v313h-111l-512 485h-6v-485h-110v954h110v-450h6l465 450h160l-498 -454l445 -404h153v-409h-102z" />
    <glyph glyph-name="uni049C" unicode="&#x49c;" horiz-adv-x="1394" 
d="M201 0v1450h116v-643h119v231h105v-231h80l550 643h162l-626 -690l667 -760h-166l-585 698h-82v-348h-105v348h-119v-698h-116z" />
    <glyph glyph-name="uni049D" unicode="&#x49d;" horiz-adv-x="1107" 
d="M197 0v954h110v-411h88v166h99v-166h59l332 411h147l-387 -456l436 -498h-151l-377 449h-59v-242h-99v242h-88v-449h-110z" />
    <glyph glyph-name="uni04A2" unicode="&#x4a2;" horiz-adv-x="1517" 
d="M1333 -365v365h-170v698h-846v-698h-116v1450h116v-643h846v643h117v-1346h164v-469h-111z" />
    <glyph glyph-name="uni04A3" unicode="&#x4a3;" horiz-adv-x="1230" 
d="M1053 -313v313h-162v449h-586v-449h-110v954h110v-411h586v411h110v-858h156v-409h-104z" />
    <glyph glyph-name="uni04AE" unicode="&#x4ae;" horiz-adv-x="1193" 
d="M539 0v627l-531 823h146l446 -723l449 723h135l-529 -823v-627h-116z" />
    <glyph glyph-name="uni04AF" unicode="&#x4af;" horiz-adv-x="966" 
d="M430 -492v457l-393 989h125l323 -864h4l320 864h119l-385 -989v-457h-113z" />
    <glyph glyph-name="uni04B0" unicode="&#x4b0;" horiz-adv-x="1202" 
d="M543 0v424h-289v84h289v121l-529 821h144l446 -723l449 723h135l-529 -821v-121h289v-84h-289v-424h-116z" />
    <glyph glyph-name="uni04B1" unicode="&#x4b1;" horiz-adv-x="966" 
d="M430 -492v312h-209v82h209v63l-393 989h125l323 -864h4l320 864h119l-385 -989v-63h209v-82h-209v-312h-113z" />
    <glyph glyph-name="uni04B2" unicode="&#x4b2;" horiz-adv-x="1382" 
d="M1227 -365v365h-127l-455 676l-452 -676h-146l526 762l-479 688h146l409 -606l408 606h137l-475 -690l455 -656h163v-469h-110z" />
    <glyph glyph-name="uni04B3" unicode="&#x4b3;" horiz-adv-x="983" 
d="M909 -313v313h-121l-305 420l-309 -420h-133l375 496l-346 458h143l272 -381l273 381h135l-342 -454l307 -404h156v-409h-105z" />
    <glyph glyph-name="uni04B6" unicode="&#x4b6;" horiz-adv-x="1331" 
d="M1147 -365v365h-172v618q-166 -45 -354 -45q-451 0 -451 375v502h117v-492q0 -131 80.5 -206.5t248.5 -75.5q110 0 207.5 13.5t151.5 33.5v727h117v-1346h165v-469h-110z" />
    <glyph glyph-name="uni04B7" unicode="&#x4b7;" horiz-adv-x="1110" 
d="M934 -313v313h-164v403q-137 -36 -293 -36q-319 0 -319 295v292h112v-280q0 -124 57 -169.5t173 -45.5q110 0 270 39v456h111v-858h155v-409h-102z" />
    <glyph glyph-name="uni04B8" unicode="&#x4b8;" horiz-adv-x="1292" 
d="M975 0v618q-116 -34 -283 -43v-225h-106v223q-207 14 -311.5 102t-104.5 273v502h117v-492q0 -138 79 -203.5t220 -76.5v360h106v-360q184 9 283 45v727h117v-1450h-117z" />
    <glyph glyph-name="uni04B9" unicode="&#x4b9;" horiz-adv-x="1075" 
d="M770 0v403q-108 -25 -199 -32v-164h-98v160q-163 0 -239 75t-76 220v292h112v-280q0 -114 49 -161t154 -52v248h98v-246q87 8 199 35v456h111v-954h-111z" />
    <glyph glyph-name="uni04BA" unicode="&#x4ba;" horiz-adv-x="1290" 
d="M201 0v1450h116v-619q170 46 355 46q450 0 450 -375v-502h-116v492q0 131 -80 206.5t-250 75.5q-110 0 -207.5 -13.5t-151.5 -33.5v-727h-116z" />
    <glyph glyph-name="uni04BB" unicode="&#x4bb;" horiz-adv-x="1185" 
d="M195 0v1548h110v-780h4q46 102 136.5 156.5t199.5 54.5q179 0 269 -109t90 -288v-582h-111v541q0 344 -272 344q-63 0 -119 -25.5t-100.5 -74t-70.5 -126t-26 -174.5v-485h-110z" />
    <glyph glyph-name="uni04C0" unicode="&#x4c0;" horiz-adv-x="516" 
d="M201 0v1450h116v-1450h-116z" />
    <glyph glyph-name="uni04CF" unicode="&#x4cf;" horiz-adv-x="497" 
d="M193 0v1358h112v-1358h-112z" />
    <glyph glyph-name="uni04D8" unicode="&#x4d8;" horiz-adv-x="1691" 
d="M125 727v78h1315q-13 123 -58.5 227t-120 184t-184.5 125t-243 45q-139 0 -250 -52t-178 -136l-97 74q184 217 527 217q162 0 299 -57.5t231.5 -158.5t147.5 -242.5t53 -305.5q0 -162 -57.5 -305t-155 -243t-231 -158t-281.5 -58q-158 0 -292 57.5t-227 158.5t-145.5 243
t-52.5 307zM248 702q4 -131 47 -247t117.5 -203t185 -138t242.5 -51q165 0 302 86t216 232t84 321h-1194z" />
    <glyph glyph-name="uni04D9" unicode="&#x4d9;" horiz-adv-x="1167" 
d="M573 -27q-110 0 -198 40.5t-143 111t-84 161.5t-29 195q0 42 2 62h811q-16 147 -118.5 244.5t-262.5 97.5q-84 0 -155 -36t-120 -89l-75 67q62 72 155.5 112t202.5 40q222 0 356 -141t134 -361q0 -217 -137 -360.5t-339 -143.5zM573 68q153 0 257 111t104 270h-705
q6 -172 96.5 -276.5t247.5 -104.5z" />
    <glyph glyph-name="uni04E2" unicode="&#x4e2;" horiz-adv-x="1509" 
d="M492 1651v90h528v-90h-528zM201 0v1450h116v-1272h5l852 1272h137v-1450h-117v1280h-6l-852 -1280h-135z" />
    <glyph glyph-name="uni04E3" unicode="&#x4e3;" horiz-adv-x="1220" 
d="M338 1241v90h528v-90h-528zM193 0v954h112v-798l600 798h121v-954h-108v805h-5l-600 -805h-120z" />
    <glyph glyph-name="uni04E8" unicode="&#x4e8;" horiz-adv-x="1755" 
d="M877 -39q-212 0 -384 98t-270 273t-98 393t98 393t270 273t384 98q160 0 299.5 -57.5t239 -158t157 -243t57.5 -305.5t-57.5 -305.5t-157 -243t-239 -158t-299.5 -57.5zM250 784h1255q-13 167 -91.5 303t-219 217.5t-317.5 81.5q-176 0 -316 -81.5t-219 -217.5t-92 -303z
M877 66q180 0 321.5 83t220 223.5t86.5 313.5h-1257q9 -173 88 -313t220.5 -223.5t320.5 -83.5z" />
    <glyph glyph-name="uni04E9" unicode="&#x4e9;" horiz-adv-x="1247" 
d="M623 -27q-220 0 -362 143t-142 361q0 219 141.5 360.5t362.5 141.5q222 0 363.5 -141.5t141.5 -360.5q0 -218 -142 -361t-363 -143zM238 530h770q-16 149 -117 253t-268 104t-268 -104t-117 -253zM623 70q90 0 163 31.5t120 85t73.5 120.5t30.5 142h-774q5 -75 31.5 -142
t73.5 -120.5t120 -85t162 -31.5z" />
    <glyph glyph-name="uni04EE" unicode="&#x4ee;" horiz-adv-x="1267" 
d="M330 1651v90h528v-90h-528zM254 -14q-68 0 -117 12l21 108q44 -14 96 -14q70 0 121 39t96 123l109 201l-566 995h136l495 -877l479 877h129l-682 -1237q-64 -114 -135.5 -170.5t-181.5 -56.5z" />
    <glyph glyph-name="uni04EF" unicode="&#x4ef;" horiz-adv-x="962" 
d="M209 1241v90h528v-90h-528zM172 -494q-47 0 -113 15l15 100q43 -16 94 -16q69 0 111 44.5t75 129.5l82 215l-399 960h125l332 -839l311 839h121l-475 -1220q-45 -113 -109 -170.5t-170 -57.5z" />
    <glyph glyph-name="uni1E02" unicode="&#x1e02;" horiz-adv-x="1288" 
d="M584 1659q-32 0 -57 24t-25 60t25 60t57 24t57 -24t25 -60t-25 -60t-57 -24zM201 0v1450h420q70 0 133 -10t124.5 -36t106 -66t71.5 -104.5t27 -146.5q0 -122 -75 -207t-193 -112v-4q142 -15 240 -111t98 -256q0 -190 -144 -293.5t-374 -103.5h-434zM317 807h312
q63 0 120 14.5t107 45t79.5 85t29.5 127.5q0 72 -29 126t-81 84.5t-116 45.5t-141 15h-281v-543zM317 100h306q87 0 159.5 17t130 52.5t89.5 94.5t32 137q0 153 -106 230.5t-281 77.5h-330v-609z" />
    <glyph glyph-name="uni1E03" unicode="&#x1e03;" horiz-adv-x="1298" 
d="M674 1659q-32 0 -58 24.5t-26 59.5t26 59.5t58 24.5t58 -24.5t26 -59.5t-26 -59.5t-58 -24.5zM692 -27q-116 0 -220 56.5t-161 158.5h-6v-188h-110v1548h110v-788h6q60 105 162.5 162t218.5 57q217 0 352.5 -142.5t135.5 -359.5q0 -142 -60.5 -256.5t-172.5 -181
t-255 -66.5zM682 70q175 0 278 116.5t103 290.5t-103.5 292t-277.5 118q-167 0 -278 -118.5t-111 -291.5t110.5 -290t278.5 -117z" />
    <glyph glyph-name="uni1E0A" unicode="&#x1e0a;" horiz-adv-x="1558" 
d="M713 1659q-32 0 -57 24t-25 60t25 60t57 24t57 -24t25 -60t-25 -60t-57 -24zM201 0v1450h458q118 0 230 -28t211 -87t173 -143t117.5 -204.5t43.5 -262.5t-43.5 -262.5t-117.5 -204.5t-173 -143t-211 -87t-230 -28h-458zM317 104h312q159 0 289 47.5t215.5 131t131.5 197
t46 245.5q0 133 -46 246.5t-131.5 197t-215.5 130.5t-289 47h-312v-1242z" />
    <glyph glyph-name="uni1E0B" unicode="&#x1e0b;" horiz-adv-x="1298" 
d="M639 1659q-32 0 -58 24.5t-26 59.5t26 59.5t58 24.5t58 -24.5t26 -59.5t-26 -59.5t-58 -24.5zM606 -27q-143 0 -254.5 66.5t-172 181t-60.5 256.5q0 215 136 358.5t351 143.5q116 0 218.5 -57t162.5 -162h4v788h113v-1548h-113v188h-4q-60 -102 -163 -158.5t-218 -56.5z
M616 70q168 0 278 117t110 290t-110.5 291.5t-277.5 118.5q-174 0 -277 -118t-103 -292q0 -175 102.5 -291t277.5 -116z" />
    <glyph glyph-name="uni1E1E" unicode="&#x1e1e;" horiz-adv-x="1148" 
d="M635 1659q-32 0 -57 24t-25 60t25 60t57 24t57 -24t25 -60t-25 -60t-57 -24zM201 0v1450h860v-104h-744v-543h691v-103h-691v-700h-116z" />
    <glyph glyph-name="uni1E1F" unicode="&#x1e1f;" horiz-adv-x="595" 
d="M410 1700q-32 0 -58 24.5t-26 59.5t26 59.5t58 24.5t58 -24.5t26 -59.5t-26 -59.5t-58 -24.5zM231 0v860h-198v94h198v285q0 163 79.5 248.5t221.5 85.5q66 0 109 -14l-18 -93q-42 11 -93 11q-54 0 -92 -19.5t-57.5 -55.5t-28 -78t-8.5 -97v-273h234v-94h-234v-860h-113z
" />
    <glyph glyph-name="uni1E22" unicode="&#x1e22;" horiz-adv-x="1478" 
d="M739 1659q-32 0 -57 24t-25 60t25 60t57 24t57 -24t25 -60t-25 -60t-57 -24zM201 0v1450h116v-643h846v643h117v-1450h-117v698h-846v-698h-116z" />
    <glyph glyph-name="uni1E23" unicode="&#x1e23;" horiz-adv-x="1185" 
d="M629 1659q-32 0 -58 24.5t-26 59.5t26 59.5t58 24.5t58 -24.5t26 -59.5t-26 -59.5t-58 -24.5zM195 0v1548h110v-780h4q46 102 136.5 156.5t199.5 54.5q179 0 269 -109t90 -288v-582h-111v541q0 344 -272 344q-63 0 -119 -25.5t-100.5 -74t-70.5 -126t-26 -174.5v-485
h-110z" />
    <glyph glyph-name="uni1E56" unicode="&#x1e56;" horiz-adv-x="1183" 
d="M578 1659q-32 0 -57 24t-25 60t25 60t57 24t56.5 -24t24.5 -60t-24.5 -60t-56.5 -24zM201 0v1450h403q104 0 189 -22t150.5 -67t101.5 -119t36 -171q0 -186 -129 -285.5t-342 -99.5h-293v-686h-116zM317 784h287q166 0 263.5 73t97.5 214t-98.5 210t-264.5 69h-285v-566z
" />
    <glyph glyph-name="uni1E57" unicode="&#x1e57;" horiz-adv-x="1294" 
d="M676 1249q-32 0 -58 24.5t-26 59.5t26 59.5t58 24.5t58 -24.5t26 -59.5t-26 -59.5t-58 -24.5zM193 -492v1446h110v-190h6q59 106 160 160.5t219 54.5q217 0 353.5 -143t136.5 -359q0 -142 -59.5 -256.5t-171.5 -181t-255 -66.5q-118 0 -222.5 54t-160.5 157h-6v-676h-110
zM678 70q175 0 278 116.5t103 290.5t-103.5 292t-277.5 118q-166 0 -275.5 -118.5t-109.5 -291.5t109.5 -290t275.5 -117z" />
    <glyph glyph-name="uni1E60" unicode="&#x1e60;" horiz-adv-x="1159" 
d="M608 1659q-32 0 -57 24t-25 60t25 60t57 24t57 -24t25 -60t-25 -60t-57 -24zM565 -39q-278 0 -438 209l82 72q151 -179 356 -179q65 0 125.5 20t110 57t79 95.5t29.5 129.5q0 68 -26 120t-70 85t-101 59t-120 47t-125.5 43.5t-119.5 53.5t-101 72t-70 105t-26 146
q0 97 40 174t106.5 123.5t146.5 71t165 24.5q135 0 236.5 -47.5t161.5 -124.5l-84 -76q-123 148 -320 148q-61 0 -119.5 -18.5t-107.5 -53t-79 -92t-30 -129.5q0 -67 26 -118.5t70 -83.5t101.5 -57.5t120.5 -46t126 -42t120.5 -52.5t101.5 -72t70 -105.5t26 -147.5
q0 -101 -39.5 -181t-106 -129t-147.5 -74.5t-170 -25.5z" />
    <glyph glyph-name="uni1E61" unicode="&#x1e61;" horiz-adv-x="890" 
d="M471 1249q-32 0 -58 24.5t-26 59.5t26 59.5t58 24.5t58 -24.5t26 -59.5t-26 -59.5t-58 -24.5zM449 -25q-111 0 -207 45.5t-156 133.5l88 63q42 -66 115.5 -106.5t159.5 -40.5q99 0 167 46.5t68 139.5q0 21 -5.5 39t-12 32t-22.5 27.5t-26.5 22t-35 18.5t-36.5 15
t-42.5 13.5t-42 11.5t-45.5 11q-50 12 -85 24t-76 33.5t-66.5 48t-42.5 68t-17 93.5q0 88 48 150t119.5 89t158.5 27q105 0 190.5 -42.5t130.5 -119.5l-86 -61q-36 61 -98.5 96t-140.5 35q-86 0 -150.5 -42t-64.5 -124q0 -78 55 -115.5t184 -66.5q161 -36 240.5 -99.5
t79.5 -175.5q0 -73 -29 -130t-79 -91t-110.5 -51t-127.5 -17z" />
    <glyph glyph-name="uni1E6A" unicode="&#x1e6a;" horiz-adv-x="1148" 
d="M573 1659q-32 0 -56.5 24t-24.5 60t24.5 60t56.5 24t57 -24t25 -60t-25 -60t-57 -24zM516 0v1346h-487v104h1091v-104h-487v-1346h-117z" />
    <glyph glyph-name="uni1E6B" unicode="&#x1e6b;" horiz-adv-x="641" 
d="M266 1454q-32 0 -58 24.5t-26 59.5t26 59.5t58 24.5t58 -24.5t26 -59.5t-26 -59.5t-58 -24.5zM453 -16q-47 0 -86.5 12.5t-74 39.5t-54 76.5t-19.5 116.5v631h-201v94h199v273h113v-273h272v-94h-272v-604q0 -97 39 -136.5t112 -39.5q60 0 117 26l6 -96q-73 -26 -151 -26
z" />
    <glyph glyph-name="Wgrave" unicode="&#x1e80;" horiz-adv-x="1980" 
d="M952 1565l-258 295h148l207 -295h-97zM467 0l-430 1450h123l377 -1296h4l377 1296h145l379 -1296h6l373 1296h123l-431 -1450h-141l-381 1294h-4l-379 -1294h-141z" />
    <glyph glyph-name="wgrave" unicode="&#x1e81;" horiz-adv-x="1499" 
d="M694 1155l-258 295h148l207 -295h-97zM352 0l-295 954h119l240 -815h4l272 815h113l276 -815h4l238 815h117l-295 -954h-125l-270 811h-5l-268 -811h-125z" />
    <glyph glyph-name="Wacute" unicode="&#x1e82;" horiz-adv-x="1980" 
d="M934 1565l207 295h147l-258 -295h-96zM467 0l-430 1450h123l377 -1296h4l377 1296h145l379 -1296h6l373 1296h123l-431 -1450h-141l-381 1294h-4l-379 -1294h-141z" />
    <glyph glyph-name="wacute" unicode="&#x1e83;" horiz-adv-x="1499" 
d="M709 1155l206 295h148l-258 -295h-96zM352 0l-295 954h119l240 -815h4l272 815h113l276 -815h4l238 815h117l-295 -954h-125l-270 811h-5l-268 -811h-125z" />
    <glyph glyph-name="Wdieresis" unicode="&#x1e84;" horiz-adv-x="1980" 
d="M805 1653q-37 0 -62.5 27t-25.5 63q0 35 25.5 61.5t62.5 26.5q36 0 61 -26.5t25 -61.5q0 -36 -25 -63t-61 -27zM1174 1653q-36 0 -61.5 27t-25.5 63q0 35 25.5 61.5t61.5 26.5q37 0 62.5 -26.5t25.5 -61.5q0 -36 -25.5 -63t-62.5 -27zM467 0l-430 1450h123l377 -1296h4
l377 1296h145l379 -1296h6l373 1296h123l-431 -1450h-141l-381 1294h-4l-379 -1294h-141z" />
    <glyph glyph-name="wdieresis" unicode="&#x1e85;" horiz-adv-x="1499" 
d="M563 1243q-37 0 -62.5 27t-25.5 63q0 35 25.5 61.5t62.5 26.5q36 0 61 -26.5t25 -61.5q0 -36 -25 -63t-61 -27zM932 1243q-36 0 -61 27t-25 63q0 35 25 61.5t61 26.5q37 0 62.5 -26.5t25.5 -61.5q0 -36 -25.5 -63t-62.5 -27zM352 0l-295 954h119l240 -815h4l272 815h113
l276 -815h4l238 815h117l-295 -954h-125l-270 811h-5l-268 -811h-125z" />
    <glyph glyph-name="uni1E9E" unicode="&#x1e9e;" horiz-adv-x="2314" 
d="M565 -39q-278 0 -438 209l82 72q151 -179 356 -179q65 0 125.5 20t110 57t79 95.5t29.5 129.5q0 68 -26 120t-70 85t-101 59t-120 47t-125.5 43.5t-119.5 53.5t-101 72t-70 105t-26 146q0 97 40 174t106.5 123.5t146.5 71t165 24.5q135 0 236.5 -47.5t161.5 -124.5
l-84 -76q-123 148 -320 148q-61 0 -119.5 -18.5t-107.5 -53t-79 -92t-30 -129.5q0 -67 26 -118.5t70 -83.5t101.5 -57.5t120.5 -46t126 -42t120.5 -52.5t101.5 -72t70 -105.5t26 -147.5q0 -101 -39.5 -181t-106 -129t-147.5 -74.5t-170 -25.5zM1720 -39q-278 0 -438 209
l82 72q151 -179 356 -179q65 0 125.5 20t110 57t79 95.5t29.5 129.5q0 68 -26 120t-70 85t-101 59t-119.5 47t-125.5 43.5t-120 53.5t-101 72t-70 105t-26 146q0 97 40 174t106.5 123.5t146.5 71t165 24.5q135 0 236.5 -47.5t161.5 -124.5l-84 -76q-123 148 -320 148
q-61 0 -119.5 -18.5t-107.5 -53t-79 -92t-30 -129.5q0 -67 26 -118.5t70 -83.5t101.5 -57.5t120.5 -46t126 -42t120.5 -52.5t101.5 -72t70 -105.5t26 -147.5q0 -101 -39.5 -181t-106 -129t-147.5 -74.5t-170 -25.5z" />
    <glyph glyph-name="uni1EA0" unicode="&#x1ea0;" horiz-adv-x="1413" 
d="M25 0l628 1450h117l616 -1450h-129l-163 391h-777l-163 -391h-129zM360 498h691l-342 829zM709 -377q-32 0 -58 24.5t-26 59.5t26 59.5t58 24.5t58 -24.5t26 -59.5t-26 -59.5t-58 -24.5z" />
    <glyph glyph-name="uni1EA1" unicode="&#x1ea1;" horiz-adv-x="1079" 
d="M446 -27q-58 0 -113.5 16.5t-104.5 49t-79 89.5t-30 130q0 66 22.5 118.5t65 86.5t94.5 57.5t121 35.5t133.5 17t142.5 5h97v43q0 133 -70 199.5t-201 66.5q-81 0 -155.5 -30.5t-128.5 -82.5l-62 74q61 60 155.5 95.5t201.5 35.5q165 0 265.5 -88.5t100.5 -257.5v-418
q0 -125 17 -215h-101q-16 98 -16 176h-4q-114 -203 -351 -203zM473 66q80 0 143 29.5t101.5 79t58 110t19.5 127.5v77h-72q-62 0 -113.5 -3t-111 -11t-104 -24t-82.5 -40t-58.5 -61.5t-20.5 -85.5q0 -54 21 -94t57 -61.5t76.5 -32t85.5 -10.5zM545 -377q-32 0 -58 24.5
t-26 59.5t26 59.5t58 24.5t58 -24.5t26 -59.5t-26 -59.5t-58 -24.5z" />
    <glyph glyph-name="uni1EA2" unicode="&#x1ea2;" horiz-adv-x="1413" 
d="M668 1546q0 45 20 74.5t72 54.5q67 34 67 92q0 42 -26 67.5t-74 25.5q-104 0 -121 -113l-88 10q15 86 69.5 129t141.5 43q85 0 135.5 -44t50.5 -113q0 -102 -100 -148q-65 -32 -65 -78h-82zM25 0l628 1450h117l616 -1450h-129l-163 391h-777l-163 -391h-129zM360 498h691
l-342 829z" />
    <glyph glyph-name="uni1EA3" unicode="&#x1ea3;" horiz-adv-x="1079" 
d="M504 1137q0 45 20 74.5t72 54.5q68 35 68 92q0 42 -26.5 67t-74.5 25q-104 0 -121 -113l-88 11q15 86 69.5 129t141.5 43q85 0 136 -44.5t51 -113.5q0 -102 -101 -148q-65 -32 -65 -77h-82zM446 -27q-58 0 -113.5 16.5t-104.5 49t-79 89.5t-30 130q0 66 22.5 118.5
t65 86.5t94.5 57.5t121 35.5t133.5 17t142.5 5h97v43q0 133 -70 199.5t-201 66.5q-81 0 -155.5 -30.5t-128.5 -82.5l-62 74q61 60 155.5 95.5t201.5 35.5q165 0 265.5 -88.5t100.5 -257.5v-418q0 -125 17 -215h-101q-16 98 -16 176h-4q-114 -203 -351 -203zM473 66
q80 0 143 29.5t101.5 79t58 110t19.5 127.5v77h-72q-62 0 -113.5 -3t-111 -11t-104 -24t-82.5 -40t-58.5 -61.5t-20.5 -85.5q0 -54 21 -94t57 -61.5t76.5 -32t85.5 -10.5z" />
    <glyph glyph-name="uni1EA4" unicode="&#x1ea4;" horiz-adv-x="1413" 
d="M934 1733l162 245h147l-213 -245h-96zM420 1544l219 295h131l219 -295h-108l-176 236l-177 -236h-108zM25 0l628 1450h117l616 -1450h-129l-163 391h-777l-163 -391h-129zM360 498h691l-342 829z" />
    <glyph glyph-name="uni1EA5" unicode="&#x1ea5;" horiz-adv-x="1079" 
d="M768 1343l184 269h148l-236 -269h-96zM254 1114l219 295h131l219 -295h-108l-176 236l-177 -236h-108zM446 -27q-58 0 -113.5 16.5t-104.5 49t-79 89.5t-30 130q0 66 22.5 118.5t65 86.5t94.5 57.5t121 35.5t133.5 17t142.5 5h97v43q0 133 -70 199.5t-201 66.5
q-81 0 -155.5 -30.5t-128.5 -82.5l-62 74q61 60 155.5 95.5t201.5 35.5q165 0 265.5 -88.5t100.5 -257.5v-418q0 -125 17 -215h-101q-16 98 -16 176h-4q-114 -203 -351 -203zM473 66q80 0 143 29.5t101.5 79t58 110t19.5 127.5v77h-72q-62 0 -113.5 -3t-111 -11t-104 -24
t-82.5 -40t-58.5 -61.5t-20.5 -85.5q0 -54 21 -94t57 -61.5t76.5 -32t85.5 -10.5z" />
    <glyph glyph-name="uni1EA6" unicode="&#x1ea6;" horiz-adv-x="1413" 
d="M383 1733l-213 245h147l162 -245h-96zM424 1544l219 295h131l219 -295h-108l-176 236l-177 -236h-108zM25 0l628 1450h117l616 -1450h-129l-163 391h-777l-163 -391h-129zM360 498h691l-342 829z" />
    <glyph glyph-name="uni1EA7" unicode="&#x1ea7;" horiz-adv-x="1079" 
d="M211 1343l-236 269h148l184 -269h-96zM252 1114l219 295h131l219 -295h-108l-176 236l-177 -236h-108zM446 -27q-58 0 -113.5 16.5t-104.5 49t-79 89.5t-30 130q0 66 22.5 118.5t65 86.5t94.5 57.5t121 35.5t133.5 17t142.5 5h97v43q0 133 -70 199.5t-201 66.5
q-81 0 -155.5 -30.5t-128.5 -82.5l-62 74q61 60 155.5 95.5t201.5 35.5q165 0 265.5 -88.5t100.5 -257.5v-418q0 -125 17 -215h-101q-16 98 -16 176h-4q-114 -203 -351 -203zM473 66q80 0 143 29.5t101.5 79t58 110t19.5 127.5v77h-72q-62 0 -113.5 -3t-111 -11t-104 -24
t-82.5 -40t-58.5 -61.5t-20.5 -85.5q0 -54 21 -94t57 -61.5t76.5 -32t85.5 -10.5z" />
    <glyph glyph-name="uni1EA8" unicode="&#x1ea8;" horiz-adv-x="1413" 
d="M975 1733q0 36 15 60.5t54 45.5q50 24 50 62q0 25 -18 41t-50 16q-72 0 -86 -76l-84 10q12 65 56.5 98t113.5 33q68 0 110 -33t42 -85q0 -76 -84 -117q-50 -23 -50 -55h-69zM424 1544l219 295h131l219 -295h-108l-176 236l-177 -236h-108zM25 0l628 1450h117l616 -1450
h-129l-163 391h-777l-163 -391h-129zM360 498h691l-342 829z" />
    <glyph glyph-name="uni1EA9" unicode="&#x1ea9;" horiz-adv-x="1079" 
d="M782 1323q0 36 15.5 61t54.5 46q49 24 49 61q0 25 -17.5 41t-49.5 16q-72 0 -86 -75l-84 10q12 65 56.5 98t113.5 33q68 0 109.5 -33.5t41.5 -85.5q0 -76 -84 -117q-49 -22 -49 -55h-70zM252 1114l219 295h131l219 -295h-108l-176 236l-177 -236h-108zM446 -27
q-58 0 -113.5 16.5t-104.5 49t-79 89.5t-30 130q0 66 22.5 118.5t65 86.5t94.5 57.5t121 35.5t133.5 17t142.5 5h97v43q0 133 -70 199.5t-201 66.5q-81 0 -155.5 -30.5t-128.5 -82.5l-62 74q61 60 155.5 95.5t201.5 35.5q165 0 265.5 -88.5t100.5 -257.5v-418
q0 -125 17 -215h-101q-16 98 -16 176h-4q-114 -203 -351 -203zM473 66q80 0 143 29.5t101.5 79t58 110t19.5 127.5v77h-72q-62 0 -113.5 -3t-111 -11t-104 -24t-82.5 -40t-58.5 -61.5t-20.5 -85.5q0 -54 21 -94t57 -61.5t76.5 -32t85.5 -10.5z" />
    <glyph glyph-name="uni1EAA" unicode="&#x1eaa;" horiz-adv-x="1413" 
d="M406 1831q13 86 54 139t113 53q45 0 145 -48t132 -48q72 0 94 101h72q-13 -85 -54 -138t-112 -53q-46 0 -145 48t-132 48q-74 0 -96 -102h-71zM426 1544l219 215h131l219 -215h-108l-176 156l-176 -156h-109zM25 0l628 1450h117l616 -1450h-129l-163 391h-777l-163 -391
h-129zM360 498h691l-342 829z" />
    <glyph glyph-name="uni1EAB" unicode="&#x1eab;" horiz-adv-x="1079" 
d="M233 1487q13 85 54.5 138.5t113.5 53.5q54 0 154 -53q88 -43 123 -43q72 0 94 100h72q-13 -85 -53.5 -137.5t-112.5 -52.5q-54 0 -154 53q-88 43 -123 43q-74 0 -96 -102h-72zM254 1114l219 295h131l219 -295h-108l-176 236l-177 -236h-108zM446 -27q-58 0 -113.5 16.5
t-104.5 49t-79 89.5t-30 130q0 66 22.5 118.5t65 86.5t94.5 57.5t121 35.5t133.5 17t142.5 5h97v43q0 133 -70 199.5t-201 66.5q-81 0 -155.5 -30.5t-128.5 -82.5l-62 74q61 60 155.5 95.5t201.5 35.5q165 0 265.5 -88.5t100.5 -257.5v-418q0 -125 17 -215h-101
q-16 98 -16 176h-4q-114 -203 -351 -203zM473 66q80 0 143 29.5t101.5 79t58 110t19.5 127.5v77h-72q-62 0 -113.5 -3t-111 -11t-104 -24t-82.5 -40t-58.5 -61.5t-20.5 -85.5q0 -54 21 -94t57 -61.5t76.5 -32t85.5 -10.5z" />
    <glyph glyph-name="uni1EAC" unicode="&#x1eac;" horiz-adv-x="1413" 
d="M422 1565l219 295h131l219 -295h-108l-176 235l-177 -235h-108zM25 0l628 1450h117l616 -1450h-129l-163 391h-777l-163 -391h-129zM360 498h691l-342 829zM709 -377q-32 0 -58 24.5t-26 59.5t26 59.5t58 24.5t58 -24.5t26 -59.5t-26 -59.5t-58 -24.5z" />
    <glyph glyph-name="uni1EAD" unicode="&#x1ead;" horiz-adv-x="1079" 
d="M252 1155l219 295h131l219 -295h-108l-176 236l-177 -236h-108zM446 -27q-58 0 -113.5 16.5t-104.5 49t-79 89.5t-30 130q0 66 22.5 118.5t65 86.5t94.5 57.5t121 35.5t133.5 17t142.5 5h97v43q0 133 -70 199.5t-201 66.5q-81 0 -155.5 -30.5t-128.5 -82.5l-62 74
q61 60 155.5 95.5t201.5 35.5q165 0 265.5 -88.5t100.5 -257.5v-418q0 -125 17 -215h-101q-16 98 -16 176h-4q-114 -203 -351 -203zM473 66q80 0 143 29.5t101.5 79t58 110t19.5 127.5v77h-72q-62 0 -113.5 -3t-111 -11t-104 -24t-82.5 -40t-58.5 -61.5t-20.5 -85.5
q0 -54 21 -94t57 -61.5t76.5 -32t85.5 -10.5zM545 -377q-32 0 -58 24.5t-26 59.5t26 59.5t58 24.5t58 -24.5t26 -59.5t-26 -59.5t-58 -24.5z" />
    <glyph glyph-name="uni1EAE" unicode="&#x1eae;" horiz-adv-x="1413" 
d="M621 1815l161 245h148l-213 -245h-96zM711 1587q-120 0 -198.5 71t-88.5 195h76q14 -85 72.5 -130.5t138.5 -45.5q85 0 141.5 44t73.5 132h73q-10 -125 -88.5 -195.5t-199.5 -70.5zM25 0l628 1450h117l616 -1450h-129l-163 391h-777l-163 -391h-129zM360 498h691
l-342 829z" />
    <glyph glyph-name="uni1EAF" unicode="&#x1eaf;" horiz-adv-x="1079" 
d="M459 1466l182 269h147l-233 -269h-96zM549 1180q-120 0 -198.5 71t-88.5 195h76q14 -85 72.5 -130.5t138.5 -45.5q85 0 141.5 44t73.5 132h74q-10 -124 -88.5 -195t-200.5 -71zM446 -27q-58 0 -113.5 16.5t-104.5 49t-79 89.5t-30 130q0 66 22.5 118.5t65 86.5t94.5 57.5
t121 35.5t133.5 17t142.5 5h97v43q0 133 -70 199.5t-201 66.5q-81 0 -155.5 -30.5t-128.5 -82.5l-62 74q61 60 155.5 95.5t201.5 35.5q165 0 265.5 -88.5t100.5 -257.5v-418q0 -125 17 -215h-101q-16 98 -16 176h-4q-114 -203 -351 -203zM473 66q80 0 143 29.5t101.5 79
t58 110t19.5 127.5v77h-72q-62 0 -113.5 -3t-111 -11t-104 -24t-82.5 -40t-58.5 -61.5t-20.5 -85.5q0 -54 21 -94t57 -61.5t76.5 -32t85.5 -10.5z" />
    <glyph glyph-name="uni1EB0" unicode="&#x1eb0;" horiz-adv-x="1413" 
d="M707 1815l-213 245h147l162 -245h-96zM709 1587q-120 0 -198.5 71t-88.5 195h76q14 -85 72.5 -130.5t138.5 -45.5q85 0 141.5 44t73.5 132h73q-10 -125 -88.5 -195.5t-199.5 -70.5zM25 0l628 1450h117l616 -1450h-129l-163 391h-777l-163 -391h-129zM360 498h691
l-342 829z" />
    </font>
</defs>
</svg>
